<mxfile host="drawio-plugin" agent="Mozilla/5.0 (Macintosh; Intel Mac OS X 10_15_7) AppleWebKit/537.36 (KHTML, like Gecko) Chrome/122.0.0.0 Safari/537.36" modified="2024-08-16T11:26:48.911Z" version="22.1.22" etag="cqEsATg0s85Pn97OFEIA" type="embed">
  <diagram name="PÃ¡gina-1" id="l_04Ptg4ApyM4ccSp6kU">
    <mxGraphModel dx="1026" dy="729" grid="1" gridSize="10" guides="1" tooltips="1" connect="1" arrows="1" fold="1" page="1" pageScale="1" pageWidth="827" pageHeight="1169" math="0" shadow="0">
      <root>
        <mxCell id="0" />
        <mxCell id="1" parent="0" />
        <mxCell id="g6q2oZA1gRLXdf9-5JJ_-4" value="" style="edgeStyle=orthogonalEdgeStyle;rounded=0;orthogonalLoop=1;jettySize=auto;html=1;" parent="1" source="g6q2oZA1gRLXdf9-5JJ_-1" target="g6q2oZA1gRLXdf9-5JJ_-3" edge="1">
          <mxGeometry relative="1" as="geometry" />
        </mxCell>
        <mxCell id="g6q2oZA1gRLXdf9-5JJ_-1" value="Users&lt;div&gt;&lt;br&gt;&lt;/div&gt;&lt;div&gt;id: uuid&lt;/div&gt;&lt;div&gt;username: text&lt;/div&gt;&lt;div&gt;password: text&lt;/div&gt;&lt;div&gt;email: text&lt;/div&gt;&lt;div&gt;name: text&lt;/div&gt;&lt;div&gt;surname: text&lt;/div&gt;&lt;div&gt;directions: text&lt;/div&gt;&lt;div&gt;rol: enum&lt;/div&gt;" style="rounded=0;whiteSpace=wrap;html=1;" parent="1" vertex="1">
          <mxGeometry x="250" y="30" width="180" height="190" as="geometry" />
        </mxCell>
        <mxCell id="g6q2oZA1gRLXdf9-5JJ_-3" value="Orders&lt;div&gt;&lt;br&gt;&lt;/div&gt;&lt;div&gt;id: uuid&lt;/div&gt;&lt;div&gt;date: date&lt;/div&gt;&lt;div&gt;user_id: uuid&lt;/div&gt;&lt;div&gt;product_id: uuid&lt;/div&gt;&lt;div&gt;direction_id: uuid&lt;/div&gt;" style="whiteSpace=wrap;html=1;rounded=0;" parent="1" vertex="1">
          <mxGeometry x="500" y="50" width="150" height="150" as="geometry" />
        </mxCell>
        <mxCell id="11" value="Products&lt;br&gt;&lt;br&gt;id: uuid&lt;br&gt;color: enum&lt;br&gt;description: text" style="rounded=0;whiteSpace=wrap;html=1;" vertex="1" parent="1">
          <mxGeometry x="640" y="330" width="150" height="110" as="geometry" />
        </mxCell>
        <mxCell id="12" style="edgeStyle=orthogonalEdgeStyle;rounded=0;orthogonalLoop=1;jettySize=auto;html=1;exitX=0.5;exitY=1;exitDx=0;exitDy=0;entryX=0.45;entryY=-0.033;entryDx=0;entryDy=0;entryPerimeter=0;" edge="1" parent="1" source="g6q2oZA1gRLXdf9-5JJ_-3" target="11">
          <mxGeometry relative="1" as="geometry" />
        </mxCell>
        <mxCell id="15" style="edgeStyle=orthogonalEdgeStyle;rounded=0;orthogonalLoop=1;jettySize=auto;html=1;" edge="1" parent="1" source="13" target="g6q2oZA1gRLXdf9-5JJ_-1">
          <mxGeometry relative="1" as="geometry" />
        </mxCell>
        <mxCell id="21" style="edgeStyle=orthogonalEdgeStyle;rounded=0;orthogonalLoop=1;jettySize=auto;html=1;entryX=0.5;entryY=1;entryDx=0;entryDy=0;" edge="1" parent="1" source="13" target="g6q2oZA1gRLXdf9-5JJ_-3">
          <mxGeometry relative="1" as="geometry">
            <Array as="points">
              <mxPoint x="474" y="300" />
              <mxPoint x="575" y="300" />
            </Array>
          </mxGeometry>
        </mxCell>
        <mxCell id="13" value="Directions&lt;br&gt;&lt;br&gt;id: uuid&lt;br&gt;user_id: uuid&lt;br&gt;street: text&lt;br&gt;number: text&lt;br&gt;postal_code: int&lt;br&gt;city: text&lt;br&gt;country: text&lt;br&gt;" style="rounded=0;whiteSpace=wrap;html=1;" vertex="1" parent="1">
          <mxGeometry x="414" y="380" width="120" height="190" as="geometry" />
        </mxCell>
        <mxCell id="17" style="edgeStyle=orthogonalEdgeStyle;rounded=0;orthogonalLoop=1;jettySize=auto;html=1;" edge="1" parent="1" source="16" target="11">
          <mxGeometry relative="1" as="geometry" />
        </mxCell>
        <mxCell id="16" value="Colors&lt;br&gt;&lt;br&gt;&lt;span data-buffer=&quot;&lt;!--(figma)ZmlnLWtpd2lGAAAAr0sAALW9C5xkSVXgHffezHp09WPeLxjeIr6HmWEA3/m4VZXdWZk5eTOrZ2bVnKzKW11JZ2WWebN6plnXRURFREREREREPkRFF1EREREREREREVFRERXRZV2WZV2XZVnX/f7nRNybN6t7WL/f91t+TEfEiRMnTpw4ceLEichbf+1vxUnSvxB3Lh/Gxtx8tllr9KJOqd0x/K/RrIa9ymapsRFGFL1uFLZzZV+xw0aVfBDVNhqlOrlC1Lm/HpIpaqYXhUJrSXGVci86V2v12mG9WZKWy41mp7Z+fy/abHbr1V63tdEuVaX9isv2qs2GlFfTcjtcb4fRJqATUSVshD3Arc3evd2wfT/AtTywHbbqAjxZra2vk56q1Gtho9Mrt+m9UoqEt9M53s42u23GEQpnZ6JOOyxt2RrK17iyHfG1tUYnbJcqndo2g6zXYMyKhrrr2mGl2WiEFQabYybl8PqrV6e83qD80Euv1qi0wy34LdWpdW3AuFFnBr463Wje602lh4cJ03IfeSOEvNLuLtMLCL6rvWZDyRstnG/XOtLIa0wGcWu/n8Sg0Vupo2MHaau5rVnv/HA8GI4vtI9GgtNoNh4I200qTLOq9ULB6s8XURkCMtVmpSt8k/UqpcZ2KSLnb7Sb3RaZYL1d2hK8QrnZrIelRq/ZQpSdWrMBsLjNIJttckuMUNLlek3JroT1eq0VSXYVcXQYt2raiXa40a2X2r1Ws37/hhJZo6tGNayK2DK8k53wPmHpFNNVEcDp6P6tclO09kytQWcNhTLPtco5EdW10WapFfbO1zqbPdf2OjcLyuD1FZmHcr1ZOUfphvO16oZq+43Q2pKR3rQVVmslMjdv1jY26/wn1bdEELCDvdVlewi7XS9Jp7edL0WbtV6Hnik9arvUrpXKyv+jOy5zu2Z6FeRB6TEpiltrj2V4uoIeV4qiWsSE9qDc7Erd46/U2rCuKkblEzJCwk2bSoBP3GpWu9rrkyz+BhWUvsCW2s3zFJ7Mgmw1G5FSVSa+UEVTaW4BttSfEu33D+Pzw9l+J354ZhXmMdG93VI7pNYwFje3HiLbauoi8zswJLOHXaAYZMVq87yIr3C1aS62Su1SvY6BYV1t9dpO6kuL4Hq4LtDlsLHRq5YQaEk7X5EyC7UrhVUprNeU6gnNN+vVUGZ+rcOSDR9oqihOttphNVxHSau9VrtZCSNR91PMYliX+tPpcuhFNcfjmQy01a13ai0FXrNVanRZ6rVGSyfr2s3wvpLV5+sqm+F2W7PXt2jmwDc0GbbNis4JZze16l3p/uZSm7lJh3mLLaWyuDXqbm3BS+9st4EuKIHbVKUfFbXCsLLZK3fLKAKAR6vGYBOxN812SS3N7eVRPB5sse6FHbSs19lkJjbEJrNrtLd0J/Cqpfa5UEj7bpCi3oEsZtZqGUNLsVBp1ptZqahLRNssRVgjzenyp0W1yfKivGKbpMVVUVYUnOyJqLne6SkNSmubpTaq70q6A4Tt0K7xU+F9FeRkR356U2f7TIQ9zczQNdoLmWvrXUTVjGod6eK6Vn84dtq7EjVZAwANGlWtMS30JqwC8TKQpCoP7B9ZAaGpYq+ABRkMJKf0hdqWFXMRG3y2RmZpm6UmJne5dsBmHe32R7GVPrttO+xUVPDrNRmnh75qbx2rt0G4txfvOo4LNYxXm722xAKi0lTbzda86K03MaXMJHtPud4VBv1yqXJuERTI+q3ojrHURKNqKAdg021hxUm9evO8ZmChY3mI0Ih6r1JqiWYW5iUWVLuiu0xRiFbj3cm0PxtOxrRJ9xJ6Zn6RK3mP4dbOhXNt8xebRbPLskkF2cRUmx3sHxnvfGlb5s+vx33ZzTrT4QGltBOY6W2GTlW8xtHBTjztjoezBGLtksjGtGr3hfWIjMcw2bYF069MxslsOleJZVQFuJF6lYG3VZL92IdxN09BVMHBIFNYh2K1Z1sUXUGxl6LZdHIxLo2GF8Y0yIgZdik0gYyHOXdZ3yJX+oeocDoe5KO65GUG1rcWQAQpgwhsMby3W6uz52MZARacEorNsz5QEXmjrVjcDLSU38qW55tV76mUV3LlOymv5sp3UT6RK99NeS1Xfhrlk7nyPZRPVWrtSr7303a0ZydDkcwWTkwbqCmH26GMwEsH7pcnk1HcHzcPY6sajK7bsEsbMdJMdl7yXtQtY8w179+nK14VXIW/OZkOnz0Zz/ojmjtTmptblF+l4J/t4jOs15TDeevteDobslYF1mxRlWtaRjGbW+T8rclREleOpslkijzYR0oYSypMpd2MWJq1NnkvvD+UtYrqUfJx+bSrVomhYDwrrAnKBbYGkiJJpVYnt7QlJliaLDPFuO/kVrL50+JqHfsttuXENmZiMt0aTqfCSbb+dPpJPc1gu7Cp7IUd0WW/2k/2rSXyK+zfgMxc0z21VnZhFFqNDUDmbCuU1Iu2JfFbVfHKg/Dhw8l0dnwxBfhabAZsm27FmBSAp6X9eykgW7t+vX95cjTbmA4HlkjBrq+c6OcM+na5BfM2rf5sFk/HVIFVa+lSwbqrMfF0Yo9mk3acDJ8N6UxEyo5KJuPDy3JqojrTo/Gu00O/WovEyxKaBjeffZiMp7Yrit3YmcN21HSWtcOxg8SroGZWadbbrFxmWUxa0AnxstolPVsUUjIIcxZnkswMYrrfkPXSfQYL0t+9aKcxG9Mmpv0BpKsceGyxOMWat9iq4HR3hXStSP0y2ia2hnygDSqTIxiaunZLj9QOsbvJCUrdjuhlIUeqqKTOHiWz4d5lio9IpVWq4Nluh/bIE9hyOeycty4FUoJOZGdRLS9AzjxR7YGw12liblRACwCUjkmubbU4PFCSGnCsNFqTZCiTy8YCyDFuSmXE3rXHLEU7PxUjzabD8avUAmxcaqvzInLTB3ZK7fgYPFDGLFm6tZO8mk4dNsF6bHJMpOx12zpxZbZy0qBSb6qvW8BV76U+P+Vit4UnHPb00NJrdxudmh7Tllhl1Zr4RaoAy/lmPY4HgrNSg99pP8fONZxqsAnapSmtw1JP6LFxUfa2mkQT8HTJ+zZvKwJabYpHR75gK/BNBK1oS3oQWAILp1v9bAIIOuyVKt4p6Sp158L702YnKG437Xlvjbwd3KZO8MmszDKkfMp2kWrTaVvkhLotrc90pv2xnWc7wtvYjjl1dHrsH2zMIiDQDMubedcm3joBC1LfHpbW283s4BHkQOk+UsjB7I5RzEGyLWOp1Y02LcwRW55DUlorc5AltToHZJROyCHfwhyltTkkpXRyDrKUEFMKyCidtowyiSClxM4sAFN61yxALclrF2AZ1eu0Jwd1RK/Pw1KaN+SBluSNeVBG8SZsXq2C1ur83IwrStSn1MAU6jq9hVNHE+d0Drk17CcsazvjpwnMVLrlWoUKI6TTgldr5Iu+2Cvr4NNC1l1WVRC8BUjRtl2ALVlTn5WXo1bb7hMrG6gn6y4DrDrUDHDC5nSBsFLt6lhbBHbOi005eQy4yYkL8KlodzoZjarDqTUvMO3W2OfZFZCwWm3bFts0E2sQD7Bss5j68L4WG6Q1tBUoiMulJW+jy9bk+QmhKjojv2y80QS/SbN+ZTLCH/EKU7NqvAv84+/wT9Dnn4J1WWj8MCXvMv/4bUBgzwEP8U+wzz8FpRTNJoc02JW82THeoTPdINiuBGG7PzV+sCtFwdGMwN5ZMH6uQbDVn02HDxtv6eCOOyh7B3c8lcQ/uONOkuDgqQIsHDxVgMWDpwpwqdWfYtdr40FMO//C0XBgHsxxsWZ8e/qg8lJ/dBTTxjvSk8hjjL+OWBv9g9h4wV7/YDi6DL6XyI5PRjibJbvT4eGMUiC48Dzs0+ToIJ4Od9eHF46mzAV7vDuiG/QUBSDjEdnQgC157WaxaXTY32UVLLQl1IHbIVZPyx4xFHeqvQqBddEGGWCeApaX4IXm8crQf1WIfOtK/zBB++dNWLB6vPVIemnBb4UcNYX1AEAvK4nHT5BXskVADHaD7FKOfiuVe54tTgT8y8EAH4yM8hOpkJmcDKvGItC16UXxAaSGu+fj4YX92QIS0UUZUoZS4ygx3F1AmdPhrKI7y3rcn+lE/a3X4mBKlanc2VIUNxq/0ooEHsioSHWgpEUXml0i0CSO9XKzXW2QrpTW21K/Wm2oFTzR6G7J0NY4B0h48iQbtYjmVNWmp+WAQHqGg7ek15RKeia5tmLT6ziUSXp9ZMs3tLc1fnOjWATSm6LzGqC/uRKdl/QWJlngt1YqGhe9LbI+3qM2iU+SPtp5U7c32w3h7zEiFNLHsrGK/B5X7ejR+/Hr9ZKM4wlbG23xK54YobOkT+KQI/1/wTquOOmTN236hZu236d0bPmL7rXpF7ds+iVycCP90vp6Wcpf1mxp+uXtjqZf0bLt72ida4icnlrHbpHeSSp83tXu1KV8N6mUn1Yqt7dJ7ymVt6X8dFLh+xnbls4zt2GI9CvL9fMyP19FKnhfTSp4X1M6tynj+NrKWT2Qfl1lXRfU11daWi5Vum3BK+NjSLmCVZW0um7phwQhhZ910jtJN0jvIt2kW+mvRir0z27a8dDbhvBT32yeFb3Bn1bHqFHDgyFtnm09/RmkrbOtZwide8+2nnkHafts6467SaP62S1p1yEELvhdtlOZl23xqkjPkwof922d2xL4/Y26+oMPNLrnOqT/ip1H+PoG0oj0G7cROOk3taKOwHukAn+wfa4t5X67tSnpTrtblnnfjXDHSQcdy0fcaehJaY9pkvm7sE1Ij3R/29YPt+24n7V9TvXl4na70yYdkd5JehBFWHBjxqRSnpDeRXpIejfpN5M+jXRKeg9pQvp00hmpyOmI9Jmkl6II22/MQ6RC72FSoXeZVOg9m1To/WtSofctpELv35AKvW8lFXr/llToPceLojuF4Ld5lW3l8LmSEZLfLhmh+TzJCNHvkIxQ/U7JCNnvkozQfb5khPB3S0Yov4CMsvo9khHKL5SMUP5eyQjlF0lGKH+fZITyiyUjlL9fMkL5JZIRyj8gGaH8UjLK8w9KRii/TDJC+YckI5RfLhmh/MOSEcqvkIxQ/hHJCOVXSkYo/6hkhPKryNwllH9MMkL51ZIRyj8uGaH8GskI5f9HMkL5tZIRyj8hGaH8OskI5Z+UjFD+KTJ3C+WfloxQfr1khPLPSEYo/6xkhPK/k4xQfoNkhPLPSUYov1EyQvnnJSOUf4HM04TyL0pGKL9JMkL5lyQjlN8sGaH8y5IRym+RjFD+FckI5bdKRij/qmSE8tvI3COUf00yQvntkhHKvy4ZofwOyQjl35CMUH6nZITyb0pGKL9LMkL5tyQjlN9N5ulC+bclI5TfIxmh/DuSEcrvlYxQ/l3JCOX3SUYo/55khPL7JSOUf18yQvkDZJ4hlP9AMkL5g5IRyn8oGaH8IckI5T+SjFD+Y8kI5T+RjFD+sGSE8p9KRij/GRk1UX8uGaH8EckI5b+QjFD+qGSE8l9KRij/lWSE8l9LRih/TDJC+W8kI5Q/7h2PUuGizdiuzT3GS101X5zZrf7hoThLnr83nRyYB403m/CvXx5NcCa9ncuzODGBZ8Njxg+4fd2X8lg8O/y4QX/WV9xlE2wPB/HE+H6Kk9zVnY4EqdVPZnE0OZruQsJPpnh3OCjiDk53GxLKoUNAHMor4r2WBs8iamK8lZkwjk+Z7PcHk4cSsv4+bgsxh318TLzWQTzrD0fkCjHjTcQRwXu9REwiJjZGfmkWH2hU1VYtXxrucDCGjVUOnSIX2617WWD8E/93u9zFO5siDPKrO1OhOaZnSieUGePfrJN0jbFuPP68PxFvdiang+DSMBnuIDjPFEjcpdZpU0w4BSRm31uC9jjZm0wPzMgsD3XGXuiZFc119nHVx8I6oNX+GCAnnppUCeQaC8G9xPtlapfNtZTz9zfXmRMWsj85Gg0qwt9WfwwAfm6aTjg60Rg21xJpQubknspWMd2UvsQzpw5lpOtahd01p+ODybOGFXpoESdHxsvemUuqSC/yzHXEtC8MxxyvpOfzw8FsH86uX4BuWk922dywKz3hLMvR50YVihSe5d0sTvEW81ZFWY1fvBhfNpxZ9oDWh+OUADMtkOrwQgynAacWStaV/lZTkILzmYtcgFCC9tCO2Q/6Dw+TTv8CTHiSbYgE0ft0pWmY3XZ+/e5+X44X8TQBw8tK2lGtKsP3E8k3L8VTgrxxp89cm3f6XjCC18S8IfBOjjQGvA0N6X7ZrOz1R6MdonLCV2Km3omDYRqVy0Z3rW2lgcQBGsSlmKX4Ws8rXhhdPtxP2GW8pUF2Q5Wwx3jLO5xvL37z0UQMwes975o96GbCfLnnre6jslNIXSxPHgbn1Z63NstCyBypp+4EWTSnHDweZFydHk0uyL2DonQmlVQezb29JJ5hncyqd+aAcUDL0n+N51034Jh2KR7Ulf83Bt71VQuYy9nJyI3WWxitPx8ty3lhtCyshdEWj4926crRLrtRQWNhtCsOnhvt6r9gtCeOj3ZtYAdXV/4Z7cnNHA/GL+wQix0kZo/Dt7W37qQe7Kd4HCCKhCgzwiyCeaNkzjQhDOxKmg+GLKARpDA4B7btOZbOsimWnTiNv4INtKdS0B7SBcpCkrr7yajOZqMvSKmU7EKK0jImczKN67k7Tizk3nCazDK5SF8wlC8vbcjk0fHu5OCgzxDKdveZhyUGxq4gBs0YZAJVC+j/SuL9wSVnm5eutEPLClIjE8Uz87kCcdtMXdjIpoRvkKCHBNPuZN90+oNZuOQu1cqYIQSt4K3+lGlzss8zauNDqmfSUgqNePbQBHQ3QsR1wHw8m0AV/2TjvNJSyMbO7RBS8kQVEvOg50WXD3YmI0c+0QL9st/bfEokEQI+QRzZRiJ4j9cRFlsRk5mSRU/VZ/B9dAMKh8BwLAkUIL2NeCybHxJyfU3ylL2jJF5HCzbEKWEcl8caqvFwJIZ7e83x6HIboV/qjxQ7qFrNrx0cHM1kdLo3Wbr+Il0Kzhj6pSSJZ7UBXDJ+dG06BOetnue5ihDQZQj0pSgKjR3WfG2AO+rat2Nmx79oa1PiLC2tBNFfFsnK6PsCEfS30Za1NGNwk6PD2sC8wzOBzhD5d7KGrKQpvMvDY5DtgyFRfLdnltJipNTf6xFFzZPy0zW92F3kqD9SddrhI9Rvu05RhP8DRhMRiLBrg/8TZsQAqo+EhCNxRHeDR6rntvIQS8ycR5B5RLTOfnzweZheH6GgHWwfQaYWEXIcYhNulTVgxy1HJWzZ5yY+wayNhrxsohDIq7NuWeCFCKOHw0QnrSleBMZmJoXtTA3woeej1enyZ2w9bjrQSHYWPAJAFfFJtvrjI3boy1E8Yl3HWEpTGCblyXTg3KOrIBSTox0JkO6wq0nnbnBLyS6lfsrKMmY0cUsuHqzjwle58OXWErdvPorFpfBhlsJCXUiFLIiZlBnOBzzjad6O/kOMLsJoynIVfYKTmLgwVtNf3cORP2cXSaKVzMqDOD6Wvc0+BwHCuzJLrX5mOBJOmOy07mhRHA1xkKeXxbp0JpEbNWgCIArgLWHp0Yp47Bbr8tF4byR333KFmSe5Mky6aZXKcNWyXUnbb/U5h6QmdjeFWqre4dHOaJjsQ0w6FnY7k07cP6jP2ZNO/OOdBDXOWLKJpGskmsmw54ZPSDX3oofgFFPmkMVe4uQvsLBo0q5Od/vOfxFldqH+KMrNSNrEkrbvrIx/aiar5AbhBC3U44Z6IuwtwZR9+UjOJoX5uaNIkp07lpLDadwfgLGc7E8eQtacmMoxEhzIRgD6iqWxzfaHS76qnbjCCdvYldYedpmTl13mVEfOMrqh18Z7cqpUVu8z3uAIXQdMvz4KOptIRTW+NNxNn2+kF0ASqNO3Jl6F0KkGk32FcSckVwGU2WGkYTs9vrCHucaVyvmeHs69Y53gcEnB/B1iTtw+zFiQWm3AVA73hrgWKD2tLM1PsNqbiB+PtOV8lI4QMCvZWwDDNWB6Z+hJPqvxpZTeHAZcXDGOFLPgihly0QFS/CX7SJPcsmOgzCHhAnuKOHksBbZ2uKGXbNRy3c41nL0NlxtJ93LLu4KAHUPWkiBsrdpLHyJeiV5CR3G8REF9fycDK5VPI8o5qCJqIrrY6HOsVhkqlik2StvcAeh1ieFStG1fUnrReb148CXtcTejCIG7HdUHCYWQs7qEQ6DMdIrVAiN91wqCidobepFCsLoF2V7rrt723QB82zLicI9lYCtYS4729rhHw2IMxTNU1u42XNKx/sSrmRHLNEFy6YLYGT0JMv8Ua1VdN59jFVFqHs3EG5YtgnpMHNOB1ykeEOVlMNYnhEsifUGG3bqYAF7BeyrtJJPR0Sx2PiRGbjc/qs945sQ3s5fYkMGa4357w/Vu/Np6rxGG7nKzVD9fuj8i49X1uCTPilKr8Ax2Vc6yxsecZwYgGB8dRJgO5iQxHCmcuSACklhoJCsCb/rCEQZy6krLyiJTunIodnM6Nl9pVnOU3Jo/Yam50lpia4WGA52cU3WQUxtsLWiUnsBh1bMk6DN1DYIWRhKEhzBLzKD+MmDFYPAWTg84brJ1qyMeSbYjIpDLPKvd8qaPhJu/dvOcQHz3xj4I19ft47wC9xvNtuSK7hHWEiaR7Ufp5TZN25c1+alr6XbKdJ8VBCadsYoSwX0iENckYUZTQ0LZl3m3Ve5CGxvMykHgAHQRyAwzhPvCau/8Zsji3qzVq73mes9Wc9XYS3/mwAhZ+Pe7Gmnol6a7GRecFBFiaXwBKRIlYzPIFf3hGEekrTafYmD3nzrnT9oeTYdw6A2GyeGof1nXxZp4/VrUZQD/rdERgR3X26EWkCTNOBEQSaHBRTvQlta141GfI/a+bVA4VKBtcBDbiB5N3FSTxSer4mHhKaHKha2j0WwovcfT9WE8GmzbqWCCdllbyB5l8PI3/X5lwgDlNLTVl3Cf3E06/XAPn8R2k/jOQAfWHpMrpCa5mBnrJWnTW3iksBzaZ+IruddYq1mn4XhwKEdTRBO7rOyzsPYg3kuqEKzfA8vdS30TZI3JYEpGLWnFCHPodpXTDBSLK7MRkZN6fPZatVrXh2WYVtVvMwfZt0jp866JBDJKkCORVSgX1U4+Zew1qVcO6/p8e7G3raEdD0NLAErHr1hYzORydF+ZHxn6hZlkedBdWC83z1vTxkotOZmz/bft74Nyver69rMNUu/3WQPkvNJ47PZurCoRlNlli32rswJC21oBj6tZfUriZ08oA+4leym4IIWsqrhVui+rYm++b161bElmtSsVbpfDdo+rwVpXVuFqZmdOiOVhLuz7hzUt6UFmUZdOrpPrrZe2avqs8JQW3dX1aS2cTzs/gwUI57xcUw87qGhPHvFhGoBcy8zjDcwB11lAq1R1L0KvtwD3wO4GW1Ku3AZ7Y1Ma6wX4Tflf2tysrKSjueVK0Rvfm4n0X4s+zGtR4VF/J5Zol3doMeVo8zpiF3Okrbgv8XkJXclCiWSnMAW7RE22ND23WP10iQZXpcBhR/cTb49DlpAj788mLhekUO3k9b4pzCZR/8AW2fHVMlrtFaM144SLWi+x5abg9eHDmCX2Sksz0niH7l348yt709j6Cmtm1R1ItiaXYucaT0aDc2oXCcWwaaxnG4Kfw90cEhKfXq5xPUGTRG9jpKeajsqWK8cOJHi88Uikq0xrCPIihnZsm9Hf3ryrEXXOrEvY72JXY5GF88PBhZj9itWNRfUJYmlbugwHQ8KOMoDCbIi9nvUPDmvJ5Bn3cGkMaXydKYhCmUEJcjwoSZw/2OXkkBYKUpEu56VqKL/tZA7N+c1aJyw3S21Z9p6+2JNl5FfD7Z68SG/qTyyDCCyBFypN+V0fuSL77kVLLijVW5tyBS/P52SNkPP0Fzbu13cunuGwG+g0QBOxJLCO6YNW/T1RWvIjrA+KFaFfbJLzRuUuWzKpJ4uDBWjN1QK2lVUx0YJ5O+tBBNM9HCCM7nj4cCcVImLxOelxjD6U1ogwyIRZ4KhyKcpIFBtMBxHRMVul/2o9qMvUSGrvM552uN9PYrNkfM1Y4D2HeCnpw7CxCXJFi/D0mYjkBKuA1IKeMba6UZTUgp45TFr20C26zjJ5g7fI9tv90Vx/dfhv8M1z8kCn1OaNvvfDzjf4dXWIShIQklDMWzzzv63HxUa5bJ7qspaDeJhEk72ZcwoiqYKNN3pc4UzGVrKOtZ8Htj4cjVKcH6VsnfMU8uNAmpfsKVtSWa5p3WctBx2kYZ7rc8+vxerCYH899QXJ/4yHTK7iCH6nz5V+rmruVT7P545fZplwLS7Zdkbq+4Jj/uI7/MmzOFpHRyxr9Gsaq3FUD0jo/6mfxJe2JpMxR4j6cHQ57fcjeHf7hGMxVE4KyPNB8yrPgXPC0IrXpBWZHBT8kynYnUyyip/KKjQ2Ma/46bRCDidz8OtTcI4fjkyWDep/xUsUOAAoKMTkzPvsNCjMIqY1v5erEYYF9v4czDIl0N/PQYUjgX0gd6Bt9bF0iXmZ5/2Gd1UOyxkqXL4TpZHVaAO9aMpfw3ZabNmNjZAIzm9TgoXcUQXep1INUPd6rgJ/5plnQ02hi+vqX5PLGuQjZt+Sr5jrzLdacLYb5DTwIx63YIniL6rvi72jNCwG9Xwnr+Wmlb2l+wjVH08jb4hJDMQfu72oblf5OV3U3xM4JJ37P5Hjm2XNVn8YMVbuZKR/mhKLM3d+DcHYC+PKYqN/mlMRSVfjvcQ8P/Be4C+AkW9inht43+O7UYsU3uiZb54XrS2R+WFbd8IUuITa/g13dpiWNDjXjhMOr+FYJgbX27wgjeUROrINdYDft8gaxoyYrnghifnOwHsh8SYCs6VpXD7acYR+PovwRRImNB/1vM96CyAih3/leZ9T2576FZO0YIdwmDaoy75viuY3/IP5Dvc23/yzXpFHDAFP5cY0bxvX2AX6F6b9w33ZCHCYVs1Nx0AW8WwGTV/qrpqbj8Ms6rkZa7E0YvC5X7d9sXncVcC2QSer2WblyN2b+VLz+CuAFrkr8Aq7mrnJPCHN26ptKeYu+24xT1yEWLTzODrp/eahecq8ZKu/QSTUYL8zU/NFad5WfaOSEyV5pWe+OC3Yum9ymtRxUIys+fcqeaIew/6YONbBwWRcl+AY3qkEgf7tQi2u1sOzoz5H7znGc1iFGUp1yNKNZRyssDzWt+Wx7OYq8sqjPDePglWShxiAvz0PjvBMWIIPxNMJVc/LVzWO7Btr+757Zr7jKpVOB8wlQmlX1nIJqF6Redh8V766Iu+vn82NQQ6W7XvfYr7bY5PHjKXED81PWMzMTrwXjD7jsZfRj2b5imNEuUWQAXkqIc/8QQquIx/Kf8iB++E6Uy8Rsb9k+1TuWHPOx/qrRZD6Me/wzd/4Mktdtuy6xt5SPpbN73pSwwY5Gu6yCR+rfWEwm1wg4DJojpuddTxh5JggY+/3vLSCm9SFmvd72UsA897A/KUnpkSovT8wH5orloAS8wrPe56yVh4OhvNuf0hhHfukQUBfa16OIJLN/qDdqXeoQxSv9ePjV+bfFST2rsk9P9pEM5D183OvmZZc1mr/V3J3cVFt2rLNWfBXzR9CrbisrfhqWmZ3EqtZwVZ+TYJ9IrixJqkFfR1R2uyV1MmsYCu/fgB7GET0ZGxWvVO5okUoHXA8gLdrJLWgqmRrSdNGdKm7bgFgkdYFpmb0rb75tZy/0LRjYVjXXwG0TTewOZwes7jaDfmyRdlM1JtxD5RWzW35skVpWJCaQfMEc3uuaBHutRBWkXmSeUxWsJVtW9afMj/ZPHZestXRHi7O3PN58rxo6x+wDSxIML4wD7A4/ypWHysxH/O8L3F5W9ObC6biAsl3HgNZxD3pdyOeHMRyofkc37srD7A4F2zPKVCw7l4EWbz9GSo9t/frELLcCvs/EizWRheHhzUWl2deqTVdtjtZbjFLMWEdHJofVfi8RWd/uHsRk5FQ92PH6tRXNLeZVwfywgRbw9KYHNbjPUz7fOaZ5u/38ghtmexjGC+ZY5Qns9nk4CpUfuA4ztUIvXSONK8ZyrZ+yILDnDD2HzyO05ngz1A7R3mZRmtw/BlmwkaF5BGqrvYfkuPLFbcbz/V3JuJZMb5N9ZKA/ZiDWW4z8KsdWIaYAX/cAXVMGfQ1DoqCcWZhscmyfZ0D0pVdOAz7Jx3MdpWBf8qBpasM+NMOqF1l0Nc7aKQ6ZsHsAXmh/Iy/zzZr3ZhMJjPzOPPoq8GterYS+RWuGDpTNexDrmArn6VlGRe7FDxczJctykhBrf5A9jtQDvJli0KHgCrMBOZPDYXZNA8r8OyR/VXzWXNZy7Z23XzA0+JmxrYjSAd/YKvYUNQDm1d80FYQJ8InrZs/tEXrRlH+kC232JLxVaLhs6VV3fztAlj7rxHZSmDp72xVnnFbtW7+vavaH44GrunGdCK/uvuErXFs6RQC/Q8LUKsEgP/egpWM0o/i0R7C+aSFp04HTUzDfC8HRoBtXOppEj8gU/8wk/59Fqw/s26Z37Qlx7ObKXp6l38wHDPo2Ly/YH5LHI208O6FFsoFOsLxamba5k98OfTHbISXoKN80i+X17go3su4BonGKP5G/4CF1p/K6vuwj3a5C3eJB+gx5Htktdq770iufrKKF84ryjBxYW6Isc3f681JqbPzcc/8cA7WoRUX+a/IgarzO/0f8Yi5wrRiPYB3PMdq4c7E00txpLdcMP1LHJMIrKpzpfgd8+YcSH5KvmZ+ec4r4UxkwPQRFWIlpfffHarMtvnVXFcSS5sciQq8LY+51afAf2qwfs2jkNbkRvB2iWJxTaZl3ADmfdSXW9135DqI9BV1hAbOSvryWizQ789Zrc1JJ+atgfexeZVOBRLSmKp5V2D+h2dvvvSs8CLfe58rS9AWd81ej73Y9/48lY1EP6BhXuabf5jDQiISQP7rHFJnpHYzerVv/nEO19b4BjgK/20Opb2FfWYOq6CSTJaymuAwev9rXtdh08sufl7lm/+dq2KYGGnz3/x+Fosn9uF7/8U/QD3wa8WDTczP+t5zAoIVx77VddL8F0+hXfTFWZJV89+ZFz1XXeU54Zs988+PXL3NyoUD8xLffNAfswjciytgUm3e5JlPw/wg5jZ592KdHfAIB9i8JjDf7o+GY6wUihc/pLgfChCyMud8adakx22XOyNUEJgMLduqfoTb90E8aaFCOyw18x5CgLL0Dw6V3AcD8+/StnSDs6FL7p8K5h/8Q+It4tpG0hvhjeFYVc+8sGh+mPvwAXF5eYBJyAIJx0SxzPf7c3DFfuZlmVFbYNWKJzramXEb4arf75sfcPWV/i5nvhIEE6bQvMnnBtLW1MaHR7PsVvplgflRVyEOAnewrNJXOcjm5BL2T3XufQRK/WFyXuERu8ZFmRRE8hPIT1YPMnJsJM2xRdPmoHzCkduKZ/2ByOnlAUFMCwsviYDNSwPvuxykhU/CvnR5Kx4f2a3i1YH33a5SmRfVajDBql6vCsz3B6oh7clDqbHHb/UZs4KxhEcH44WaX7I1NLD6mJi/882bLdCin5cNUMG/TKjVrX6MnZye0Iq9oT4okVn6r1fUt1iPnBUPOfGmSP/oE25zzyA/6JmX2GNYdBhj+KeNiajdmvkO2QrwXQ+ZVqlGcq8I9OkfZv4DnvmffiLgjkCU8DuK5n/lYMTxiNcRk7Kg+EBUToKq7lLou4PBUMI6BzCI0GsD9o7/yH2OnGjbk8mM4t+7YiotWn3Sd63qWiNPNnQY/+SbT6VVjqBupv/sm/+cwm2TVv8owUY/JzCfRoNaLMbqUJaRqMY/WekRtQjHRwfrGBv01bw2MP/T2nMqZKhpxesC821EBNllWQonNGPdo6/t6+d1xtgIqJ6el2x1WVar3RjDLNx35gqgRa7EGg1nmnXxN+0roGuvhFr0MMEA17CVU32hjW27ZRFi0eoHQ8ZTH5KAciuJK9nqrRlK3UGNLrKZgPCofNmiNHdYoAtfpnqKedJxmEW9j4WHDuY9VTzYL7gSatHvJ4Yy4G5Dv+BEf+YO86XHQBbxQSuEiNgNsMR81vO+bBFk8dA7gnw6CYm4SF9tvnwRYtF2RqogErlPiAB7X5ErW4xd+/ZedIDLFnPHvGjrB3uoGZqfXCSKpnPIVCVXAC0yllL7nqwzB55h48qKFuGSHUsZqVu9SNuD/ZBEZ1mn/+x5L/CQnOqmaAF1L/IS9YLmH774BvNj7EFy7IoOWFr7iIZJfbXDcwfRgXmdZ3vsiHCSaHtDMhD8OYfIRDFPuziPke4K30SMfncOg3uI/CIXv1xXq2M5jcfp4lpjJ7RUMmP/fN+81eu7F0Qv8M1vprusjXYLuK4zsO322KJ5lzemLQFHirru/9Ezv6Wx7NGxF5Sf9My70wpxdsQepghw+dtp3Vy6NZEiIxGET3nmPVdilDCGxKLZxfCNzO8oAsqhBu1B80cqiz5+0ZQLNJGjuxWUw11pjA8sEyA7+kfsWaACTbpEbjIfdfMXcwJyBScUHoHAR72L8WUikRcuINn3BATvL03wXkPZvVr7U0LVyPtvPOFU9luiVPvleG8yZacn0CkDfND7j+6qpo4TkpgX+t5/8mZMtwQuRfLm9YH5z0wIjO43uchhncIofs8Eu0gUlzyMfAc+TDKbn0meT5BvJx4ogQ8EOJzEZPe3Ygywgn62gK+JUjDPMsuw5zSJTekH/WTIHsHRMb0QafXH8UiG+0q/v8tINBC42dmqy/L4QIELX4lMtrE45oMF83M5pLp7//FG/5KgANHu31kwv5BBKlidowNGJq77IbFO84tZnRyXy5cjfARq/szneiOtERiViXlXwXtLHsqm+F7P/EoGasdEK9BlVcY3FgjtpTXCil7bJebdBfOrGbzDLI8bmAoY/2gGjXYnh2C+t+D9NVsNu/RlVORhEPAG9EVHpDdi3LGZ53HZ7h6dvsU33xvsoGNMy3ZKCSYHwuT/8I/VAP6povkc2yHuhvzKAJmED7OxDKSWCfi2YIrZSNHPoe5r3HuJTZ7s7UXM4FEikvpkwfwHHxZoly41Af+9b37bgVOfS8Cf9nFYD4bszIJoqZgPFczvwEfu5p3u3+ujQWzoOK9v9s3vIgdOkzhmezgT5s8K5o98q6dok6o043mXZ/7Y3xUb1LZx+7kx/GiBKZ1aqHUS1syf+4PJLlcI3BTkaX+kYP4C2lx4MQn5hy7cTvrex6y3U4LsJevzcC9phfNxVc3SbDYd7hCywnUrmL/VUeh86lA+VTD/Cff8AMcs++bKczzzmQzmPrLyXM/8d0SCQnHr537/YrhUCQbxXv9oNFuoYOgPmhcRHMzB+L9uhkQMzIsDnKNI2GbG7A9LRAbYIRH0DwQ7zjgn5kVF3OBElauC3jGoVwX9YcgQYn3DX2H6L+DPxaNBg/i9GKZl7wcdio4yXYUvD/THddVpn0ll8s3ziuaHgvZVWfSXZ8MZkl8z2B72i+wO2U+wQKDI6iPAYYK0PBxn9mjVFFJo/+EctJhCh+O6bijqT1OxlFZwSbNQsZzjzqFIv8Zvh+v2kaJJP+bobSPM+RnMD/q4FYcUkad3EGP66hP5VJPxOTqqlIMtgYraMDKzKm/KoWNapW6kBDvNDXkkJPBeCvS37JPPoNtwuYJDk2Ivgxb1q/TrzfZ5+7xpScvlUuWcAywrQF+krjBaDjF6LrLHKn8JtSf+NsSlJB7reYnuPXNA/ifnKNJ6hs0EMrICsCjXxEKLw6Rpm9nyku236jb7hTOjj/ZjwwmOyIscNkTdIsn6uSe5Yj3mv1n6oO95i5UhNZchdVHX4vyBcGrARAlBy9H4Y2gcqw2pgkgwZuJVy2ECUnMc2U4yM20xPoxebi9AzBO3apG8+kLe5vjDTU8+5b3Rlo/mz99P+nNgrVG1LyGD9Alo+g6zYF9RzlsVLcC9ukx/BSJfns9B7fPG5UVg+rRxZRGcvYFc3a5FtbKqun1eWi115OHbWvoe9WT2OvRU9vly6UqZ6B0f8+lFHO39CqQzcyTLx9VpXXMF2tXJXVtutqsApMNMhNc5oGuZwa93cO0xg97goLaDDHyjfj+y0enJR8TCdqcWSn83WVFWml15z52bpZu3avMHwLfIK9+0cKvUZIK8Taqy0qP0HWz2XPfRWkyfxd6uJWWjU2s2pPvHzN/TPlZr3dPex9WPP959grxcnHf0pFR3xdhl/s98lXwkt0ryKCH1LJVsMQBl+eJpZOtFsAE9aHzZS6wPQ8Mc7b+C9kJdSIUQZVVrpMq8ryD03FLuCFUiJmzXxEfy3sac5Mch+Yh4IUhCfjiAq/kT+StIyxYCeo7sJ64g63BCEOYkE4CYSb+kjk/LdQBajtQnIXVFfUjlnMyhqxDOLGptFh+ok2d893LUlOv2Tzc4Ynkva97ZP2Sd5epDKuedCZDoUNpTise+MO4fiNzte+tPgUFMARveYMZ0XoMZUXGiDPg1n/FN4RJBJC181jfFg6MEZ0ZKn/PNkiXdydB9byb5ejy+wNaLjbUI2ykFn7PNDBeEjWBeu5WRZMOY4MdVhbkEpmYdqG3hixi/mg/7ZJEikZp9V9uxn4n0HF4+bOSlPxFakL9DtARdHEnIQcTcrysfFc69zWrHe8YvjpGR3QxgH58NXh80/rMnBzvDeB0HTNyGhhVvsJtv3sgaPi8whfzvU4qVq+OZwtxYm7yx9prb+pcw2E96kf6xkB5sGOPXGpthu4Z1qdXr1qbYimChh/kjM+MX0iG4xfiCQHfBbS2wJQaj+EJ/97Lb3Tsxt9eiQq/CO1igWRXhuHfzYzt8om/Iuj+ytCCM/7nwPrVwqHPkmtekbXEmk/rCwCzlBbR8OJW3j5wylRbebGBW8lyuLvBiwfK1jInrHNs1g3VbeKVnfzJmSw+aYG806bs6fM4FUh1hR35tqR+e00kg8dIfPyJwNodGJezJLxIBBI3uVtm+Ll+g0zo2APScZSxnNi2ued7QHZPlN74O+uLA82s58CIRaMyEu5cERuIHyPPzIHcE0/jy5Jzlol6IgXN8TfkrCsK5Z924UIIOcG8/Muy+Vmz0N6KkngigF1ZRMft7IL/UYXPcDKtoGyjy7eX0b/9INZ5Ol61Tesr+JpDA3W8FNOBedmcUsN13p1nK3Ual1AnJ2kf1srFR8G2zuSFb+OWYzW9zdEG9FOTi+g2rj8F5Lcl0EKrMrgCsaJZLFdlw6cREofhsHZ3g+UxXcQmcOAIF9qKwjsOitc57J1eEVZGU84rznXF1zJl1MpX4C/rv431rBtZnaCoeL1k3RJVMB5UVa2A59HEuNkJxhxq4j+4PD5h2rZL9FSA3hfk+ZYCsy0MHcpLI9zcEQzt4BQt0uKv8FCxniXll4BUTZTseNBVGLUuzY5+fsa6W99EzgCuYPjbQIwJUB2yjTKcnqxKvYuGizFzTub8VRpV2Tb8QaSotmXDPfTjRr0RidoOzpe1ShlOQGBFp8Wyk87Ok3vS9Alpu3d/ZVODKhpjt1UjBJ6LzNXWY18415dcc5E62u5FATpVL+gnQ0xzH5IPkKrczNTmVEHENx/NrAoxsXSTspZVVNC6tZJcjUStdIo4pH0p/xJfcTPShAyIna2ZlxfsyvXXibUIYazUii9ZCbeeIsI293/xZzPGQPQwvSqSfvtaVn93EDT2nUyqU5w1MQT1bqxzdxrzgZccPtrhe3X6pM7A8jO0JyD8xIqtkfgGjksghEqtcNCeuwgIbtQQTskAMx2oG+KbArA4WQW9GrxZBIlGMzFvYBgeTh8ZswjiKWWdFdDBBFvF49/IcuiTiQczTWdPGt4vyPYx1iUTUYbq5V6cenVupzncqqbAD8xYZEJ48qdWxmqIqA+IwTlypeLxMgCnEV9/s3m5TjVOwGZaoJleIriYNk/61AFPXD3p6bf0uLp7HIppvq42txoPJVztpYd237Ef+QTHhfVl+/tUCwUxD3n5xKPupx2zR+G2oka1IzDsDj7vA+eZaSJhYHF75wNsByM6AIuBiRjlUKv7ycN5DB7DZNuxbGWjhzQRqm1XknkwEbFWdeagb1/KKSHeRGwg0QBqI94dzRrulA4mybHKZAojycsbbtjuUdNSFZbUx8Hez4Y8xPnaFjob9xLyd431lMiaaBd3+qKSMyUbcdznkQoDCIYhTMf/mRElRjH/7nLMG1FmtSHgO64Bq7sOZziD5gcf9hA1fcR4whTmODMiOMTfwSK+9jz0akW8HyKsJ6pVMR35un0LsE5gVif6MrnpHsnrlXcuJeYe4C8nCi5s1y+/60VjJm1XvJEtq2rcIbhEOzKmZij2dBBXJ6UXYtlg88wsFc0bn0Anzvb65BnKu+za9z2zoLeWYW1Gs5rg7HdXGjfghzmiArlskbd4emOsXQbrgmb0btDO58u5MRMTI98YMVL5cOtAjyKq5CRHaOUcFCt7NWXGuI+8IvFuOsWqlkOP11mMItVT7L8WZIyiXH7ctchuBqWfrRy3CsxP2oxfh4J9TX+/2TDkjMCTa2tLXNUS43B5/LOB6mPKKI+QWYDXWR1KmeC68P/0BJXvGuQZuztzNEMvk3Vdu3tfDcyTvt6K7SQI22Q6+B6ESSgW4clRZUhfjy7L1yxM0lodCXV/vxhBtwrQ8mb0I5pH+dFR/qcJg/S2kBI/WmBoMZbie/d2hZuv+XrUrZi/1DC2ymCVp7B3Ycjzoosm1AXT9DFS+nAEJX6eXHoXEdvS+gGNtimoRa8jyjFgdB00JWPhyyNZr78X8U24MyXS3qzk/jXkHs/QpvK0oPOTi0cV9ez+AWYuFUAeJUL+c4dfkWb17P7+yx7pFK/MwcegusVrkIvYEV+gXhqirbHmU1xB8buJPag/b1qirAE6hMe5NkR8c6aiAyrkcLYpcvFZAnFFAnI8dUFBn3rAV2SMnf+VIx+algxZnJ2WNO408K4Wrjq94lfEtLWKed3I7LqBUiivbsCMXrLhRu/3xpX4id5ixe1q8x9GAO+yRY5tF6Gu5GsuC1eC3bbRhtbCwJX/7ih101waxv9x4tl6J1ie7fR3PwPg5cMR+ymq331zcO07RUtrUl15tDCvNlzkhch90keAEOMQSDnX9QjU6Zlv0HRpU3IV7Znr9DhPP0sI1v8SCkisK/Y0ZOdevtz+ZcfExc0U/4Vzo8qkNyBrb2SxObMlhfT4CzLM1QLXU1E3Grq7gmpUx/Iccc2e1gXmDZ4pZn9HcopW0oe1df26Oj72Ov4kudiaHBxO8vl0uFEQj4Qdbl7OGwFC4RZhSQvWm7sY2hYtFxe3mqHYVJqTy/w8jkLIW5RgzQhd82FmEgw8Ys1/YZqlMIvHAKnoDZ/svWvSGbU53w6TFrMCKaG9WiETBgQTol0RSZJ8jVuYV+joWefKu7kUi6xgdK4ZiCwbxoJXOne1ONcx2lGTrn5AbKyaBLKISBsHb6SfiIYgUqoLttIV4L6GKTrYDZg6sMf788sq0Q8JWev/lIVE9SMhAdoiY2cFjyid4PdrZ3+Oij+OHsoJ/hU5VRacCcqn2AUH3hsmmxayNG/FDx4aAEg4y5j4pYaY0ZDKTeZGnFUJ1uTYHpzPDrCRS0l68492m7EULdOAuSenkwAX9hb35DNuOGO2KWgeMcbJoRJzZcYtKf5XVYKJcWc9uUdoC0SVpntaowR7u7OdtL+UobdPWIQ6w0UAFqzmtcOXaJ4ZHPHbPtUEvGUYlHo2IltcEspRBOPUrZHlxTls6VBPI33DgUkPPovKRmLbNEmDZ2qpxkSEFf7EpS0ofWyGZQ6WCwORx9AXmVH6pwkab6jY2PJLJIQYuPzdmBSfKWCpx/YBCqnSWuvkUSnUlOILMUWI+y6k1T76A2mN8M/rBzqIepkuhxklZvqjLBbfgZ8Y6SIdmvzXAdF3ZtXB0FUajjCNH1DGRmH/iKLfApO4hRN/nexS3tSm1dZGlJck6WKJRJq/EfC7wlqkjtma/pkRwEUXAciFwtk12xI4t+9tyYpuH4OTMJEeQeFAhBIQG0KSEYEacHFLFlh0O8GzKzu1eQ8KBvxnjue7E/Rkzj5kIJRSpUUVT5sItK3ldvA94E779J6UGqoqQ530LOef4EnWX8NMOlkCcBHsuKsrOrx7CH7PoDxhObD4cmPmaMQ96K5MdOpKfUWBCVwcxXkncsDRPYDKwIrphJ+bPAm/NzkS6SXOZFngnZ+nO0rS6kJiPBt4puprC7Zo5rVOb4mxae8GCObMAb6WmuSYzmbMwnJYcSkq+KhOA5b32kNJctxLzz4F33W5uMp9TMNdfWpi253JAwjqcnxL+Q3Y3ypfv1zmrRCgFuuaZm3KWK7WAifl04N08Qw/cxP5DYG6RYpRJ8R8Dc2s2KSXdkCIm6ra9ye5R0hx3QHZtOfLsZ/P/nQUOOunwovk+WVKqVeH4Y4F3+6XhVTbLvwu8x+yOhkwPYlozj9WuoCKvYmoDBPe4q1GWnTlH/eOB9/j+otY+r2CeEF91v/xE4D2xT1vEJZ0koWIJ1QyPbp+UTaDDC0exHCcs61gouLSK4fXHk/FlUcpuCrI7chUyAcaO42Niu8Z/aVAjMjhKUkoWGU/3QXniITV6l/YO7vUi1JbAZP9w/96jeHo5F2tfOFo1OgTAuETutezf3vRa9e6GhsSOUzDsUjgnclRo0CsMctA8xMhi8nZS6i8qcBFCrWUwybTO93ZGLDKNyjjLyCK28sYtRlSokG+/tti1xwrRIHezuILfY2/pMLcz4O34wO5P9oIQyXMIAq7FYEZOhLlsCnRUFu+siOMtl4vLhBP7yazNomZyBhHQDtgM7OBQGy8ngLryHVjOX1vz20ms6ZwFGsjqAonOpQE5zM/np4x7Es0mh5yqIFFsMbmohDzTP+AIZ8fvL5i4YVKRZUiAV1pkLpmTySLueE7lFQXjV3RVlKeT/mAXprj3XcDeXZT7S2kxg9epeRnTd5j2Y15ZYF9J9bqVB9urYPPyglnagjCywD4LFnrj5bvysU2a0ec3TivMO31P10Bafn7BKw6FtjB01TXzgoJ5nFCIVMkd8IUF8yRVK/MCz1uSXLmfYD3tPvwYuersj5wdX7aPSk3BrCQSWo7wsW3NalruCP9fb06k5QpeEBwouGzW9JEmYymak5p1akwgTIvrWWzhtO241b/M7eIAwJlkYSXJHf6LC941Mh47kvk6eUnBXLsHpW17amcY1yn1GtrH0mOfvdw8miUin/HuiD2IOJ1s7ijI9YrYYi7U9t2A+hBbxMKP8AlG3fFA7OfuRfPqgneTgtpxDnTzTqosiXlVwbtlGu9aYx7F33wUo4buzmHZ3Kr9lKfo5j7HEKIo6zBsh36b1oWE0bguEbm9xTePOpQD1OXxbonJxZyB9ujsAy5cSMd6xhQTdjsO+uyyvEyu2fvjOiwxgsfujoaHO/Ijxmy7accX+Jf9ruA9Hu6QpDMrGECZ/tdgwnEc2/EhmwxCqti5hNgTw6ug22Ofm4xjRup4TfbAwReNs7AMO6fmFpaY1xa8gnxYuiS/B8l1zfH+AgNnqtJvIEKyOtzbq+wfSYRsbU4K8+F51hFeMv7Afk+zQTUryQS76uvXhFLB5p1mF22pxiBZW6gkw1/aFepJSX97j2A6++iJgOhieYfArygaktocshqnu/uX6cJbObwStno15A0GJDN54vDq8DUZX7ow/KUxQ0hHCEm7R8hiZoxODol5XcELpFiW/gStsCO5lvbQWKRQPLwadKmdPl5XnTS++2uq1R6J7npmu1YNJZrpZahVWY4+cUTymzY25U3TSqXz+gIucd86FYKtQHNSXgyEJdlBzXq9WZJ91os68ndNyfmleq2kN516k0xGPinbDqPIXkEXt/QefCn/tmPZvv2SNx2UVuTqMn0OslprbENRsE40mtWwt14L61X5KKN2spay145tSGTO5srnZzPjzvJTzPOztMDPcp6flbTD0tjeg6LGj/AWY834C68vgr5e1nB/U1A33sJ3TDF++HCK5Wa5W9Cb2XQO3EsJ89YCO7Z7K24h7+ImcI/VHokVt6C3FcyqdCyjt5BXcgMyRkl08ZakYwvnqkg+p+z6wyNkjWCFzfXymDJ7JdAtd9rZowH5o9zy15Xt0z17zaovF1r6yC+o1kS3yBXCe7ulukxLsdHs9LREYanO5Pc6mzoVy1mh12xnKCsb7RB1bWsF5dV8OY94oqTHpjWdupP0QnLKTmptXbg5TauG/cPsZ+BXv+XZqzeb5/QhyDWN0H15+9oaXLS7nU3BvG4uERZEnBUy8bypYOQHRw5cml44kp2bpVfwsgWylc6Y3hEw+/Y6HJz5IgIHH1DhiXlLYf5GcT2dT3xQoq549ZzUaOn1k3XRIcn7MoegC0fStfVD5xNM0yQLDHT0+5t6eh+TUSzzDogMZTtoTs8pi8co2IXjL7wDdo9q5C6k1StRYT+GKrOccS9qR+86LrkM8wYAlNgb6BGpLS7NN8J62jSK9VcqtB6KeffG1rDjcy48p8rwhci29MNwPeZAfY335CQ5RwipxaeXj3+JVwPxSzkcEWA2L/ojAGNukr9lG3EbE8rw9EWU3hUxXoqEcxYf68qrlc7m/FFqsKGmpCBU5JWa4BT1k9RapLQUbZZaWckaFldYQYub+jneVZvrpUbrhP1oblZec+XUgp2cP6J138d1hst+IDd7jXtGi+6F7TX1Wv497bVXPLi9Th4K6XOUHPD6OTB7cnGDkmWtEQHDYMigb6wgchyiWf/hFne1e/Im1gTnQ/k2vWEFt5vMBwIdNgXbt69v+qNtNmxOWG6B4Hd68jxGfkJlttLHBqV2p1bR0XkRQqBDsn6jtE0SlNxn/gub8mcIi5t38u/S5l38u7x5N/+ubMqfHlzdvId/T2xKEEbmay176XByvdlECuROYQ4xexHZ04JzZlOg17CPkVy78FDiOn0+d31X/r2BpdElvbEuf4v1pqrAbq52+PeWqoz41vXaRldp3EauUmq5ATxqizMq6aOxpSS3y07zmHCLfx8ryqCyf1y0hWKRebxw9QRmXOg88V7+eVJ1XVp/QalcFjaf7J4cfWFben5KWwbwRW7/+uJObUvafUkFw0j6pUwcyZdFJf0zwV9+rix8fgU7AMkdkQroqTKYOwVwlwzubvcnZ59W1r84e0+5KjPz9KilpvsZysIzz2vyla1apWMH/FVRs9vW781+dW1LxvM1hMVkhF9bL5VDGdfX1RqtrnD89eVup6NyKdl3aOTKwr97qMIC7aSTVyVvZRjKaiqxb5Bfb3Y7ltYGdovNRGdycwscYaumToT9qxpn6+GGfe93TrYxGUpddLk9wRibB1O9a2AFSe4utVp6S2v7fEy51MAkkKuIpayHzD88iPCrznDUGutCIHSjXXczvYHKyl+BsHQ2CRDaXC0KS239S81n82/1Ts31/rGs++5WI1PaJxLtIMDhKD2pWpOfGjSVhydX538b4gtTiX2ptLTL+cvsTHy5k+sdkqJWwudTcR+FizvZY6XXp6H6+T858vS2/rboGSQp4WeSF9rK1Vd25L0kma/t4IaVVclK2bx6lc2wco57d/K+/J2BSqiqHWCVRLUKMN11nBTTfK7NUgoTWyziXc7UYCWdcNvnaopxIqq0ufK30DX9lLLkTketWiPj6wxck1xLgjarVl4namV7vb7TDkPplfwNzHe5aeE3yghIbxL5WdDNwiDpLZLaPm9VTlJh3UYXgk72UUKW9NGSOlK3i9TwsMiWS/VQF/K5elNmq75Vat/b1RZb9vEpOfRsS8fTVOxqrWSRW1nuXqtYlr2T9oEDuWsWbNnj5ibp8W5KnlBlCTrYF4RbrU2MrPT4lPVQ7zW+CENmV/gXs47Ctv5V9C+pNSLYsK2+Il12d4k+6+5B4Z4oNWxfhbFhcuyLyK/G5HCRlha/hpYi7q+T8ZF+fXqeaYumocW9p1KI0sKdFDpp4S4K3bRwN4XttPA0CqqqUriHwn1SUB7vz7aAB2QzsVP3r+ZbzTfI+nVLm+I3yjSGPSerb8Ih2FCr0ts69mtR3xskg8oo7o/1A7le5nhZlzDGVxFP5sN4MvmqEDg+TPZJ6z2ByzFaInFbE06NQyJxxwMYQUXOFy3301Djuz8LY+Z/FoaCVyWYLG7sInKAPSxVxHpc5a/JUPIrV/2pKq6ktZBGf43UadrfH1H2NCMQqQHglzCv2Q9O5+eo4sI5KqHevSHH/zt2khqOXb5IAFQRS9Np3xFa84oLPYi3p36nfevujoSoH7NPxkv9Kr+mUxrYmvRVZOEKWriUMyH3sYJ4lNLjX+FKLqAlTF1uVj/BrF5RH1LJ1Pr9FMgwHb2PQ2+zTzwr95PlFD3VhP18vcbDN/MQWuQY+HsYCIlZqZ/roqtxWqaB3Pz8AzjJuH+Y7HN7Yz7NySbMMByYVnsSi7PIY/S0si8xiHXRSqt9EsjJNRTS8JFo+o80yqpQapXiZ5DiqG9/fqs8zeNqQUhRkRWSjwXgm0f4smFHjanXxdqQ+lloP4juj6yhLrAXdHqllrgqxWZD34IxvZSWZG+PSvoXPZZLUr8SWW1ucWSJOY/1mRRRC6gTSwHBSEf6GwEteuHCd0KNL95BSAXugroN3gJBK/gCUcGR/CLkjPFm7lszWuJW0pYaiBhpyGkOBj5LjLryCOFBqNl4kGiEzIeEoHxsQS5w2rSht4EJNHRZk7iShB4fOc5a0KfH+iPoc0MbHcYsNCt6Ajf1WrltXRzPLXl/AR8luaiHS/sLrOcU8/Vu/VwgWmzNIyMH8yLNngtii+HLaSGSbz1hkg71ZbkJ3BlJFi0nIzKe7Mqkiy3K7pKmIx1j9uSwBRIOI44L5x3REW+hRdoHyyVkrcgCO3Qg851FK1M5TiecpL3FzqrzT1HNGzk6suZeUCTcl2fo+QywAb2yA7IpLI+GxCVfTkfcVXNjaF4Bzv7kElb8lUUmDLUhWI2R04s/8+oi1zz2crY/ZQb7hIGL3HYrqEO8Wr8Ba15XNMtpJwp1XBZiwooERIWZB4z7Ql0W41j1HuFx7yAmFkumUFIe55T15pEVJhdrxFhKuiQ6m0RW2C1YJ7VGb7sWipvoN9mV21eA3R926lmf1W6whfR5b25vKdhV7n6i4rt9JNCNhUyhjhQztmR0xpercZoIa6R+HgNBzATpZYj9SG/i/ENWMEsoYBLHNXlac54wyUSe0x0btPFXZm7cL6H5IOPxpUzcZLYfy2eQqYRWLCHpTiZR82KmUWGRLmvi2gT+WF4LGEsCyhCWD0dchTfZ2uFkZVP0Ys5IbrakpZekrfQeLfmXIK6LVv1LECPVsFTp5i3sHyz7BlAPY+7wVg3BHjt7nUlLZOoxx9q2I6RFO9PGHSdGE8gczSMR/x8V6OrEcSZmjv5ri9w+5Cfm2Cj1b95E6UgLM7kwsvliGh2qDZoEa22+yRzIh3SwW/NfEVMgqsvmbYs5nPd47B8ScZMA37bUS78lkZpXnBHZwPiNxeqihNxvIsHggFXNYhvE+smMbXUIVk3x6lRsNSvXkrqkRaYhw45sUDH7VezhhPsvfbdKyX8ofWUaDLlf5r4ThU9m03i2K09Si5eu6CoxP1v0ljLq6+Iy6qcY4rQDxi4xUrxQf69/MBzJTsBOBhfY0KJXyNEE8vqiVzxKNPwpUaBd++ke2HB9KIW2Je75k9HAQqApD+iygh1vJL3kkRVAteCmeYtqWyqMKzTXYk+BDSnQJpFKW5eYNxXl54o0TAEptvkFzLyimjenOOoVpE658bxdjL6+XhLnyJujQCWQB0hOXl7C0AWFi2/bNjFvLXqBCEcbYbiO/91cDgSMwLyRrqeOs7eg07El/zZMjl41d2iV+a6Sx4n6gGisI4RY/l/yBwAAhVZ7VJVVFt/nnHsvqFclEV+IPAYdy3zWJCnf/jRyBAvBx/hoxvSCLKVRRASURt6gkamoKJaPVCSHySFqNBXUIC1FFI1cjuOjELO0RIt0HHKYmb3PV5c/mrWCxf397j6Pvc8+v70PQkhQ4LzdVObVOQ/AswDGLO2yOGJeeOrY2OETxsVMnZgyPCVixvhxMxLBG7qD8AFf8INAIUSAFCJQ/bTIBmCzCQAJNmF/dlFsysK4hGRwCM9MAHDyB/1o6EPr/QXQL7uGQLBJe7RrXlzA8P873Zs/rTVdaQ1IvSqIV0UkJMclJbgWBEQlLEgLCHMlpLqWgAN+YY81grYRgbyNIOed7VOSXUlL5scngk8uTetJH2MCYWA+QKF8NDw+YW5ApGtuSpIrHibHzUtZ4EoCNv5oG/yT7THh3sZJDjpSIjqAB3jSjl9JkQdQTfvOoZRBjiP7vsyDrCo1L+3WAFtu+XiXRw5Aox0cnqA86YR6io3mA9kyDkc4KV6ZA1nOdrtwpAdfTqMUsr223S4d6ZfqH4BQMheqY9rtypHe0hAJwkb2Me+3222O9GnXS0HYKaLGru12uyOj6WW6bgfZ4Xftdodjed+hV0F4kL0xqd3u4cg4HxlEFyg4OT/LGMhMOqbqvr1bJ1fmHX/nwZsLi+1hu7ySo3t62cC+gy5NdMgk+XT0BDqQk/5q+QAcLDnqykEQJnFq6U5FlhCllKhTYjjUCZUnoViKH8XTiebqXFsKoGt0ahEUQHVmHyZ+0h8G0D6SOH9X/EGiFdBF+MIQQdewxQZiR5+7eOK5kaiY3J500Aj9/Cxuv/trQ10sqcBn5tyoutKaoVFtTuimSWPUauNIsrchmSz86qGhlsx/BDeFrTLWNy/XqCYf3K7J1wPexbe2HDdUzsZjeOD7NoMx3fwNakPZx8/hldaj6Dt0Fqrwa5X4t22LkN0e+D4dVdqtt/DbPStwyHvbeC9U99qKcGJMIdbtzMfo1cWoZq3NwVd6vI7/Pb8MvyjdgurM6ecpwlLtwT//baQ4+uG/y96lDduM3YlHUHnnVhuzK2ux099LjDde/wcqOWilcWHZLWSsTf2PZUg3fcwJTokhBYGmCikYi3/qPsRk14xqffNhTf458Ap+FjzAlEwmxnhZIx+82cdcMn+dRuX3wlxN7iw38cknvE1FX3CEp9NkfHUsWIaZT9+jgH6FDzO+RkU749bjjXT032Ks10VUcaNnI1/KxZJEykMdqv6ObFSDTuCR5A06fWrY1d10hwcoqHIMrHgPFX9ZU1xOmfoIeVA1vXxeZ+iL0su4OWE9qtYp13F2ZQEeu38TCz9Msa7/lR4zkZH1AFXUPl5bsAfvtU0NVYNWbqIIS6pCCrI1qre/azCYMEav7omSyZfnmlDOfHpfqJvUnBKmHnKTCc4gUz714ih0Ez3EUbqJXs5DbuKR7YOKyaF++UZRrzyNKtZrsyYcJnkzJBOOF5oliAvL4pGah6H44phsPb4Dn3qx0lCsyuDLrVqd07sMRsmEtSd5ayaKs89k6vX+2Ns2DdWhfnbMeimU/NmtaJj4Dr1qsMRGeO411O1JIbRrGqnJ8guClUfJNRRLmLO14ptJGtXzIztowgVH6TNIl2MoRzsNRq4zbeC6cN04Zyzqlouq5lQg6WEz5S1How7aTVj1+lxFvY7jv6aUkDg+ReWRvRH5pjkkRrrHHppwwI1RZ1AyKfzwPlKSvCgiZfKhGRVXBxNGvxd2o2RCLQQkH4vQInw+2ERaYSGTESTJ0iAESd7pTHSnPOQmvW0XuPrDcFE3ZZ59sEGj8h26TZNPI3fhrLXSlEwovai40rkeqiJe06jOR8ZoUpuK6FN+AnUJsdoZWxpWo3ZDAQBsoLcvpKAGFxsdkeq4Bh/9w1rj5sMydmWov3y3nptTFSlGo4pf12wwaStbbJw5fTpUMuELoJIT1EPSqTlGaVTcFJn8+eNVlKUSS4uj9p00GIt62VAbjt0fSL5fxd2JBirSBLIAWMb++X9ERQEi1zKLYMU361A9MyeOamgXXWaccWf5B5Zh6dHPkQsnqKLFOirFbrZOidWo/tr3DU247MOv/YCSCVe7+iRoi64fbkGM6vdzR2vy5bkgqnRqfZvCOunGwtjfUWMZLtUfoA7RjbpNBZIGeiOni3sSi0rfW4e9W5EbLbtW2HG6FuGl+qUk1UJUPJq9MZf6yDt8DivtvIyR7wFOkVi6Dm7RNyS5FxNaZPvdPaiYsIj5PdAifnbVXoq5iQq7SCM9TIma1O0cR4GctrKy/+T7PxeAliChRe61PWlJ0E0eX0laHLUvnCJWZtzoNzUqkoAmDUGX8aOAb1FxtJwxRta8ZEK7AtTQWZYe9ddfJFW55YyJ1jsPuQmNAIgOe/vi2QdPmGqE5+O0+zCT8YeMxyzDsKvBJs/o76CHpzGqMynHz2RZMlJPqNaEG4Wewc2PlzDqPZjwpjxDe+Ell+pH6j0Y9aZM2AvPgApqlZyL2ZURR3Wa3ERHzkNuwg+dct2IJskrk06pkV7/TzRZU3yHpl5D9Vmww8x66TA9jg6TO6o2cIOZ3qVZP7TKPq2eZXuY1cJI78lkTdgLbWxodxyJFRy/O/qaOZF8Ye+Mv2ao/SdTaVEuddBijdSCD2rCrY0edYN6RZMuQkYdCRPuFS0NZ2ifk6gemXFIi4nVzKiooWniUz6e/kGps9ymm/u1ujgOgP8B(/figma)--&gt;&quot;&gt;&lt;/span&gt;&lt;span style=&quot;&quot;&gt;STARSHIP&lt;br&gt;&lt;/span&gt;&lt;span data-buffer=&quot;&lt;!--(figma)ZmlnLWtpd2lGAAAAr0sAALW9C5xkSVXgHffezHp09WPeLxjeIr6HmWEA3/m4VZXdWZk5eTOrZ2bVnKzKW11JZ2WWebN6plnXRURFREREREREPkRFF1EREREREREREVFRERXRZV2WZV2XZVnX/f7nRNybN6t7WL/f91t+TEfEiRMnTpw4ceLEichbf+1vxUnSvxB3Lh/Gxtx8tllr9KJOqd0x/K/RrIa9ymapsRFGFL1uFLZzZV+xw0aVfBDVNhqlOrlC1Lm/HpIpaqYXhUJrSXGVci86V2v12mG9WZKWy41mp7Z+fy/abHbr1V63tdEuVaX9isv2qs2GlFfTcjtcb4fRJqATUSVshD3Arc3evd2wfT/AtTywHbbqAjxZra2vk56q1Gtho9Mrt+m9UoqEt9M53s42u23GEQpnZ6JOOyxt2RrK17iyHfG1tUYnbJcqndo2g6zXYMyKhrrr2mGl2WiEFQabYybl8PqrV6e83qD80Euv1qi0wy34LdWpdW3AuFFnBr463Wje602lh4cJ03IfeSOEvNLuLtMLCL6rvWZDyRstnG/XOtLIa0wGcWu/n8Sg0Vupo2MHaau5rVnv/HA8GI4vtI9GgtNoNh4I200qTLOq9ULB6s8XURkCMtVmpSt8k/UqpcZ2KSLnb7Sb3RaZYL1d2hK8QrnZrIelRq/ZQpSdWrMBsLjNIJttckuMUNLlek3JroT1eq0VSXYVcXQYt2raiXa40a2X2r1Ws37/hhJZo6tGNayK2DK8k53wPmHpFNNVEcDp6P6tclO09kytQWcNhTLPtco5EdW10WapFfbO1zqbPdf2OjcLyuD1FZmHcr1ZOUfphvO16oZq+43Q2pKR3rQVVmslMjdv1jY26/wn1bdEELCDvdVlewi7XS9Jp7edL0WbtV6Hnik9arvUrpXKyv+jOy5zu2Z6FeRB6TEpiltrj2V4uoIeV4qiWsSE9qDc7Erd46/U2rCuKkblEzJCwk2bSoBP3GpWu9rrkyz+BhWUvsCW2s3zFJ7Mgmw1G5FSVSa+UEVTaW4BttSfEu33D+Pzw9l+J354ZhXmMdG93VI7pNYwFje3HiLbauoi8zswJLOHXaAYZMVq87yIr3C1aS62Su1SvY6BYV1t9dpO6kuL4Hq4LtDlsLHRq5YQaEk7X5EyC7UrhVUprNeU6gnNN+vVUGZ+rcOSDR9oqihOttphNVxHSau9VrtZCSNR91PMYliX+tPpcuhFNcfjmQy01a13ai0FXrNVanRZ6rVGSyfr2s3wvpLV5+sqm+F2W7PXt2jmwDc0GbbNis4JZze16l3p/uZSm7lJh3mLLaWyuDXqbm3BS+9st4EuKIHbVKUfFbXCsLLZK3fLKAKAR6vGYBOxN812SS3N7eVRPB5sse6FHbSs19lkJjbEJrNrtLd0J/Cqpfa5UEj7bpCi3oEsZtZqGUNLsVBp1ptZqahLRNssRVgjzenyp0W1yfKivGKbpMVVUVYUnOyJqLne6SkNSmubpTaq70q6A4Tt0K7xU+F9FeRkR356U2f7TIQ9zczQNdoLmWvrXUTVjGod6eK6Vn84dtq7EjVZAwANGlWtMS30JqwC8TKQpCoP7B9ZAaGpYq+ABRkMJKf0hdqWFXMRG3y2RmZpm6UmJne5dsBmHe32R7GVPrttO+xUVPDrNRmnh75qbx2rt0G4txfvOo4LNYxXm722xAKi0lTbzda86K03MaXMJHtPud4VBv1yqXJuERTI+q3ojrHURKNqKAdg021hxUm9evO8ZmChY3mI0Ih6r1JqiWYW5iUWVLuiu0xRiFbj3cm0PxtOxrRJ9xJ6Zn6RK3mP4dbOhXNt8xebRbPLskkF2cRUmx3sHxnvfGlb5s+vx33ZzTrT4QGltBOY6W2GTlW8xtHBTjztjoezBGLtksjGtGr3hfWIjMcw2bYF069MxslsOleJZVQFuJF6lYG3VZL92IdxN09BVMHBIFNYh2K1Z1sUXUGxl6LZdHIxLo2GF8Y0yIgZdik0gYyHOXdZ3yJX+oeocDoe5KO65GUG1rcWQAQpgwhsMby3W6uz52MZARacEorNsz5QEXmjrVjcDLSU38qW55tV76mUV3LlOymv5sp3UT6RK99NeS1Xfhrlk7nyPZRPVWrtSr7303a0ZydDkcwWTkwbqCmH26GMwEsH7pcnk1HcHzcPY6sajK7bsEsbMdJMdl7yXtQtY8w179+nK14VXIW/OZkOnz0Zz/ojmjtTmptblF+l4J/t4jOs15TDeevteDobslYF1mxRlWtaRjGbW+T8rclREleOpslkijzYR0oYSypMpd2MWJq1NnkvvD+UtYrqUfJx+bSrVomhYDwrrAnKBbYGkiJJpVYnt7QlJliaLDPFuO/kVrL50+JqHfsttuXENmZiMt0aTqfCSbb+dPpJPc1gu7Cp7IUd0WW/2k/2rSXyK+zfgMxc0z21VnZhFFqNDUDmbCuU1Iu2JfFbVfHKg/Dhw8l0dnwxBfhabAZsm27FmBSAp6X9eykgW7t+vX95cjTbmA4HlkjBrq+c6OcM+na5BfM2rf5sFk/HVIFVa+lSwbqrMfF0Yo9mk3acDJ8N6UxEyo5KJuPDy3JqojrTo/Gu00O/WovEyxKaBjeffZiMp7Yrit3YmcN21HSWtcOxg8SroGZWadbbrFxmWUxa0AnxstolPVsUUjIIcxZnkswMYrrfkPXSfQYL0t+9aKcxG9Mmpv0BpKsceGyxOMWat9iq4HR3hXStSP0y2ia2hnygDSqTIxiaunZLj9QOsbvJCUrdjuhlIUeqqKTOHiWz4d5lio9IpVWq4Nluh/bIE9hyOeycty4FUoJOZGdRLS9AzjxR7YGw12liblRACwCUjkmubbU4PFCSGnCsNFqTZCiTy8YCyDFuSmXE3rXHLEU7PxUjzabD8avUAmxcaqvzInLTB3ZK7fgYPFDGLFm6tZO8mk4dNsF6bHJMpOx12zpxZbZy0qBSb6qvW8BV76U+P+Vit4UnHPb00NJrdxudmh7Tllhl1Zr4RaoAy/lmPY4HgrNSg99pP8fONZxqsAnapSmtw1JP6LFxUfa2mkQT8HTJ+zZvKwJabYpHR75gK/BNBK1oS3oQWAILp1v9bAIIOuyVKt4p6Sp158L702YnKG437Xlvjbwd3KZO8MmszDKkfMp2kWrTaVvkhLotrc90pv2xnWc7wtvYjjl1dHrsH2zMIiDQDMubedcm3joBC1LfHpbW283s4BHkQOk+UsjB7I5RzEGyLWOp1Y02LcwRW55DUlorc5AltToHZJROyCHfwhyltTkkpXRyDrKUEFMKyCidtowyiSClxM4sAFN61yxALclrF2AZ1eu0Jwd1RK/Pw1KaN+SBluSNeVBG8SZsXq2C1ur83IwrStSn1MAU6jq9hVNHE+d0Drk17CcsazvjpwnMVLrlWoUKI6TTgldr5Iu+2Cvr4NNC1l1WVRC8BUjRtl2ALVlTn5WXo1bb7hMrG6gn6y4DrDrUDHDC5nSBsFLt6lhbBHbOi005eQy4yYkL8KlodzoZjarDqTUvMO3W2OfZFZCwWm3bFts0E2sQD7Bss5j68L4WG6Q1tBUoiMulJW+jy9bk+QmhKjojv2y80QS/SbN+ZTLCH/EKU7NqvAv84+/wT9Dnn4J1WWj8MCXvMv/4bUBgzwEP8U+wzz8FpRTNJoc02JW82THeoTPdINiuBGG7PzV+sCtFwdGMwN5ZMH6uQbDVn02HDxtv6eCOOyh7B3c8lcQ/uONOkuDgqQIsHDxVgMWDpwpwqdWfYtdr40FMO//C0XBgHsxxsWZ8e/qg8lJ/dBTTxjvSk8hjjL+OWBv9g9h4wV7/YDi6DL6XyI5PRjibJbvT4eGMUiC48Dzs0+ToIJ4Od9eHF46mzAV7vDuiG/QUBSDjEdnQgC157WaxaXTY32UVLLQl1IHbIVZPyx4xFHeqvQqBddEGGWCeApaX4IXm8crQf1WIfOtK/zBB++dNWLB6vPVIemnBb4UcNYX1AEAvK4nHT5BXskVADHaD7FKOfiuVe54tTgT8y8EAH4yM8hOpkJmcDKvGItC16UXxAaSGu+fj4YX92QIS0UUZUoZS4ygx3F1AmdPhrKI7y3rcn+lE/a3X4mBKlanc2VIUNxq/0ooEHsioSHWgpEUXml0i0CSO9XKzXW2QrpTW21K/Wm2oFTzR6G7J0NY4B0h48iQbtYjmVNWmp+WAQHqGg7ek15RKeia5tmLT6ziUSXp9ZMs3tLc1fnOjWATSm6LzGqC/uRKdl/QWJlngt1YqGhe9LbI+3qM2iU+SPtp5U7c32w3h7zEiFNLHsrGK/B5X7ejR+/Hr9ZKM4wlbG23xK54YobOkT+KQI/1/wTquOOmTN236hZu236d0bPmL7rXpF7ds+iVycCP90vp6Wcpf1mxp+uXtjqZf0bLt72ida4icnlrHbpHeSSp83tXu1KV8N6mUn1Yqt7dJ7ymVt6X8dFLh+xnbls4zt2GI9CvL9fMyP19FKnhfTSp4X1M6tynj+NrKWT2Qfl1lXRfU11daWi5Vum3BK+NjSLmCVZW0um7phwQhhZ910jtJN0jvIt2kW+mvRir0z27a8dDbhvBT32yeFb3Bn1bHqFHDgyFtnm09/RmkrbOtZwide8+2nnkHafts6467SaP62S1p1yEELvhdtlOZl23xqkjPkwof922d2xL4/Y26+oMPNLrnOqT/ip1H+PoG0oj0G7cROOk3taKOwHukAn+wfa4t5X67tSnpTrtblnnfjXDHSQcdy0fcaehJaY9pkvm7sE1Ij3R/29YPt+24n7V9TvXl4na70yYdkd5JehBFWHBjxqRSnpDeRXpIejfpN5M+jXRKeg9pQvp00hmpyOmI9Jmkl6II22/MQ6RC72FSoXeZVOg9m1To/WtSofctpELv35AKvW8lFXr/llToPceLojuF4Ld5lW3l8LmSEZLfLhmh+TzJCNHvkIxQ/U7JCNnvkozQfb5khPB3S0Yov4CMsvo9khHKL5SMUP5eyQjlF0lGKH+fZITyiyUjlL9fMkL5JZIRyj8gGaH8UjLK8w9KRii/TDJC+YckI5RfLhmh/MOSEcqvkIxQ/hHJCOVXSkYo/6hkhPKryNwllH9MMkL51ZIRyj8uGaH8GskI5f9HMkL5tZIRyj8hGaH8OskI5Z+UjFD+KTJ3C+WfloxQfr1khPLPSEYo/6xkhPK/k4xQfoNkhPLPSUYov1EyQvnnJSOUf4HM04TyL0pGKL9JMkL5lyQjlN8sGaH8y5IRym+RjFD+FckI5bdKRij/qmSE8tvI3COUf00yQvntkhHKvy4ZofwOyQjl35CMUH6nZITyb0pGKL9LMkL5tyQjlN9N5ulC+bclI5TfIxmh/DuSEcrvlYxQ/l3JCOX3SUYo/55khPL7JSOUf18yQvkDZJ4hlP9AMkL5g5IRyn8oGaH8IckI5T+SjFD+Y8kI5T+RjFD+sGSE8p9KRij/GRk1UX8uGaH8EckI5b+QjFD+qGSE8l9KRij/lWSE8l9LRih/TDJC+W8kI5Q/7h2PUuGizdiuzT3GS101X5zZrf7hoThLnr83nRyYB403m/CvXx5NcCa9ncuzODGBZ8Njxg+4fd2X8lg8O/y4QX/WV9xlE2wPB/HE+H6Kk9zVnY4EqdVPZnE0OZruQsJPpnh3OCjiDk53GxLKoUNAHMor4r2WBs8iamK8lZkwjk+Z7PcHk4cSsv4+bgsxh318TLzWQTzrD0fkCjHjTcQRwXu9REwiJjZGfmkWH2hU1VYtXxrucDCGjVUOnSIX2617WWD8E/93u9zFO5siDPKrO1OhOaZnSieUGePfrJN0jbFuPP68PxFvdiang+DSMBnuIDjPFEjcpdZpU0w4BSRm31uC9jjZm0wPzMgsD3XGXuiZFc119nHVx8I6oNX+GCAnnppUCeQaC8G9xPtlapfNtZTz9zfXmRMWsj85Gg0qwt9WfwwAfm6aTjg60Rg21xJpQubknspWMd2UvsQzpw5lpOtahd01p+ODybOGFXpoESdHxsvemUuqSC/yzHXEtC8MxxyvpOfzw8FsH86uX4BuWk922dywKz3hLMvR50YVihSe5d0sTvEW81ZFWY1fvBhfNpxZ9oDWh+OUADMtkOrwQgynAacWStaV/lZTkILzmYtcgFCC9tCO2Q/6Dw+TTv8CTHiSbYgE0ft0pWmY3XZ+/e5+X44X8TQBw8tK2lGtKsP3E8k3L8VTgrxxp89cm3f6XjCC18S8IfBOjjQGvA0N6X7ZrOz1R6MdonLCV2Km3omDYRqVy0Z3rW2lgcQBGsSlmKX4Ws8rXhhdPtxP2GW8pUF2Q5Wwx3jLO5xvL37z0UQMwes975o96GbCfLnnre6jslNIXSxPHgbn1Z63NstCyBypp+4EWTSnHDweZFydHk0uyL2DonQmlVQezb29JJ5hncyqd+aAcUDL0n+N51034Jh2KR7Ulf83Bt71VQuYy9nJyI3WWxitPx8ty3lhtCyshdEWj4926crRLrtRQWNhtCsOnhvt6r9gtCeOj3ZtYAdXV/4Z7cnNHA/GL+wQix0kZo/Dt7W37qQe7Kd4HCCKhCgzwiyCeaNkzjQhDOxKmg+GLKARpDA4B7btOZbOsimWnTiNv4INtKdS0B7SBcpCkrr7yajOZqMvSKmU7EKK0jImczKN67k7Tizk3nCazDK5SF8wlC8vbcjk0fHu5OCgzxDKdveZhyUGxq4gBs0YZAJVC+j/SuL9wSVnm5eutEPLClIjE8Uz87kCcdtMXdjIpoRvkKCHBNPuZN90+oNZuOQu1cqYIQSt4K3+lGlzss8zauNDqmfSUgqNePbQBHQ3QsR1wHw8m0AV/2TjvNJSyMbO7RBS8kQVEvOg50WXD3YmI0c+0QL9st/bfEokEQI+QRzZRiJ4j9cRFlsRk5mSRU/VZ/B9dAMKh8BwLAkUIL2NeCybHxJyfU3ylL2jJF5HCzbEKWEcl8caqvFwJIZ7e83x6HIboV/qjxQ7qFrNrx0cHM1kdLo3Wbr+Il0Kzhj6pSSJZ7UBXDJ+dG06BOetnue5ihDQZQj0pSgKjR3WfG2AO+rat2Nmx79oa1PiLC2tBNFfFsnK6PsCEfS30Za1NGNwk6PD2sC8wzOBzhD5d7KGrKQpvMvDY5DtgyFRfLdnltJipNTf6xFFzZPy0zW92F3kqD9SddrhI9Rvu05RhP8DRhMRiLBrg/8TZsQAqo+EhCNxRHeDR6rntvIQS8ycR5B5RLTOfnzweZheH6GgHWwfQaYWEXIcYhNulTVgxy1HJWzZ5yY+wayNhrxsohDIq7NuWeCFCKOHw0QnrSleBMZmJoXtTA3woeej1enyZ2w9bjrQSHYWPAJAFfFJtvrjI3boy1E8Yl3HWEpTGCblyXTg3KOrIBSTox0JkO6wq0nnbnBLyS6lfsrKMmY0cUsuHqzjwle58OXWErdvPorFpfBhlsJCXUiFLIiZlBnOBzzjad6O/kOMLsJoynIVfYKTmLgwVtNf3cORP2cXSaKVzMqDOD6Wvc0+BwHCuzJLrX5mOBJOmOy07mhRHA1xkKeXxbp0JpEbNWgCIArgLWHp0Yp47Bbr8tF4byR333KFmSe5Mky6aZXKcNWyXUnbb/U5h6QmdjeFWqre4dHOaJjsQ0w6FnY7k07cP6jP2ZNO/OOdBDXOWLKJpGskmsmw54ZPSDX3oofgFFPmkMVe4uQvsLBo0q5Od/vOfxFldqH+KMrNSNrEkrbvrIx/aiar5AbhBC3U44Z6IuwtwZR9+UjOJoX5uaNIkp07lpLDadwfgLGc7E8eQtacmMoxEhzIRgD6iqWxzfaHS76qnbjCCdvYldYedpmTl13mVEfOMrqh18Z7cqpUVu8z3uAIXQdMvz4KOptIRTW+NNxNn2+kF0ASqNO3Jl6F0KkGk32FcSckVwGU2WGkYTs9vrCHucaVyvmeHs69Y53gcEnB/B1iTtw+zFiQWm3AVA73hrgWKD2tLM1PsNqbiB+PtOV8lI4QMCvZWwDDNWB6Z+hJPqvxpZTeHAZcXDGOFLPgihly0QFS/CX7SJPcsmOgzCHhAnuKOHksBbZ2uKGXbNRy3c41nL0NlxtJ93LLu4KAHUPWkiBsrdpLHyJeiV5CR3G8REF9fycDK5VPI8o5qCJqIrrY6HOsVhkqlik2StvcAeh1ieFStG1fUnrReb148CXtcTejCIG7HdUHCYWQs7qEQ6DMdIrVAiN91wqCidobepFCsLoF2V7rrt723QB82zLicI9lYCtYS4729rhHw2IMxTNU1u42XNKx/sSrmRHLNEFy6YLYGT0JMv8Ua1VdN59jFVFqHs3EG5YtgnpMHNOB1ykeEOVlMNYnhEsifUGG3bqYAF7BeyrtJJPR0Sx2PiRGbjc/qs945sQ3s5fYkMGa4357w/Vu/Np6rxGG7nKzVD9fuj8i49X1uCTPilKr8Ax2Vc6yxsecZwYgGB8dRJgO5iQxHCmcuSACklhoJCsCb/rCEQZy6krLyiJTunIodnM6Nl9pVnOU3Jo/Yam50lpia4WGA52cU3WQUxtsLWiUnsBh1bMk6DN1DYIWRhKEhzBLzKD+MmDFYPAWTg84brJ1qyMeSbYjIpDLPKvd8qaPhJu/dvOcQHz3xj4I19ft47wC9xvNtuSK7hHWEiaR7Ufp5TZN25c1+alr6XbKdJ8VBCadsYoSwX0iENckYUZTQ0LZl3m3Ve5CGxvMykHgAHQRyAwzhPvCau/8Zsji3qzVq73mes9Wc9XYS3/mwAhZ+Pe7Gmnol6a7GRecFBFiaXwBKRIlYzPIFf3hGEekrTafYmD3nzrnT9oeTYdw6A2GyeGof1nXxZp4/VrUZQD/rdERgR3X26EWkCTNOBEQSaHBRTvQlta141GfI/a+bVA4VKBtcBDbiB5N3FSTxSer4mHhKaHKha2j0WwovcfT9WE8GmzbqWCCdllbyB5l8PI3/X5lwgDlNLTVl3Cf3E06/XAPn8R2k/jOQAfWHpMrpCa5mBnrJWnTW3iksBzaZ+IruddYq1mn4XhwKEdTRBO7rOyzsPYg3kuqEKzfA8vdS30TZI3JYEpGLWnFCHPodpXTDBSLK7MRkZN6fPZatVrXh2WYVtVvMwfZt0jp866JBDJKkCORVSgX1U4+Zew1qVcO6/p8e7G3raEdD0NLAErHr1hYzORydF+ZHxn6hZlkedBdWC83z1vTxkotOZmz/bft74Nyver69rMNUu/3WQPkvNJ47PZurCoRlNlli32rswJC21oBj6tZfUriZ08oA+4leym4IIWsqrhVui+rYm++b161bElmtSsVbpfDdo+rwVpXVuFqZmdOiOVhLuz7hzUt6UFmUZdOrpPrrZe2avqs8JQW3dX1aS2cTzs/gwUI57xcUw87qGhPHvFhGoBcy8zjDcwB11lAq1R1L0KvtwD3wO4GW1Ku3AZ7Y1Ma6wX4Tflf2tysrKSjueVK0Rvfm4n0X4s+zGtR4VF/J5Zol3doMeVo8zpiF3Okrbgv8XkJXclCiWSnMAW7RE22ND23WP10iQZXpcBhR/cTb49DlpAj788mLhekUO3k9b4pzCZR/8AW2fHVMlrtFaM144SLWi+x5abg9eHDmCX2Sksz0niH7l348yt709j6Cmtm1R1ItiaXYucaT0aDc2oXCcWwaaxnG4Kfw90cEhKfXq5xPUGTRG9jpKeajsqWK8cOJHi88Uikq0xrCPIihnZsm9Hf3ryrEXXOrEvY72JXY5GF88PBhZj9itWNRfUJYmlbugwHQ8KOMoDCbIi9nvUPDmvJ5Bn3cGkMaXydKYhCmUEJcjwoSZw/2OXkkBYKUpEu56VqKL/tZA7N+c1aJyw3S21Z9p6+2JNl5FfD7Z68SG/qTyyDCCyBFypN+V0fuSL77kVLLijVW5tyBS/P52SNkPP0Fzbu13cunuGwG+g0QBOxJLCO6YNW/T1RWvIjrA+KFaFfbJLzRuUuWzKpJ4uDBWjN1QK2lVUx0YJ5O+tBBNM9HCCM7nj4cCcVImLxOelxjD6U1ogwyIRZ4KhyKcpIFBtMBxHRMVul/2o9qMvUSGrvM552uN9PYrNkfM1Y4D2HeCnpw7CxCXJFi/D0mYjkBKuA1IKeMba6UZTUgp45TFr20C26zjJ5g7fI9tv90Vx/dfhv8M1z8kCn1OaNvvfDzjf4dXWIShIQklDMWzzzv63HxUa5bJ7qspaDeJhEk72ZcwoiqYKNN3pc4UzGVrKOtZ8Htj4cjVKcH6VsnfMU8uNAmpfsKVtSWa5p3WctBx2kYZ7rc8+vxerCYH899QXJ/4yHTK7iCH6nz5V+rmruVT7P545fZplwLS7Zdkbq+4Jj/uI7/MmzOFpHRyxr9Gsaq3FUD0jo/6mfxJe2JpMxR4j6cHQ57fcjeHf7hGMxVE4KyPNB8yrPgXPC0IrXpBWZHBT8kynYnUyyip/KKjQ2Ma/46bRCDidz8OtTcI4fjkyWDep/xUsUOAAoKMTkzPvsNCjMIqY1v5erEYYF9v4czDIl0N/PQYUjgX0gd6Bt9bF0iXmZ5/2Gd1UOyxkqXL4TpZHVaAO9aMpfw3ZabNmNjZAIzm9TgoXcUQXep1INUPd6rgJ/5plnQ02hi+vqX5PLGuQjZt+Sr5jrzLdacLYb5DTwIx63YIniL6rvi72jNCwG9Xwnr+Wmlb2l+wjVH08jb4hJDMQfu72oblf5OV3U3xM4JJ37P5Hjm2XNVn8YMVbuZKR/mhKLM3d+DcHYC+PKYqN/mlMRSVfjvcQ8P/Be4C+AkW9inht43+O7UYsU3uiZb54XrS2R+WFbd8IUuITa/g13dpiWNDjXjhMOr+FYJgbX27wgjeUROrINdYDft8gaxoyYrnghifnOwHsh8SYCs6VpXD7acYR+PovwRRImNB/1vM96CyAih3/leZ9T2576FZO0YIdwmDaoy75viuY3/IP5Dvc23/yzXpFHDAFP5cY0bxvX2AX6F6b9w33ZCHCYVs1Nx0AW8WwGTV/qrpqbj8Ms6rkZa7E0YvC5X7d9sXncVcC2QSer2WblyN2b+VLz+CuAFrkr8Aq7mrnJPCHN26ptKeYu+24xT1yEWLTzODrp/eahecq8ZKu/QSTUYL8zU/NFad5WfaOSEyV5pWe+OC3Yum9ymtRxUIys+fcqeaIew/6YONbBwWRcl+AY3qkEgf7tQi2u1sOzoz5H7znGc1iFGUp1yNKNZRyssDzWt+Wx7OYq8sqjPDePglWShxiAvz0PjvBMWIIPxNMJVc/LVzWO7Btr+757Zr7jKpVOB8wlQmlX1nIJqF6Redh8V766Iu+vn82NQQ6W7XvfYr7bY5PHjKXED81PWMzMTrwXjD7jsZfRj2b5imNEuUWQAXkqIc/8QQquIx/Kf8iB++E6Uy8Rsb9k+1TuWHPOx/qrRZD6Me/wzd/4Mktdtuy6xt5SPpbN73pSwwY5Gu6yCR+rfWEwm1wg4DJojpuddTxh5JggY+/3vLSCm9SFmvd72UsA897A/KUnpkSovT8wH5orloAS8wrPe56yVh4OhvNuf0hhHfukQUBfa16OIJLN/qDdqXeoQxSv9ePjV+bfFST2rsk9P9pEM5D183OvmZZc1mr/V3J3cVFt2rLNWfBXzR9CrbisrfhqWmZ3EqtZwVZ+TYJ9IrixJqkFfR1R2uyV1MmsYCu/fgB7GET0ZGxWvVO5okUoHXA8gLdrJLWgqmRrSdNGdKm7bgFgkdYFpmb0rb75tZy/0LRjYVjXXwG0TTewOZwes7jaDfmyRdlM1JtxD5RWzW35skVpWJCaQfMEc3uuaBHutRBWkXmSeUxWsJVtW9afMj/ZPHZestXRHi7O3PN58rxo6x+wDSxIML4wD7A4/ypWHysxH/O8L3F5W9ObC6biAsl3HgNZxD3pdyOeHMRyofkc37srD7A4F2zPKVCw7l4EWbz9GSo9t/frELLcCvs/EizWRheHhzUWl2deqTVdtjtZbjFLMWEdHJofVfi8RWd/uHsRk5FQ92PH6tRXNLeZVwfywgRbw9KYHNbjPUz7fOaZ5u/38ghtmexjGC+ZY5Qns9nk4CpUfuA4ztUIvXSONK8ZyrZ+yILDnDD2HzyO05ngz1A7R3mZRmtw/BlmwkaF5BGqrvYfkuPLFbcbz/V3JuJZMb5N9ZKA/ZiDWW4z8KsdWIaYAX/cAXVMGfQ1DoqCcWZhscmyfZ0D0pVdOAz7Jx3MdpWBf8qBpasM+NMOqF1l0Nc7aKQ6ZsHsAXmh/Iy/zzZr3ZhMJjPzOPPoq8GterYS+RWuGDpTNexDrmArn6VlGRe7FDxczJctykhBrf5A9jtQDvJli0KHgCrMBOZPDYXZNA8r8OyR/VXzWXNZy7Z23XzA0+JmxrYjSAd/YKvYUNQDm1d80FYQJ8InrZs/tEXrRlH+kC232JLxVaLhs6VV3fztAlj7rxHZSmDp72xVnnFbtW7+vavaH44GrunGdCK/uvuErXFs6RQC/Q8LUKsEgP/egpWM0o/i0R7C+aSFp04HTUzDfC8HRoBtXOppEj8gU/8wk/59Fqw/s26Z37Qlx7ObKXp6l38wHDPo2Ly/YH5LHI208O6FFsoFOsLxamba5k98OfTHbISXoKN80i+X17go3su4BonGKP5G/4CF1p/K6vuwj3a5C3eJB+gx5Htktdq770iufrKKF84ryjBxYW6Isc3f681JqbPzcc/8cA7WoRUX+a/IgarzO/0f8Yi5wrRiPYB3PMdq4c7E00txpLdcMP1LHJMIrKpzpfgd8+YcSH5KvmZ+ec4r4UxkwPQRFWIlpfffHarMtvnVXFcSS5sciQq8LY+51afAf2qwfs2jkNbkRvB2iWJxTaZl3ADmfdSXW9135DqI9BV1hAbOSvryWizQ789Zrc1JJ+atgfexeZVOBRLSmKp5V2D+h2dvvvSs8CLfe58rS9AWd81ej73Y9/48lY1EP6BhXuabf5jDQiISQP7rHFJnpHYzerVv/nEO19b4BjgK/20Opb2FfWYOq6CSTJaymuAwev9rXtdh08sufl7lm/+dq2KYGGnz3/x+Fosn9uF7/8U/QD3wa8WDTczP+t5zAoIVx77VddL8F0+hXfTFWZJV89+ZFz1XXeU54Zs988+PXL3NyoUD8xLffNAfswjciytgUm3e5JlPw/wg5jZ592KdHfAIB9i8JjDf7o+GY6wUihc/pLgfChCyMud8adakx22XOyNUEJgMLduqfoTb90E8aaFCOyw18x5CgLL0Dw6V3AcD8+/StnSDs6FL7p8K5h/8Q+It4tpG0hvhjeFYVc+8sGh+mPvwAXF5eYBJyAIJx0SxzPf7c3DFfuZlmVFbYNWKJzramXEb4arf75sfcPWV/i5nvhIEE6bQvMnnBtLW1MaHR7PsVvplgflRVyEOAnewrNJXOcjm5BL2T3XufQRK/WFyXuERu8ZFmRRE8hPIT1YPMnJsJM2xRdPmoHzCkduKZ/2ByOnlAUFMCwsviYDNSwPvuxykhU/CvnR5Kx4f2a3i1YH33a5SmRfVajDBql6vCsz3B6oh7clDqbHHb/UZs4KxhEcH44WaX7I1NLD6mJi/882bLdCin5cNUMG/TKjVrX6MnZye0Iq9oT4okVn6r1fUt1iPnBUPOfGmSP/oE25zzyA/6JmX2GNYdBhj+KeNiajdmvkO2QrwXQ+ZVqlGcq8I9OkfZv4DnvmffiLgjkCU8DuK5n/lYMTxiNcRk7Kg+EBUToKq7lLou4PBUMI6BzCI0GsD9o7/yH2OnGjbk8mM4t+7YiotWn3Sd63qWiNPNnQY/+SbT6VVjqBupv/sm/+cwm2TVv8owUY/JzCfRoNaLMbqUJaRqMY/WekRtQjHRwfrGBv01bw2MP/T2nMqZKhpxesC821EBNllWQonNGPdo6/t6+d1xtgIqJ6el2x1WVar3RjDLNx35gqgRa7EGg1nmnXxN+0roGuvhFr0MMEA17CVU32hjW27ZRFi0eoHQ8ZTH5KAciuJK9nqrRlK3UGNLrKZgPCofNmiNHdYoAtfpnqKedJxmEW9j4WHDuY9VTzYL7gSatHvJ4Yy4G5Dv+BEf+YO86XHQBbxQSuEiNgNsMR81vO+bBFk8dA7gnw6CYm4SF9tvnwRYtF2RqogErlPiAB7X5ErW4xd+/ZedIDLFnPHvGjrB3uoGZqfXCSKpnPIVCVXAC0yllL7nqwzB55h48qKFuGSHUsZqVu9SNuD/ZBEZ1mn/+x5L/CQnOqmaAF1L/IS9YLmH774BvNj7EFy7IoOWFr7iIZJfbXDcwfRgXmdZ3vsiHCSaHtDMhD8OYfIRDFPuziPke4K30SMfncOg3uI/CIXv1xXq2M5jcfp4lpjJ7RUMmP/fN+81eu7F0Qv8M1vprusjXYLuK4zsO322KJ5lzemLQFHirru/9Ezv6Wx7NGxF5Sf9My70wpxdsQepghw+dtp3Vy6NZEiIxGET3nmPVdilDCGxKLZxfCNzO8oAsqhBu1B80cqiz5+0ZQLNJGjuxWUw11pjA8sEyA7+kfsWaACTbpEbjIfdfMXcwJyBScUHoHAR72L8WUikRcuINn3BATvL03wXkPZvVr7U0LVyPtvPOFU9luiVPvleG8yZacn0CkDfND7j+6qpo4TkpgX+t5/8mZMtwQuRfLm9YH5z0wIjO43uchhncIofs8Eu0gUlzyMfAc+TDKbn0meT5BvJx4ogQ8EOJzEZPe3Ygywgn62gK+JUjDPMsuw5zSJTekH/WTIHsHRMb0QafXH8UiG+0q/v8tINBC42dmqy/L4QIELX4lMtrE45oMF83M5pLp7//FG/5KgANHu31kwv5BBKlidowNGJq77IbFO84tZnRyXy5cjfARq/szneiOtERiViXlXwXtLHsqm+F7P/EoGasdEK9BlVcY3FgjtpTXCil7bJebdBfOrGbzDLI8bmAoY/2gGjXYnh2C+t+D9NVsNu/RlVORhEPAG9EVHpDdi3LGZ53HZ7h6dvsU33xvsoGNMy3ZKCSYHwuT/8I/VAP6povkc2yHuhvzKAJmED7OxDKSWCfi2YIrZSNHPoe5r3HuJTZ7s7UXM4FEikvpkwfwHHxZoly41Af+9b37bgVOfS8Cf9nFYD4bszIJoqZgPFczvwEfu5p3u3+ujQWzoOK9v9s3vIgdOkzhmezgT5s8K5o98q6dok6o043mXZ/7Y3xUb1LZx+7kx/GiBKZ1aqHUS1syf+4PJLlcI3BTkaX+kYP4C2lx4MQn5hy7cTvrex6y3U4LsJevzcC9phfNxVc3SbDYd7hCywnUrmL/VUeh86lA+VTD/Cff8AMcs++bKczzzmQzmPrLyXM/8d0SCQnHr537/YrhUCQbxXv9oNFuoYOgPmhcRHMzB+L9uhkQMzIsDnKNI2GbG7A9LRAbYIRH0DwQ7zjgn5kVF3OBElauC3jGoVwX9YcgQYn3DX2H6L+DPxaNBg/i9GKZl7wcdio4yXYUvD/THddVpn0ll8s3ziuaHgvZVWfSXZ8MZkl8z2B72i+wO2U+wQKDI6iPAYYK0PBxn9mjVFFJo/+EctJhCh+O6bijqT1OxlFZwSbNQsZzjzqFIv8Zvh+v2kaJJP+bobSPM+RnMD/q4FYcUkad3EGP66hP5VJPxOTqqlIMtgYraMDKzKm/KoWNapW6kBDvNDXkkJPBeCvS37JPPoNtwuYJDk2Ivgxb1q/TrzfZ5+7xpScvlUuWcAywrQF+krjBaDjF6LrLHKn8JtSf+NsSlJB7reYnuPXNA/ifnKNJ6hs0EMrICsCjXxEKLw6Rpm9nyku236jb7hTOjj/ZjwwmOyIscNkTdIsn6uSe5Yj3mv1n6oO95i5UhNZchdVHX4vyBcGrARAlBy9H4Y2gcqw2pgkgwZuJVy2ECUnMc2U4yM20xPoxebi9AzBO3apG8+kLe5vjDTU8+5b3Rlo/mz99P+nNgrVG1LyGD9Alo+g6zYF9RzlsVLcC9ukx/BSJfns9B7fPG5UVg+rRxZRGcvYFc3a5FtbKqun1eWi115OHbWvoe9WT2OvRU9vly6UqZ6B0f8+lFHO39CqQzcyTLx9VpXXMF2tXJXVtutqsApMNMhNc5oGuZwa93cO0xg97goLaDDHyjfj+y0enJR8TCdqcWSn83WVFWml15z52bpZu3avMHwLfIK9+0cKvUZIK8Taqy0qP0HWz2XPfRWkyfxd6uJWWjU2s2pPvHzN/TPlZr3dPex9WPP959grxcnHf0pFR3xdhl/s98lXwkt0ryKCH1LJVsMQBl+eJpZOtFsAE9aHzZS6wPQ8Mc7b+C9kJdSIUQZVVrpMq8ryD03FLuCFUiJmzXxEfy3sac5Mch+Yh4IUhCfjiAq/kT+StIyxYCeo7sJ64g63BCEOYkE4CYSb+kjk/LdQBajtQnIXVFfUjlnMyhqxDOLGptFh+ok2d893LUlOv2Tzc4Ynkva97ZP2Sd5epDKuedCZDoUNpTise+MO4fiNzte+tPgUFMARveYMZ0XoMZUXGiDPg1n/FN4RJBJC181jfFg6MEZ0ZKn/PNkiXdydB9byb5ejy+wNaLjbUI2ykFn7PNDBeEjWBeu5WRZMOY4MdVhbkEpmYdqG3hixi/mg/7ZJEikZp9V9uxn4n0HF4+bOSlPxFakL9DtARdHEnIQcTcrysfFc69zWrHe8YvjpGR3QxgH58NXh80/rMnBzvDeB0HTNyGhhVvsJtv3sgaPi8whfzvU4qVq+OZwtxYm7yx9prb+pcw2E96kf6xkB5sGOPXGpthu4Z1qdXr1qbYimChh/kjM+MX0iG4xfiCQHfBbS2wJQaj+EJ/97Lb3Tsxt9eiQq/CO1igWRXhuHfzYzt8om/Iuj+ytCCM/7nwPrVwqHPkmtekbXEmk/rCwCzlBbR8OJW3j5wylRbebGBW8lyuLvBiwfK1jInrHNs1g3VbeKVnfzJmSw+aYG806bs6fM4FUh1hR35tqR+e00kg8dIfPyJwNodGJezJLxIBBI3uVtm+Ll+g0zo2APScZSxnNi2ued7QHZPlN74O+uLA82s58CIRaMyEu5cERuIHyPPzIHcE0/jy5Jzlol6IgXN8TfkrCsK5Z924UIIOcG8/Muy+Vmz0N6KkngigF1ZRMft7IL/UYXPcDKtoGyjy7eX0b/9INZ5Ol61Tesr+JpDA3W8FNOBedmcUsN13p1nK3Ual1AnJ2kf1srFR8G2zuSFb+OWYzW9zdEG9FOTi+g2rj8F5Lcl0EKrMrgCsaJZLFdlw6cREofhsHZ3g+UxXcQmcOAIF9qKwjsOitc57J1eEVZGU84rznXF1zJl1MpX4C/rv431rBtZnaCoeL1k3RJVMB5UVa2A59HEuNkJxhxq4j+4PD5h2rZL9FSA3hfk+ZYCsy0MHcpLI9zcEQzt4BQt0uKv8FCxniXll4BUTZTseNBVGLUuzY5+fsa6W99EzgCuYPjbQIwJUB2yjTKcnqxKvYuGizFzTub8VRpV2Tb8QaSotmXDPfTjRr0RidoOzpe1ShlOQGBFp8Wyk87Ok3vS9Alpu3d/ZVODKhpjt1UjBJ6LzNXWY18415dcc5E62u5FATpVL+gnQ0xzH5IPkKrczNTmVEHENx/NrAoxsXSTspZVVNC6tZJcjUStdIo4pH0p/xJfcTPShAyIna2ZlxfsyvXXibUIYazUii9ZCbeeIsI293/xZzPGQPQwvSqSfvtaVn93EDT2nUyqU5w1MQT1bqxzdxrzgZccPtrhe3X6pM7A8jO0JyD8xIqtkfgGjksghEqtcNCeuwgIbtQQTskAMx2oG+KbArA4WQW9GrxZBIlGMzFvYBgeTh8ZswjiKWWdFdDBBFvF49/IcuiTiQczTWdPGt4vyPYx1iUTUYbq5V6cenVupzncqqbAD8xYZEJ48qdWxmqIqA+IwTlypeLxMgCnEV9/s3m5TjVOwGZaoJleIriYNk/61AFPXD3p6bf0uLp7HIppvq42txoPJVztpYd237Ef+QTHhfVl+/tUCwUxD3n5xKPupx2zR+G2oka1IzDsDj7vA+eZaSJhYHF75wNsByM6AIuBiRjlUKv7ycN5DB7DZNuxbGWjhzQRqm1XknkwEbFWdeagb1/KKSHeRGwg0QBqI94dzRrulA4mybHKZAojycsbbtjuUdNSFZbUx8Hez4Y8xPnaFjob9xLyd431lMiaaBd3+qKSMyUbcdznkQoDCIYhTMf/mRElRjH/7nLMG1FmtSHgO64Bq7sOZziD5gcf9hA1fcR4whTmODMiOMTfwSK+9jz0akW8HyKsJ6pVMR35un0LsE5gVif6MrnpHsnrlXcuJeYe4C8nCi5s1y+/60VjJm1XvJEtq2rcIbhEOzKmZij2dBBXJ6UXYtlg88wsFc0bn0Anzvb65BnKu+za9z2zoLeWYW1Gs5rg7HdXGjfghzmiArlskbd4emOsXQbrgmb0btDO58u5MRMTI98YMVL5cOtAjyKq5CRHaOUcFCt7NWXGuI+8IvFuOsWqlkOP11mMItVT7L8WZIyiXH7ctchuBqWfrRy3CsxP2oxfh4J9TX+/2TDkjMCTa2tLXNUS43B5/LOB6mPKKI+QWYDXWR1KmeC68P/0BJXvGuQZuztzNEMvk3Vdu3tfDcyTvt6K7SQI22Q6+B6ESSgW4clRZUhfjy7L1yxM0lodCXV/vxhBtwrQ8mb0I5pH+dFR/qcJg/S2kBI/WmBoMZbie/d2hZuv+XrUrZi/1DC2ymCVp7B3Ycjzoosm1AXT9DFS+nAEJX6eXHoXEdvS+gGNtimoRa8jyjFgdB00JWPhyyNZr78X8U24MyXS3qzk/jXkHs/QpvK0oPOTi0cV9ez+AWYuFUAeJUL+c4dfkWb17P7+yx7pFK/MwcegusVrkIvYEV+gXhqirbHmU1xB8buJPag/b1qirAE6hMe5NkR8c6aiAyrkcLYpcvFZAnFFAnI8dUFBn3rAV2SMnf+VIx+algxZnJ2WNO408K4Wrjq94lfEtLWKed3I7LqBUiivbsCMXrLhRu/3xpX4id5ixe1q8x9GAO+yRY5tF6Gu5GsuC1eC3bbRhtbCwJX/7ih101waxv9x4tl6J1ie7fR3PwPg5cMR+ymq331zcO07RUtrUl15tDCvNlzkhch90keAEOMQSDnX9QjU6Zlv0HRpU3IV7Znr9DhPP0sI1v8SCkisK/Y0ZOdevtz+ZcfExc0U/4Vzo8qkNyBrb2SxObMlhfT4CzLM1QLXU1E3Grq7gmpUx/Iccc2e1gXmDZ4pZn9HcopW0oe1df26Oj72Ov4kudiaHBxO8vl0uFEQj4Qdbl7OGwFC4RZhSQvWm7sY2hYtFxe3mqHYVJqTy/w8jkLIW5RgzQhd82FmEgw8Ys1/YZqlMIvHAKnoDZ/svWvSGbU53w6TFrMCKaG9WiETBgQTol0RSZJ8jVuYV+joWefKu7kUi6xgdK4ZiCwbxoJXOne1ONcx2lGTrn5AbKyaBLKISBsHb6SfiIYgUqoLttIV4L6GKTrYDZg6sMf788sq0Q8JWev/lIVE9SMhAdoiY2cFjyid4PdrZ3+Oij+OHsoJ/hU5VRacCcqn2AUH3hsmmxayNG/FDx4aAEg4y5j4pYaY0ZDKTeZGnFUJ1uTYHpzPDrCRS0l68492m7EULdOAuSenkwAX9hb35DNuOGO2KWgeMcbJoRJzZcYtKf5XVYKJcWc9uUdoC0SVpntaowR7u7OdtL+UobdPWIQ6w0UAFqzmtcOXaJ4ZHPHbPtUEvGUYlHo2IltcEspRBOPUrZHlxTls6VBPI33DgUkPPovKRmLbNEmDZ2qpxkSEFf7EpS0ofWyGZQ6WCwORx9AXmVH6pwkab6jY2PJLJIQYuPzdmBSfKWCpx/YBCqnSWuvkUSnUlOILMUWI+y6k1T76A2mN8M/rBzqIepkuhxklZvqjLBbfgZ8Y6SIdmvzXAdF3ZtXB0FUajjCNH1DGRmH/iKLfApO4hRN/nexS3tSm1dZGlJck6WKJRJq/EfC7wlqkjtma/pkRwEUXAciFwtk12xI4t+9tyYpuH4OTMJEeQeFAhBIQG0KSEYEacHFLFlh0O8GzKzu1eQ8KBvxnjue7E/Rkzj5kIJRSpUUVT5sItK3ldvA94E779J6UGqoqQ530LOef4EnWX8NMOlkCcBHsuKsrOrx7CH7PoDxhObD4cmPmaMQ96K5MdOpKfUWBCVwcxXkncsDRPYDKwIrphJ+bPAm/NzkS6SXOZFngnZ+nO0rS6kJiPBt4puprC7Zo5rVOb4mxae8GCObMAb6WmuSYzmbMwnJYcSkq+KhOA5b32kNJctxLzz4F33W5uMp9TMNdfWpi253JAwjqcnxL+Q3Y3ypfv1zmrRCgFuuaZm3KWK7WAifl04N08Qw/cxP5DYG6RYpRJ8R8Dc2s2KSXdkCIm6ra9ye5R0hx3QHZtOfLsZ/P/nQUOOunwovk+WVKqVeH4Y4F3+6XhVTbLvwu8x+yOhkwPYlozj9WuoCKvYmoDBPe4q1GWnTlH/eOB9/j+otY+r2CeEF91v/xE4D2xT1vEJZ0koWIJ1QyPbp+UTaDDC0exHCcs61gouLSK4fXHk/FlUcpuCrI7chUyAcaO42Niu8Z/aVAjMjhKUkoWGU/3QXniITV6l/YO7vUi1JbAZP9w/96jeHo5F2tfOFo1OgTAuETutezf3vRa9e6GhsSOUzDsUjgnclRo0CsMctA8xMhi8nZS6i8qcBFCrWUwybTO93ZGLDKNyjjLyCK28sYtRlSokG+/tti1xwrRIHezuILfY2/pMLcz4O34wO5P9oIQyXMIAq7FYEZOhLlsCnRUFu+siOMtl4vLhBP7yazNomZyBhHQDtgM7OBQGy8ngLryHVjOX1vz20ms6ZwFGsjqAonOpQE5zM/np4x7Es0mh5yqIFFsMbmohDzTP+AIZ8fvL5i4YVKRZUiAV1pkLpmTySLueE7lFQXjV3RVlKeT/mAXprj3XcDeXZT7S2kxg9epeRnTd5j2Y15ZYF9J9bqVB9urYPPyglnagjCywD4LFnrj5bvysU2a0ec3TivMO31P10Bafn7BKw6FtjB01TXzgoJ5nFCIVMkd8IUF8yRVK/MCz1uSXLmfYD3tPvwYuersj5wdX7aPSk3BrCQSWo7wsW3NalruCP9fb06k5QpeEBwouGzW9JEmYymak5p1akwgTIvrWWzhtO241b/M7eIAwJlkYSXJHf6LC941Mh47kvk6eUnBXLsHpW17amcY1yn1GtrH0mOfvdw8miUin/HuiD2IOJ1s7ijI9YrYYi7U9t2A+hBbxMKP8AlG3fFA7OfuRfPqgneTgtpxDnTzTqosiXlVwbtlGu9aYx7F33wUo4buzmHZ3Kr9lKfo5j7HEKIo6zBsh36b1oWE0bguEbm9xTePOpQD1OXxbonJxZyB9ujsAy5cSMd6xhQTdjsO+uyyvEyu2fvjOiwxgsfujoaHO/Ijxmy7accX+Jf9ruA9Hu6QpDMrGECZ/tdgwnEc2/EhmwxCqti5hNgTw6ug22Ofm4xjRup4TfbAwReNs7AMO6fmFpaY1xa8gnxYuiS/B8l1zfH+AgNnqtJvIEKyOtzbq+wfSYRsbU4K8+F51hFeMv7Afk+zQTUryQS76uvXhFLB5p1mF22pxiBZW6gkw1/aFepJSX97j2A6++iJgOhieYfArygaktocshqnu/uX6cJbObwStno15A0GJDN54vDq8DUZX7ow/KUxQ0hHCEm7R8hiZoxODol5XcELpFiW/gStsCO5lvbQWKRQPLwadKmdPl5XnTS++2uq1R6J7npmu1YNJZrpZahVWY4+cUTymzY25U3TSqXz+gIucd86FYKtQHNSXgyEJdlBzXq9WZJ91os68ndNyfmleq2kN516k0xGPinbDqPIXkEXt/QefCn/tmPZvv2SNx2UVuTqMn0OslprbENRsE40mtWwt14L61X5KKN2spay145tSGTO5srnZzPjzvJTzPOztMDPcp6flbTD0tjeg6LGj/AWY834C68vgr5e1nB/U1A33sJ3TDF++HCK5Wa5W9Cb2XQO3EsJ89YCO7Z7K24h7+ImcI/VHokVt6C3FcyqdCyjt5BXcgMyRkl08ZakYwvnqkg+p+z6wyNkjWCFzfXymDJ7JdAtd9rZowH5o9zy15Xt0z17zaovF1r6yC+o1kS3yBXCe7ulukxLsdHs9LREYanO5Pc6mzoVy1mh12xnKCsb7RB1bWsF5dV8OY94oqTHpjWdupP0QnLKTmptXbg5TauG/cPsZ+BXv+XZqzeb5/QhyDWN0H15+9oaXLS7nU3BvG4uERZEnBUy8bypYOQHRw5cml44kp2bpVfwsgWylc6Y3hEw+/Y6HJz5IgIHH1DhiXlLYf5GcT2dT3xQoq549ZzUaOn1k3XRIcn7MoegC0fStfVD5xNM0yQLDHT0+5t6eh+TUSzzDogMZTtoTs8pi8co2IXjL7wDdo9q5C6k1StRYT+GKrOccS9qR+86LrkM8wYAlNgb6BGpLS7NN8J62jSK9VcqtB6KeffG1rDjcy48p8rwhci29MNwPeZAfY335CQ5RwipxaeXj3+JVwPxSzkcEWA2L/ojAGNukr9lG3EbE8rw9EWU3hUxXoqEcxYf68qrlc7m/FFqsKGmpCBU5JWa4BT1k9RapLQUbZZaWckaFldYQYub+jneVZvrpUbrhP1oblZec+XUgp2cP6J138d1hst+IDd7jXtGi+6F7TX1Wv497bVXPLi9Th4K6XOUHPD6OTB7cnGDkmWtEQHDYMigb6wgchyiWf/hFne1e/Im1gTnQ/k2vWEFt5vMBwIdNgXbt69v+qNtNmxOWG6B4Hd68jxGfkJlttLHBqV2p1bR0XkRQqBDsn6jtE0SlNxn/gub8mcIi5t38u/S5l38u7x5N/+ubMqfHlzdvId/T2xKEEbmay176XByvdlECuROYQ4xexHZ04JzZlOg17CPkVy78FDiOn0+d31X/r2BpdElvbEuf4v1pqrAbq52+PeWqoz41vXaRldp3EauUmq5ATxqizMq6aOxpSS3y07zmHCLfx8ryqCyf1y0hWKRebxw9QRmXOg88V7+eVJ1XVp/QalcFjaf7J4cfWFben5KWwbwRW7/+uJObUvafUkFw0j6pUwcyZdFJf0zwV9+rix8fgU7AMkdkQroqTKYOwVwlwzubvcnZ59W1r84e0+5KjPz9KilpvsZysIzz2vyla1apWMH/FVRs9vW781+dW1LxvM1hMVkhF9bL5VDGdfX1RqtrnD89eVup6NyKdl3aOTKwr97qMIC7aSTVyVvZRjKaiqxb5Bfb3Y7ltYGdovNRGdycwscYaumToT9qxpn6+GGfe93TrYxGUpddLk9wRibB1O9a2AFSe4utVp6S2v7fEy51MAkkKuIpayHzD88iPCrznDUGutCIHSjXXczvYHKyl+BsHQ2CRDaXC0KS239S81n82/1Ts31/rGs++5WI1PaJxLtIMDhKD2pWpOfGjSVhydX538b4gtTiX2ptLTL+cvsTHy5k+sdkqJWwudTcR+FizvZY6XXp6H6+T858vS2/rboGSQp4WeSF9rK1Vd25L0kma/t4IaVVclK2bx6lc2wco57d/K+/J2BSqiqHWCVRLUKMN11nBTTfK7NUgoTWyziXc7UYCWdcNvnaopxIqq0ufK30DX9lLLkTketWiPj6wxck1xLgjarVl4namV7vb7TDkPplfwNzHe5aeE3yghIbxL5WdDNwiDpLZLaPm9VTlJh3UYXgk72UUKW9NGSOlK3i9TwsMiWS/VQF/K5elNmq75Vat/b1RZb9vEpOfRsS8fTVOxqrWSRW1nuXqtYlr2T9oEDuWsWbNnj5ibp8W5KnlBlCTrYF4RbrU2MrPT4lPVQ7zW+CENmV/gXs47Ctv5V9C+pNSLYsK2+Il12d4k+6+5B4Z4oNWxfhbFhcuyLyK/G5HCRlha/hpYi7q+T8ZF+fXqeaYumocW9p1KI0sKdFDpp4S4K3bRwN4XttPA0CqqqUriHwn1SUB7vz7aAB2QzsVP3r+ZbzTfI+nVLm+I3yjSGPSerb8Ih2FCr0ts69mtR3xskg8oo7o/1A7le5nhZlzDGVxFP5sN4MvmqEDg+TPZJ6z2ByzFaInFbE06NQyJxxwMYQUXOFy3301Djuz8LY+Z/FoaCVyWYLG7sInKAPSxVxHpc5a/JUPIrV/2pKq6ktZBGf43UadrfH1H2NCMQqQHglzCv2Q9O5+eo4sI5KqHevSHH/zt2khqOXb5IAFQRS9Np3xFa84oLPYi3p36nfevujoSoH7NPxkv9Kr+mUxrYmvRVZOEKWriUMyH3sYJ4lNLjX+FKLqAlTF1uVj/BrF5RH1LJ1Pr9FMgwHb2PQ2+zTzwr95PlFD3VhP18vcbDN/MQWuQY+HsYCIlZqZ/roqtxWqaB3Pz8AzjJuH+Y7HN7Yz7NySbMMByYVnsSi7PIY/S0si8xiHXRSqt9EsjJNRTS8JFo+o80yqpQapXiZ5DiqG9/fqs8zeNqQUhRkRWSjwXgm0f4smFHjanXxdqQ+lloP4juj6yhLrAXdHqllrgqxWZD34IxvZSWZG+PSvoXPZZLUr8SWW1ucWSJOY/1mRRRC6gTSwHBSEf6GwEteuHCd0KNL95BSAXugroN3gJBK/gCUcGR/CLkjPFm7lszWuJW0pYaiBhpyGkOBj5LjLryCOFBqNl4kGiEzIeEoHxsQS5w2rSht4EJNHRZk7iShB4fOc5a0KfH+iPoc0MbHcYsNCt6Ajf1WrltXRzPLXl/AR8luaiHS/sLrOcU8/Vu/VwgWmzNIyMH8yLNngtii+HLaSGSbz1hkg71ZbkJ3BlJFi0nIzKe7Mqkiy3K7pKmIx1j9uSwBRIOI44L5x3REW+hRdoHyyVkrcgCO3Qg851FK1M5TiecpL3FzqrzT1HNGzk6suZeUCTcl2fo+QywAb2yA7IpLI+GxCVfTkfcVXNjaF4Bzv7kElb8lUUmDLUhWI2R04s/8+oi1zz2crY/ZQb7hIGL3HYrqEO8Wr8Ba15XNMtpJwp1XBZiwooERIWZB4z7Ql0W41j1HuFx7yAmFkumUFIe55T15pEVJhdrxFhKuiQ6m0RW2C1YJ7VGb7sWipvoN9mV21eA3R926lmf1W6whfR5b25vKdhV7n6i4rt9JNCNhUyhjhQztmR0xpercZoIa6R+HgNBzATpZYj9SG/i/ENWMEsoYBLHNXlac54wyUSe0x0btPFXZm7cL6H5IOPxpUzcZLYfy2eQqYRWLCHpTiZR82KmUWGRLmvi2gT+WF4LGEsCyhCWD0dchTfZ2uFkZVP0Ys5IbrakpZekrfQeLfmXIK6LVv1LECPVsFTp5i3sHyz7BlAPY+7wVg3BHjt7nUlLZOoxx9q2I6RFO9PGHSdGE8gczSMR/x8V6OrEcSZmjv5ri9w+5Cfm2Cj1b95E6UgLM7kwsvliGh2qDZoEa22+yRzIh3SwW/NfEVMgqsvmbYs5nPd47B8ScZMA37bUS78lkZpXnBHZwPiNxeqihNxvIsHggFXNYhvE+smMbXUIVk3x6lRsNSvXkrqkRaYhw45sUDH7VezhhPsvfbdKyX8ofWUaDLlf5r4ThU9m03i2K09Si5eu6CoxP1v0ljLq6+Iy6qcY4rQDxi4xUrxQf69/MBzJTsBOBhfY0KJXyNEE8vqiVzxKNPwpUaBd++ke2HB9KIW2Je75k9HAQqApD+iygh1vJL3kkRVAteCmeYtqWyqMKzTXYk+BDSnQJpFKW5eYNxXl54o0TAEptvkFzLyimjenOOoVpE658bxdjL6+XhLnyJujQCWQB0hOXl7C0AWFi2/bNjFvLXqBCEcbYbiO/91cDgSMwLyRrqeOs7eg07El/zZMjl41d2iV+a6Sx4n6gGisI4RY/l9cCAAAhVYLdE5XFt7nnD83T5HSYJIgMSgdr5DR0br7pxh0Gq+ajs4a6hcRDPGMDiMReXi1VBPvR5t6BNMMpTqC0FA1xLNpltIwQnQwmtYkVJWsmb33Tf5/1rRrNVm533f3PWe/zt77RCkNBkIuLF68QjdYCDB4MfR6LXTawKQBs3onxL7Qb8zwQSmxKQNH9O83Yio0hidBhUMkNIcYpVSkVirK1G9yAbhcCkCDS/n1nZKQMjkxeSZYKmAeAITwg34EImh/SwX0y7YhBlzab4gnKTE69keXN+ans6ch7QEtu1rxroHJMxOnJ3smRQ9OnjQ7uo8neZZnBljwEzqWKVKjoliNIuMN/HrPSZmeGD3MM3aCJzkhEcIzaXFTevSKgXbZAMt1+wETksdGx3vGpkz3TIBhiUkpkzzTgYV1so71sqfV/ykLIWNBlJRA8IcA0ntTK1K5nbSPpvRBhjX/vs6Gqfkmafbttq7Mnf09/hkAFX5ghYIJpWhliYvWA8nSth//DfmuacmLPrmyUntePUfp1PQa4ZNrK+36HDoyQ/JeW3xyY6VWl8aDcpG8+IFP7rLSVvUJBuWns6AYfXI/a+6Av9WAskgOo3xyy0qbldsMlD/Jo/9Hv7+V+sXZB6ACWF7pkwdYaWXxrUAFUsQV4T55oDU3qvMV1pMN51v75EF1eoJIPqSvTx5cF1cwySvG+eQhVmpZ/HWOi1Kc7ZM3cOKylOIj+8E5gp5HaTdPvt0o2DPv65Yhhbcmr/brsyls5pCmYS7wy6OCUoHzqLSDQoETTzojOKGcPE4UJ4UC3UJ/leRQOAfBDhMfx45wCVAdqnSlttKBlqhYOKVMlobVWtUVfDCtk5pwqpZ6apoU7mIonhfBpLluCW1JjybO74Yf1GgKQlUkdFJgheRQVSc+9yrOGP8W6gV3huLkm39G/fClSocEFlzGBXfo0+zb+SSJdJsNx/LQ82WYu34TqNblD23SC7r9Hxo6ZJq9BPu+3sGtM1Z+7JCcqig3fQF9d5vlkLyIbzDV/UvU3Uc965B6PZAIasb4T5EY6Fd6xIlQyL6aVFv/NWodvnb4KurIziNtLzlSotxktwS95LeVXyKRIPbS1qzQS0gfQAlFzk4QZbeO+8grPfbapmHHPZi//tjBR2kTBU2nPc2F7Op/zb6xNdI2Lz6z2L71aIfNeKQkBrVDyLz//HDHDyab+nVHw2TyzUd2w45dsXFmsW2aXhqE+1tkU2zpgmZJ7zwhcd0+wMTnrtqGPQksiELGC3+agOKaaGWvvYScBlhFsXz0ToS86EMzc0ktEf/5Kx1/+JOX/Mx1AU3Gyj44pZFxn3uQK2giO28U8ln8Jhz5pnZrJpGdr6AZsnQ1bjhWgQcHviFoyuLHCDk5CzF859/RsNZlq3ciY3XpUhQz5ABAoQb1z/PX8V5tWU9DycPgzzcfXNRkraBJn9hTyBuTbtocuvkkuotNPYeMbaz5KILLDw/joiaXbNZjfhfaEb97ybgp1YLm5+X7hXRYeAFJD5q4bjXYLvYEMja9tMwR5FTNxYub7+Ku/h7U+2pqbSbmqdgApJGAT4zogRj0uW34rNkRTgajeXbvCSFs+8zp07ZmwsGAYg+4TUxC2AgheRGd0e/ls2j+0doilfuR7axJzkGdVVyCXhJYsAENk5yqIllGQxjN299sEyX1WunG+o7OtHFmOmfVrbm+vKRl9nuoyS0hZvf07UIGXDtAR3IYTXXpGerZT+kozlAm7zoC3lyvDdTINzPwqdhFKOq8hA4MdKc9G53qYSK9y4OAieSaSUruRbLUwm1ozuKgMWFuRq5F8+GJb3FVn1PY5coN5AYy7/27lA5vrbzwaeikcXX9X9qq3DF4d9sCx4V6p6CKqoYrvnX5bNsMGrNcCM+d7qMO2OZfbXeT4KHNyOWgmXywcQrqFc2yhFDr/FrI8Mo2VO4vo9nfwg+52hi5FUVA1W0PK2yBXQMKbPPV0F+R1tl2vV1Qj3fsxuVHU2xq/I1SpjwdGanxA4V8NbTQHrK0qW0aZ/aiRnvXZlyT3AhFQFOJBuV5e0qjTDSc3oSwNfhCSIagOO0lz4/eihLXimbHqJo346GZn/HMWCm1wC4xml8sbCKEHa4YfAY1k+VH7yMlKYw8Mm4OmtGsW3tJCGPz329BzYSyDZrDInQIxwfvU7pJQPWaiobJrUft8eP77aiq7tiGo6YQbD4ZRilVJvtqDlE/XbPN9TllNJBbUiuV4fyVmSiCPxbtxS1TD+GO46fQJI3LR+6crOIlguZe7XAhbIl7TMzmRexiz8QPUDlVj/kNNGsjdMi6tWtt85+yQvLAFOWvzxKU7DLhFqUOcgbJjPFPUPnz/EhzBkn6xCLuXTqpa2g4Pk7QqXezBakACoWwlW/bXUYxd682ju+uxz5CjgAcodbkiIk6fULoEJmy/MlL6AvQPy80yM896OY2XQM6sFduxu/TnnYEXa60dvOKNlaM21QMbkCZa+6e8FaVzUjFVCyEK0xWUOvbvIVRdDBhpbxCrPCWL84+IzoYRSkTtsIr5PZr2LFa3NOvHjjpI3y+hgnPax4qUox9Xy+QE7tXu0LQcKkxyV/fl66G084tsPzohzxhaPQs9d0Ccg8ROkQSw5+8hEc3TdoBVDyG/q14R5Bi+kTIja3llDCaYuwt3QM0Sqox5v09qJmQVoDbFEtC2EVyNLen+XruR3SBxxXd2LpeUG4ZJnQ7+G6Z+uLw3jJ8/LxiSW+64XjLimYuytYGQcO1zoSt0OxBzUTyQpmWnuTxxGjqu5VMytUtpf192l/YVbr609G0sZQMrrhu3ai3b9vm+dGJlLkUGXGM5iSNcSZshbhdZy63J8B/AQ==(/figma)--&gt;&quot;&gt;&lt;/span&gt;&lt;span style=&quot;&quot;&gt;AZURE_RADIANCE&lt;br&gt;CORAL_RED&lt;br&gt;&lt;/span&gt;&lt;span data-buffer=&quot;&lt;!--(figma)ZmlnLWtpd2lGAAAAr0sAALW9C5xkSVXgHffezHp09WPeLxjeIr6HmWEA3/m4VZXdWZk5eTOrZ2bVnKzKW11JZ2WWebN6plnXRURFREREREREPkRFF1EREREREREREVFRERXRZV2WZV2XZVnX/f7nRNybN6t7WL/f91t+TEfEiRMnTpw4ceLEichbf+1vxUnSvxB3Lh/Gxtx8tllr9KJOqd0x/K/RrIa9ymapsRFGFL1uFLZzZV+xw0aVfBDVNhqlOrlC1Lm/HpIpaqYXhUJrSXGVci86V2v12mG9WZKWy41mp7Z+fy/abHbr1V63tdEuVaX9isv2qs2GlFfTcjtcb4fRJqATUSVshD3Arc3evd2wfT/AtTywHbbqAjxZra2vk56q1Gtho9Mrt+m9UoqEt9M53s42u23GEQpnZ6JOOyxt2RrK17iyHfG1tUYnbJcqndo2g6zXYMyKhrrr2mGl2WiEFQabYybl8PqrV6e83qD80Euv1qi0wy34LdWpdW3AuFFnBr463Wje602lh4cJ03IfeSOEvNLuLtMLCL6rvWZDyRstnG/XOtLIa0wGcWu/n8Sg0Vupo2MHaau5rVnv/HA8GI4vtI9GgtNoNh4I200qTLOq9ULB6s8XURkCMtVmpSt8k/UqpcZ2KSLnb7Sb3RaZYL1d2hK8QrnZrIelRq/ZQpSdWrMBsLjNIJttckuMUNLlek3JroT1eq0VSXYVcXQYt2raiXa40a2X2r1Ws37/hhJZo6tGNayK2DK8k53wPmHpFNNVEcDp6P6tclO09kytQWcNhTLPtco5EdW10WapFfbO1zqbPdf2OjcLyuD1FZmHcr1ZOUfphvO16oZq+43Q2pKR3rQVVmslMjdv1jY26/wn1bdEELCDvdVlewi7XS9Jp7edL0WbtV6Hnik9arvUrpXKyv+jOy5zu2Z6FeRB6TEpiltrj2V4uoIeV4qiWsSE9qDc7Erd46/U2rCuKkblEzJCwk2bSoBP3GpWu9rrkyz+BhWUvsCW2s3zFJ7Mgmw1G5FSVSa+UEVTaW4BttSfEu33D+Pzw9l+J354ZhXmMdG93VI7pNYwFje3HiLbauoi8zswJLOHXaAYZMVq87yIr3C1aS62Su1SvY6BYV1t9dpO6kuL4Hq4LtDlsLHRq5YQaEk7X5EyC7UrhVUprNeU6gnNN+vVUGZ+rcOSDR9oqihOttphNVxHSau9VrtZCSNR91PMYliX+tPpcuhFNcfjmQy01a13ai0FXrNVanRZ6rVGSyfr2s3wvpLV5+sqm+F2W7PXt2jmwDc0GbbNis4JZze16l3p/uZSm7lJh3mLLaWyuDXqbm3BS+9st4EuKIHbVKUfFbXCsLLZK3fLKAKAR6vGYBOxN812SS3N7eVRPB5sse6FHbSs19lkJjbEJrNrtLd0J/Cqpfa5UEj7bpCi3oEsZtZqGUNLsVBp1ptZqahLRNssRVgjzenyp0W1yfKivGKbpMVVUVYUnOyJqLne6SkNSmubpTaq70q6A4Tt0K7xU+F9FeRkR356U2f7TIQ9zczQNdoLmWvrXUTVjGod6eK6Vn84dtq7EjVZAwANGlWtMS30JqwC8TKQpCoP7B9ZAaGpYq+ABRkMJKf0hdqWFXMRG3y2RmZpm6UmJne5dsBmHe32R7GVPrttO+xUVPDrNRmnh75qbx2rt0G4txfvOo4LNYxXm722xAKi0lTbzda86K03MaXMJHtPud4VBv1yqXJuERTI+q3ojrHURKNqKAdg021hxUm9evO8ZmChY3mI0Ih6r1JqiWYW5iUWVLuiu0xRiFbj3cm0PxtOxrRJ9xJ6Zn6RK3mP4dbOhXNt8xebRbPLskkF2cRUmx3sHxnvfGlb5s+vx33ZzTrT4QGltBOY6W2GTlW8xtHBTjztjoezBGLtksjGtGr3hfWIjMcw2bYF069MxslsOleJZVQFuJF6lYG3VZL92IdxN09BVMHBIFNYh2K1Z1sUXUGxl6LZdHIxLo2GF8Y0yIgZdik0gYyHOXdZ3yJX+oeocDoe5KO65GUG1rcWQAQpgwhsMby3W6uz52MZARacEorNsz5QEXmjrVjcDLSU38qW55tV76mUV3LlOymv5sp3UT6RK99NeS1Xfhrlk7nyPZRPVWrtSr7303a0ZydDkcwWTkwbqCmH26GMwEsH7pcnk1HcHzcPY6sajK7bsEsbMdJMdl7yXtQtY8w179+nK14VXIW/OZkOnz0Zz/ojmjtTmptblF+l4J/t4jOs15TDeevteDobslYF1mxRlWtaRjGbW+T8rclREleOpslkijzYR0oYSypMpd2MWJq1NnkvvD+UtYrqUfJx+bSrVomhYDwrrAnKBbYGkiJJpVYnt7QlJliaLDPFuO/kVrL50+JqHfsttuXENmZiMt0aTqfCSbb+dPpJPc1gu7Cp7IUd0WW/2k/2rSXyK+zfgMxc0z21VnZhFFqNDUDmbCuU1Iu2JfFbVfHKg/Dhw8l0dnwxBfhabAZsm27FmBSAp6X9eykgW7t+vX95cjTbmA4HlkjBrq+c6OcM+na5BfM2rf5sFk/HVIFVa+lSwbqrMfF0Yo9mk3acDJ8N6UxEyo5KJuPDy3JqojrTo/Gu00O/WovEyxKaBjeffZiMp7Yrit3YmcN21HSWtcOxg8SroGZWadbbrFxmWUxa0AnxstolPVsUUjIIcxZnkswMYrrfkPXSfQYL0t+9aKcxG9Mmpv0BpKsceGyxOMWat9iq4HR3hXStSP0y2ia2hnygDSqTIxiaunZLj9QOsbvJCUrdjuhlIUeqqKTOHiWz4d5lio9IpVWq4Nluh/bIE9hyOeycty4FUoJOZGdRLS9AzjxR7YGw12liblRACwCUjkmubbU4PFCSGnCsNFqTZCiTy8YCyDFuSmXE3rXHLEU7PxUjzabD8avUAmxcaqvzInLTB3ZK7fgYPFDGLFm6tZO8mk4dNsF6bHJMpOx12zpxZbZy0qBSb6qvW8BV76U+P+Vit4UnHPb00NJrdxudmh7Tllhl1Zr4RaoAy/lmPY4HgrNSg99pP8fONZxqsAnapSmtw1JP6LFxUfa2mkQT8HTJ+zZvKwJabYpHR75gK/BNBK1oS3oQWAILp1v9bAIIOuyVKt4p6Sp158L702YnKG437Xlvjbwd3KZO8MmszDKkfMp2kWrTaVvkhLotrc90pv2xnWc7wtvYjjl1dHrsH2zMIiDQDMubedcm3joBC1LfHpbW283s4BHkQOk+UsjB7I5RzEGyLWOp1Y02LcwRW55DUlorc5AltToHZJROyCHfwhyltTkkpXRyDrKUEFMKyCidtowyiSClxM4sAFN61yxALclrF2AZ1eu0Jwd1RK/Pw1KaN+SBluSNeVBG8SZsXq2C1ur83IwrStSn1MAU6jq9hVNHE+d0Drk17CcsazvjpwnMVLrlWoUKI6TTgldr5Iu+2Cvr4NNC1l1WVRC8BUjRtl2ALVlTn5WXo1bb7hMrG6gn6y4DrDrUDHDC5nSBsFLt6lhbBHbOi005eQy4yYkL8KlodzoZjarDqTUvMO3W2OfZFZCwWm3bFts0E2sQD7Bss5j68L4WG6Q1tBUoiMulJW+jy9bk+QmhKjojv2y80QS/SbN+ZTLCH/EKU7NqvAv84+/wT9Dnn4J1WWj8MCXvMv/4bUBgzwEP8U+wzz8FpRTNJoc02JW82THeoTPdINiuBGG7PzV+sCtFwdGMwN5ZMH6uQbDVn02HDxtv6eCOOyh7B3c8lcQ/uONOkuDgqQIsHDxVgMWDpwpwqdWfYtdr40FMO//C0XBgHsxxsWZ8e/qg8lJ/dBTTxjvSk8hjjL+OWBv9g9h4wV7/YDi6DL6XyI5PRjibJbvT4eGMUiC48Dzs0+ToIJ4Od9eHF46mzAV7vDuiG/QUBSDjEdnQgC157WaxaXTY32UVLLQl1IHbIVZPyx4xFHeqvQqBddEGGWCeApaX4IXm8crQf1WIfOtK/zBB++dNWLB6vPVIemnBb4UcNYX1AEAvK4nHT5BXskVADHaD7FKOfiuVe54tTgT8y8EAH4yM8hOpkJmcDKvGItC16UXxAaSGu+fj4YX92QIS0UUZUoZS4ygx3F1AmdPhrKI7y3rcn+lE/a3X4mBKlanc2VIUNxq/0ooEHsioSHWgpEUXml0i0CSO9XKzXW2QrpTW21K/Wm2oFTzR6G7J0NY4B0h48iQbtYjmVNWmp+WAQHqGg7ek15RKeia5tmLT6ziUSXp9ZMs3tLc1fnOjWATSm6LzGqC/uRKdl/QWJlngt1YqGhe9LbI+3qM2iU+SPtp5U7c32w3h7zEiFNLHsrGK/B5X7ejR+/Hr9ZKM4wlbG23xK54YobOkT+KQI/1/wTquOOmTN236hZu236d0bPmL7rXpF7ds+iVycCP90vp6Wcpf1mxp+uXtjqZf0bLt72ida4icnlrHbpHeSSp83tXu1KV8N6mUn1Yqt7dJ7ymVt6X8dFLh+xnbls4zt2GI9CvL9fMyP19FKnhfTSp4X1M6tynj+NrKWT2Qfl1lXRfU11daWi5Vum3BK+NjSLmCVZW0um7phwQhhZ910jtJN0jvIt2kW+mvRir0z27a8dDbhvBT32yeFb3Bn1bHqFHDgyFtnm09/RmkrbOtZwide8+2nnkHafts6467SaP62S1p1yEELvhdtlOZl23xqkjPkwof922d2xL4/Y26+oMPNLrnOqT/ip1H+PoG0oj0G7cROOk3taKOwHukAn+wfa4t5X67tSnpTrtblnnfjXDHSQcdy0fcaehJaY9pkvm7sE1Ij3R/29YPt+24n7V9TvXl4na70yYdkd5JehBFWHBjxqRSnpDeRXpIejfpN5M+jXRKeg9pQvp00hmpyOmI9Jmkl6II22/MQ6RC72FSoXeZVOg9m1To/WtSofctpELv35AKvW8lFXr/llToPceLojuF4Ld5lW3l8LmSEZLfLhmh+TzJCNHvkIxQ/U7JCNnvkozQfb5khPB3S0Yov4CMsvo9khHKL5SMUP5eyQjlF0lGKH+fZITyiyUjlL9fMkL5JZIRyj8gGaH8UjLK8w9KRii/TDJC+YckI5RfLhmh/MOSEcqvkIxQ/hHJCOVXSkYo/6hkhPKryNwllH9MMkL51ZIRyj8uGaH8GskI5f9HMkL5tZIRyj8hGaH8OskI5Z+UjFD+KTJ3C+WfloxQfr1khPLPSEYo/6xkhPK/k4xQfoNkhPLPSUYov1EyQvnnJSOUf4HM04TyL0pGKL9JMkL5lyQjlN8sGaH8y5IRym+RjFD+FckI5bdKRij/qmSE8tvI3COUf00yQvntkhHKvy4ZofwOyQjl35CMUH6nZITyb0pGKL9LMkL5tyQjlN9N5ulC+bclI5TfIxmh/DuSEcrvlYxQ/l3JCOX3SUYo/55khPL7JSOUf18yQvkDZJ4hlP9AMkL5g5IRyn8oGaH8IckI5T+SjFD+Y8kI5T+RjFD+sGSE8p9KRij/GRk1UX8uGaH8EckI5b+QjFD+qGSE8l9KRij/lWSE8l9LRih/TDJC+W8kI5Q/7h2PUuGizdiuzT3GS101X5zZrf7hoThLnr83nRyYB403m/CvXx5NcCa9ncuzODGBZ8Njxg+4fd2X8lg8O/y4QX/WV9xlE2wPB/HE+H6Kk9zVnY4EqdVPZnE0OZruQsJPpnh3OCjiDk53GxLKoUNAHMor4r2WBs8iamK8lZkwjk+Z7PcHk4cSsv4+bgsxh318TLzWQTzrD0fkCjHjTcQRwXu9REwiJjZGfmkWH2hU1VYtXxrucDCGjVUOnSIX2617WWD8E/93u9zFO5siDPKrO1OhOaZnSieUGePfrJN0jbFuPP68PxFvdiang+DSMBnuIDjPFEjcpdZpU0w4BSRm31uC9jjZm0wPzMgsD3XGXuiZFc119nHVx8I6oNX+GCAnnppUCeQaC8G9xPtlapfNtZTz9zfXmRMWsj85Gg0qwt9WfwwAfm6aTjg60Rg21xJpQubknspWMd2UvsQzpw5lpOtahd01p+ODybOGFXpoESdHxsvemUuqSC/yzHXEtC8MxxyvpOfzw8FsH86uX4BuWk922dywKz3hLMvR50YVihSe5d0sTvEW81ZFWY1fvBhfNpxZ9oDWh+OUADMtkOrwQgynAacWStaV/lZTkILzmYtcgFCC9tCO2Q/6Dw+TTv8CTHiSbYgE0ft0pWmY3XZ+/e5+X44X8TQBw8tK2lGtKsP3E8k3L8VTgrxxp89cm3f6XjCC18S8IfBOjjQGvA0N6X7ZrOz1R6MdonLCV2Km3omDYRqVy0Z3rW2lgcQBGsSlmKX4Ws8rXhhdPtxP2GW8pUF2Q5Wwx3jLO5xvL37z0UQMwes975o96GbCfLnnre6jslNIXSxPHgbn1Z63NstCyBypp+4EWTSnHDweZFydHk0uyL2DonQmlVQezb29JJ5hncyqd+aAcUDL0n+N51034Jh2KR7Ulf83Bt71VQuYy9nJyI3WWxitPx8ty3lhtCyshdEWj4926crRLrtRQWNhtCsOnhvt6r9gtCeOj3ZtYAdXV/4Z7cnNHA/GL+wQix0kZo/Dt7W37qQe7Kd4HCCKhCgzwiyCeaNkzjQhDOxKmg+GLKARpDA4B7btOZbOsimWnTiNv4INtKdS0B7SBcpCkrr7yajOZqMvSKmU7EKK0jImczKN67k7Tizk3nCazDK5SF8wlC8vbcjk0fHu5OCgzxDKdveZhyUGxq4gBs0YZAJVC+j/SuL9wSVnm5eutEPLClIjE8Uz87kCcdtMXdjIpoRvkKCHBNPuZN90+oNZuOQu1cqYIQSt4K3+lGlzss8zauNDqmfSUgqNePbQBHQ3QsR1wHw8m0AV/2TjvNJSyMbO7RBS8kQVEvOg50WXD3YmI0c+0QL9st/bfEokEQI+QRzZRiJ4j9cRFlsRk5mSRU/VZ/B9dAMKh8BwLAkUIL2NeCybHxJyfU3ylL2jJF5HCzbEKWEcl8caqvFwJIZ7e83x6HIboV/qjxQ7qFrNrx0cHM1kdLo3Wbr+Il0Kzhj6pSSJZ7UBXDJ+dG06BOetnue5ihDQZQj0pSgKjR3WfG2AO+rat2Nmx79oa1PiLC2tBNFfFsnK6PsCEfS30Za1NGNwk6PD2sC8wzOBzhD5d7KGrKQpvMvDY5DtgyFRfLdnltJipNTf6xFFzZPy0zW92F3kqD9SddrhI9Rvu05RhP8DRhMRiLBrg/8TZsQAqo+EhCNxRHeDR6rntvIQS8ycR5B5RLTOfnzweZheH6GgHWwfQaYWEXIcYhNulTVgxy1HJWzZ5yY+wayNhrxsohDIq7NuWeCFCKOHw0QnrSleBMZmJoXtTA3woeej1enyZ2w9bjrQSHYWPAJAFfFJtvrjI3boy1E8Yl3HWEpTGCblyXTg3KOrIBSTox0JkO6wq0nnbnBLyS6lfsrKMmY0cUsuHqzjwle58OXWErdvPorFpfBhlsJCXUiFLIiZlBnOBzzjad6O/kOMLsJoynIVfYKTmLgwVtNf3cORP2cXSaKVzMqDOD6Wvc0+BwHCuzJLrX5mOBJOmOy07mhRHA1xkKeXxbp0JpEbNWgCIArgLWHp0Yp47Bbr8tF4byR333KFmSe5Mky6aZXKcNWyXUnbb/U5h6QmdjeFWqre4dHOaJjsQ0w6FnY7k07cP6jP2ZNO/OOdBDXOWLKJpGskmsmw54ZPSDX3oofgFFPmkMVe4uQvsLBo0q5Od/vOfxFldqH+KMrNSNrEkrbvrIx/aiar5AbhBC3U44Z6IuwtwZR9+UjOJoX5uaNIkp07lpLDadwfgLGc7E8eQtacmMoxEhzIRgD6iqWxzfaHS76qnbjCCdvYldYedpmTl13mVEfOMrqh18Z7cqpUVu8z3uAIXQdMvz4KOptIRTW+NNxNn2+kF0ASqNO3Jl6F0KkGk32FcSckVwGU2WGkYTs9vrCHucaVyvmeHs69Y53gcEnB/B1iTtw+zFiQWm3AVA73hrgWKD2tLM1PsNqbiB+PtOV8lI4QMCvZWwDDNWB6Z+hJPqvxpZTeHAZcXDGOFLPgihly0QFS/CX7SJPcsmOgzCHhAnuKOHksBbZ2uKGXbNRy3c41nL0NlxtJ93LLu4KAHUPWkiBsrdpLHyJeiV5CR3G8REF9fycDK5VPI8o5qCJqIrrY6HOsVhkqlik2StvcAeh1ieFStG1fUnrReb148CXtcTejCIG7HdUHCYWQs7qEQ6DMdIrVAiN91wqCidobepFCsLoF2V7rrt723QB82zLicI9lYCtYS4729rhHw2IMxTNU1u42XNKx/sSrmRHLNEFy6YLYGT0JMv8Ua1VdN59jFVFqHs3EG5YtgnpMHNOB1ykeEOVlMNYnhEsifUGG3bqYAF7BeyrtJJPR0Sx2PiRGbjc/qs945sQ3s5fYkMGa4357w/Vu/Np6rxGG7nKzVD9fuj8i49X1uCTPilKr8Ax2Vc6yxsecZwYgGB8dRJgO5iQxHCmcuSACklhoJCsCb/rCEQZy6krLyiJTunIodnM6Nl9pVnOU3Jo/Yam50lpia4WGA52cU3WQUxtsLWiUnsBh1bMk6DN1DYIWRhKEhzBLzKD+MmDFYPAWTg84brJ1qyMeSbYjIpDLPKvd8qaPhJu/dvOcQHz3xj4I19ft47wC9xvNtuSK7hHWEiaR7Ufp5TZN25c1+alr6XbKdJ8VBCadsYoSwX0iENckYUZTQ0LZl3m3Ve5CGxvMykHgAHQRyAwzhPvCau/8Zsji3qzVq73mes9Wc9XYS3/mwAhZ+Pe7Gmnol6a7GRecFBFiaXwBKRIlYzPIFf3hGEekrTafYmD3nzrnT9oeTYdw6A2GyeGof1nXxZp4/VrUZQD/rdERgR3X26EWkCTNOBEQSaHBRTvQlta141GfI/a+bVA4VKBtcBDbiB5N3FSTxSer4mHhKaHKha2j0WwovcfT9WE8GmzbqWCCdllbyB5l8PI3/X5lwgDlNLTVl3Cf3E06/XAPn8R2k/jOQAfWHpMrpCa5mBnrJWnTW3iksBzaZ+IruddYq1mn4XhwKEdTRBO7rOyzsPYg3kuqEKzfA8vdS30TZI3JYEpGLWnFCHPodpXTDBSLK7MRkZN6fPZatVrXh2WYVtVvMwfZt0jp866JBDJKkCORVSgX1U4+Zew1qVcO6/p8e7G3raEdD0NLAErHr1hYzORydF+ZHxn6hZlkedBdWC83z1vTxkotOZmz/bft74Nyver69rMNUu/3WQPkvNJ47PZurCoRlNlli32rswJC21oBj6tZfUriZ08oA+4leym4IIWsqrhVui+rYm++b161bElmtSsVbpfDdo+rwVpXVuFqZmdOiOVhLuz7hzUt6UFmUZdOrpPrrZe2avqs8JQW3dX1aS2cTzs/gwUI57xcUw87qGhPHvFhGoBcy8zjDcwB11lAq1R1L0KvtwD3wO4GW1Ku3AZ7Y1Ma6wX4Tflf2tysrKSjueVK0Rvfm4n0X4s+zGtR4VF/J5Zol3doMeVo8zpiF3Okrbgv8XkJXclCiWSnMAW7RE22ND23WP10iQZXpcBhR/cTb49DlpAj788mLhekUO3k9b4pzCZR/8AW2fHVMlrtFaM144SLWi+x5abg9eHDmCX2Sksz0niH7l348yt709j6Cmtm1R1ItiaXYucaT0aDc2oXCcWwaaxnG4Kfw90cEhKfXq5xPUGTRG9jpKeajsqWK8cOJHi88Uikq0xrCPIihnZsm9Hf3ryrEXXOrEvY72JXY5GF88PBhZj9itWNRfUJYmlbugwHQ8KOMoDCbIi9nvUPDmvJ5Bn3cGkMaXydKYhCmUEJcjwoSZw/2OXkkBYKUpEu56VqKL/tZA7N+c1aJyw3S21Z9p6+2JNl5FfD7Z68SG/qTyyDCCyBFypN+V0fuSL77kVLLijVW5tyBS/P52SNkPP0Fzbu13cunuGwG+g0QBOxJLCO6YNW/T1RWvIjrA+KFaFfbJLzRuUuWzKpJ4uDBWjN1QK2lVUx0YJ5O+tBBNM9HCCM7nj4cCcVImLxOelxjD6U1ogwyIRZ4KhyKcpIFBtMBxHRMVul/2o9qMvUSGrvM552uN9PYrNkfM1Y4D2HeCnpw7CxCXJFi/D0mYjkBKuA1IKeMba6UZTUgp45TFr20C26zjJ5g7fI9tv90Vx/dfhv8M1z8kCn1OaNvvfDzjf4dXWIShIQklDMWzzzv63HxUa5bJ7qspaDeJhEk72ZcwoiqYKNN3pc4UzGVrKOtZ8Htj4cjVKcH6VsnfMU8uNAmpfsKVtSWa5p3WctBx2kYZ7rc8+vxerCYH899QXJ/4yHTK7iCH6nz5V+rmruVT7P545fZplwLS7Zdkbq+4Jj/uI7/MmzOFpHRyxr9Gsaq3FUD0jo/6mfxJe2JpMxR4j6cHQ57fcjeHf7hGMxVE4KyPNB8yrPgXPC0IrXpBWZHBT8kynYnUyyip/KKjQ2Ma/46bRCDidz8OtTcI4fjkyWDep/xUsUOAAoKMTkzPvsNCjMIqY1v5erEYYF9v4czDIl0N/PQYUjgX0gd6Bt9bF0iXmZ5/2Gd1UOyxkqXL4TpZHVaAO9aMpfw3ZabNmNjZAIzm9TgoXcUQXep1INUPd6rgJ/5plnQ02hi+vqX5PLGuQjZt+Sr5jrzLdacLYb5DTwIx63YIniL6rvi72jNCwG9Xwnr+Wmlb2l+wjVH08jb4hJDMQfu72oblf5OV3U3xM4JJ37P5Hjm2XNVn8YMVbuZKR/mhKLM3d+DcHYC+PKYqN/mlMRSVfjvcQ8P/Be4C+AkW9inht43+O7UYsU3uiZb54XrS2R+WFbd8IUuITa/g13dpiWNDjXjhMOr+FYJgbX27wgjeUROrINdYDft8gaxoyYrnghifnOwHsh8SYCs6VpXD7acYR+PovwRRImNB/1vM96CyAih3/leZ9T2576FZO0YIdwmDaoy75viuY3/IP5Dvc23/yzXpFHDAFP5cY0bxvX2AX6F6b9w33ZCHCYVs1Nx0AW8WwGTV/qrpqbj8Ms6rkZa7E0YvC5X7d9sXncVcC2QSer2WblyN2b+VLz+CuAFrkr8Aq7mrnJPCHN26ptKeYu+24xT1yEWLTzODrp/eahecq8ZKu/QSTUYL8zU/NFad5WfaOSEyV5pWe+OC3Yum9ymtRxUIys+fcqeaIew/6YONbBwWRcl+AY3qkEgf7tQi2u1sOzoz5H7znGc1iFGUp1yNKNZRyssDzWt+Wx7OYq8sqjPDePglWShxiAvz0PjvBMWIIPxNMJVc/LVzWO7Btr+757Zr7jKpVOB8wlQmlX1nIJqF6Redh8V766Iu+vn82NQQ6W7XvfYr7bY5PHjKXED81PWMzMTrwXjD7jsZfRj2b5imNEuUWQAXkqIc/8QQquIx/Kf8iB++E6Uy8Rsb9k+1TuWHPOx/qrRZD6Me/wzd/4Mktdtuy6xt5SPpbN73pSwwY5Gu6yCR+rfWEwm1wg4DJojpuddTxh5JggY+/3vLSCm9SFmvd72UsA897A/KUnpkSovT8wH5orloAS8wrPe56yVh4OhvNuf0hhHfukQUBfa16OIJLN/qDdqXeoQxSv9ePjV+bfFST2rsk9P9pEM5D183OvmZZc1mr/V3J3cVFt2rLNWfBXzR9CrbisrfhqWmZ3EqtZwVZ+TYJ9IrixJqkFfR1R2uyV1MmsYCu/fgB7GET0ZGxWvVO5okUoHXA8gLdrJLWgqmRrSdNGdKm7bgFgkdYFpmb0rb75tZy/0LRjYVjXXwG0TTewOZwes7jaDfmyRdlM1JtxD5RWzW35skVpWJCaQfMEc3uuaBHutRBWkXmSeUxWsJVtW9afMj/ZPHZestXRHi7O3PN58rxo6x+wDSxIML4wD7A4/ypWHysxH/O8L3F5W9ObC6biAsl3HgNZxD3pdyOeHMRyofkc37srD7A4F2zPKVCw7l4EWbz9GSo9t/frELLcCvs/EizWRheHhzUWl2deqTVdtjtZbjFLMWEdHJofVfi8RWd/uHsRk5FQ92PH6tRXNLeZVwfywgRbw9KYHNbjPUz7fOaZ5u/38ghtmexjGC+ZY5Qns9nk4CpUfuA4ztUIvXSONK8ZyrZ+yILDnDD2HzyO05ngz1A7R3mZRmtw/BlmwkaF5BGqrvYfkuPLFbcbz/V3JuJZMb5N9ZKA/ZiDWW4z8KsdWIaYAX/cAXVMGfQ1DoqCcWZhscmyfZ0D0pVdOAz7Jx3MdpWBf8qBpasM+NMOqF1l0Nc7aKQ6ZsHsAXmh/Iy/zzZr3ZhMJjPzOPPoq8GterYS+RWuGDpTNexDrmArn6VlGRe7FDxczJctykhBrf5A9jtQDvJli0KHgCrMBOZPDYXZNA8r8OyR/VXzWXNZy7Z23XzA0+JmxrYjSAd/YKvYUNQDm1d80FYQJ8InrZs/tEXrRlH+kC232JLxVaLhs6VV3fztAlj7rxHZSmDp72xVnnFbtW7+vavaH44GrunGdCK/uvuErXFs6RQC/Q8LUKsEgP/egpWM0o/i0R7C+aSFp04HTUzDfC8HRoBtXOppEj8gU/8wk/59Fqw/s26Z37Qlx7ObKXp6l38wHDPo2Ly/YH5LHI208O6FFsoFOsLxamba5k98OfTHbISXoKN80i+X17go3su4BonGKP5G/4CF1p/K6vuwj3a5C3eJB+gx5Htktdq770iufrKKF84ryjBxYW6Isc3f681JqbPzcc/8cA7WoRUX+a/IgarzO/0f8Yi5wrRiPYB3PMdq4c7E00txpLdcMP1LHJMIrKpzpfgd8+YcSH5KvmZ+ec4r4UxkwPQRFWIlpfffHarMtvnVXFcSS5sciQq8LY+51afAf2qwfs2jkNbkRvB2iWJxTaZl3ADmfdSXW9135DqI9BV1hAbOSvryWizQ789Zrc1JJ+atgfexeZVOBRLSmKp5V2D+h2dvvvSs8CLfe58rS9AWd81ej73Y9/48lY1EP6BhXuabf5jDQiISQP7rHFJnpHYzerVv/nEO19b4BjgK/20Opb2FfWYOq6CSTJaymuAwev9rXtdh08sufl7lm/+dq2KYGGnz3/x+Fosn9uF7/8U/QD3wa8WDTczP+t5zAoIVx77VddL8F0+hXfTFWZJV89+ZFz1XXeU54Zs988+PXL3NyoUD8xLffNAfswjciytgUm3e5JlPw/wg5jZ592KdHfAIB9i8JjDf7o+GY6wUihc/pLgfChCyMud8adakx22XOyNUEJgMLduqfoTb90E8aaFCOyw18x5CgLL0Dw6V3AcD8+/StnSDs6FL7p8K5h/8Q+It4tpG0hvhjeFYVc+8sGh+mPvwAXF5eYBJyAIJx0SxzPf7c3DFfuZlmVFbYNWKJzramXEb4arf75sfcPWV/i5nvhIEE6bQvMnnBtLW1MaHR7PsVvplgflRVyEOAnewrNJXOcjm5BL2T3XufQRK/WFyXuERu8ZFmRRE8hPIT1YPMnJsJM2xRdPmoHzCkduKZ/2ByOnlAUFMCwsviYDNSwPvuxykhU/CvnR5Kx4f2a3i1YH33a5SmRfVajDBql6vCsz3B6oh7clDqbHHb/UZs4KxhEcH44WaX7I1NLD6mJi/882bLdCin5cNUMG/TKjVrX6MnZye0Iq9oT4okVn6r1fUt1iPnBUPOfGmSP/oE25zzyA/6JmX2GNYdBhj+KeNiajdmvkO2QrwXQ+ZVqlGcq8I9OkfZv4DnvmffiLgjkCU8DuK5n/lYMTxiNcRk7Kg+EBUToKq7lLou4PBUMI6BzCI0GsD9o7/yH2OnGjbk8mM4t+7YiotWn3Sd63qWiNPNnQY/+SbT6VVjqBupv/sm/+cwm2TVv8owUY/JzCfRoNaLMbqUJaRqMY/WekRtQjHRwfrGBv01bw2MP/T2nMqZKhpxesC821EBNllWQonNGPdo6/t6+d1xtgIqJ6el2x1WVar3RjDLNx35gqgRa7EGg1nmnXxN+0roGuvhFr0MMEA17CVU32hjW27ZRFi0eoHQ8ZTH5KAciuJK9nqrRlK3UGNLrKZgPCofNmiNHdYoAtfpnqKedJxmEW9j4WHDuY9VTzYL7gSatHvJ4Yy4G5Dv+BEf+YO86XHQBbxQSuEiNgNsMR81vO+bBFk8dA7gnw6CYm4SF9tvnwRYtF2RqogErlPiAB7X5ErW4xd+/ZedIDLFnPHvGjrB3uoGZqfXCSKpnPIVCVXAC0yllL7nqwzB55h48qKFuGSHUsZqVu9SNuD/ZBEZ1mn/+x5L/CQnOqmaAF1L/IS9YLmH774BvNj7EFy7IoOWFr7iIZJfbXDcwfRgXmdZ3vsiHCSaHtDMhD8OYfIRDFPuziPke4K30SMfncOg3uI/CIXv1xXq2M5jcfp4lpjJ7RUMmP/fN+81eu7F0Qv8M1vprusjXYLuK4zsO322KJ5lzemLQFHirru/9Ezv6Wx7NGxF5Sf9My70wpxdsQepghw+dtp3Vy6NZEiIxGET3nmPVdilDCGxKLZxfCNzO8oAsqhBu1B80cqiz5+0ZQLNJGjuxWUw11pjA8sEyA7+kfsWaACTbpEbjIfdfMXcwJyBScUHoHAR72L8WUikRcuINn3BATvL03wXkPZvVr7U0LVyPtvPOFU9luiVPvleG8yZacn0CkDfND7j+6qpo4TkpgX+t5/8mZMtwQuRfLm9YH5z0wIjO43uchhncIofs8Eu0gUlzyMfAc+TDKbn0meT5BvJx4ogQ8EOJzEZPe3Ygywgn62gK+JUjDPMsuw5zSJTekH/WTIHsHRMb0QafXH8UiG+0q/v8tINBC42dmqy/L4QIELX4lMtrE45oMF83M5pLp7//FG/5KgANHu31kwv5BBKlidowNGJq77IbFO84tZnRyXy5cjfARq/szneiOtERiViXlXwXtLHsqm+F7P/EoGasdEK9BlVcY3FgjtpTXCil7bJebdBfOrGbzDLI8bmAoY/2gGjXYnh2C+t+D9NVsNu/RlVORhEPAG9EVHpDdi3LGZ53HZ7h6dvsU33xvsoGNMy3ZKCSYHwuT/8I/VAP6povkc2yHuhvzKAJmED7OxDKSWCfi2YIrZSNHPoe5r3HuJTZ7s7UXM4FEikvpkwfwHHxZoly41Af+9b37bgVOfS8Cf9nFYD4bszIJoqZgPFczvwEfu5p3u3+ujQWzoOK9v9s3vIgdOkzhmezgT5s8K5o98q6dok6o043mXZ/7Y3xUb1LZx+7kx/GiBKZ1aqHUS1syf+4PJLlcI3BTkaX+kYP4C2lx4MQn5hy7cTvrex6y3U4LsJevzcC9phfNxVc3SbDYd7hCywnUrmL/VUeh86lA+VTD/Cff8AMcs++bKczzzmQzmPrLyXM/8d0SCQnHr537/YrhUCQbxXv9oNFuoYOgPmhcRHMzB+L9uhkQMzIsDnKNI2GbG7A9LRAbYIRH0DwQ7zjgn5kVF3OBElauC3jGoVwX9YcgQYn3DX2H6L+DPxaNBg/i9GKZl7wcdio4yXYUvD/THddVpn0ll8s3ziuaHgvZVWfSXZ8MZkl8z2B72i+wO2U+wQKDI6iPAYYK0PBxn9mjVFFJo/+EctJhCh+O6bijqT1OxlFZwSbNQsZzjzqFIv8Zvh+v2kaJJP+bobSPM+RnMD/q4FYcUkad3EGP66hP5VJPxOTqqlIMtgYraMDKzKm/KoWNapW6kBDvNDXkkJPBeCvS37JPPoNtwuYJDk2Ivgxb1q/TrzfZ5+7xpScvlUuWcAywrQF+krjBaDjF6LrLHKn8JtSf+NsSlJB7reYnuPXNA/ifnKNJ6hs0EMrICsCjXxEKLw6Rpm9nyku236jb7hTOjj/ZjwwmOyIscNkTdIsn6uSe5Yj3mv1n6oO95i5UhNZchdVHX4vyBcGrARAlBy9H4Y2gcqw2pgkgwZuJVy2ECUnMc2U4yM20xPoxebi9AzBO3apG8+kLe5vjDTU8+5b3Rlo/mz99P+nNgrVG1LyGD9Alo+g6zYF9RzlsVLcC9ukx/BSJfns9B7fPG5UVg+rRxZRGcvYFc3a5FtbKqun1eWi115OHbWvoe9WT2OvRU9vly6UqZ6B0f8+lFHO39CqQzcyTLx9VpXXMF2tXJXVtutqsApMNMhNc5oGuZwa93cO0xg97goLaDDHyjfj+y0enJR8TCdqcWSn83WVFWml15z52bpZu3avMHwLfIK9+0cKvUZIK8Taqy0qP0HWz2XPfRWkyfxd6uJWWjU2s2pPvHzN/TPlZr3dPex9WPP959grxcnHf0pFR3xdhl/s98lXwkt0ryKCH1LJVsMQBl+eJpZOtFsAE9aHzZS6wPQ8Mc7b+C9kJdSIUQZVVrpMq8ryD03FLuCFUiJmzXxEfy3sac5Mch+Yh4IUhCfjiAq/kT+StIyxYCeo7sJ64g63BCEOYkE4CYSb+kjk/LdQBajtQnIXVFfUjlnMyhqxDOLGptFh+ok2d893LUlOv2Tzc4Ynkva97ZP2Sd5epDKuedCZDoUNpTise+MO4fiNzte+tPgUFMARveYMZ0XoMZUXGiDPg1n/FN4RJBJC181jfFg6MEZ0ZKn/PNkiXdydB9byb5ejy+wNaLjbUI2ykFn7PNDBeEjWBeu5WRZMOY4MdVhbkEpmYdqG3hixi/mg/7ZJEikZp9V9uxn4n0HF4+bOSlPxFakL9DtARdHEnIQcTcrysfFc69zWrHe8YvjpGR3QxgH58NXh80/rMnBzvDeB0HTNyGhhVvsJtv3sgaPi8whfzvU4qVq+OZwtxYm7yx9prb+pcw2E96kf6xkB5sGOPXGpthu4Z1qdXr1qbYimChh/kjM+MX0iG4xfiCQHfBbS2wJQaj+EJ/97Lb3Tsxt9eiQq/CO1igWRXhuHfzYzt8om/Iuj+ytCCM/7nwPrVwqHPkmtekbXEmk/rCwCzlBbR8OJW3j5wylRbebGBW8lyuLvBiwfK1jInrHNs1g3VbeKVnfzJmSw+aYG806bs6fM4FUh1hR35tqR+e00kg8dIfPyJwNodGJezJLxIBBI3uVtm+Ll+g0zo2APScZSxnNi2ued7QHZPlN74O+uLA82s58CIRaMyEu5cERuIHyPPzIHcE0/jy5Jzlol6IgXN8TfkrCsK5Z924UIIOcG8/Muy+Vmz0N6KkngigF1ZRMft7IL/UYXPcDKtoGyjy7eX0b/9INZ5Ol61Tesr+JpDA3W8FNOBedmcUsN13p1nK3Ual1AnJ2kf1srFR8G2zuSFb+OWYzW9zdEG9FOTi+g2rj8F5Lcl0EKrMrgCsaJZLFdlw6cREofhsHZ3g+UxXcQmcOAIF9qKwjsOitc57J1eEVZGU84rznXF1zJl1MpX4C/rv431rBtZnaCoeL1k3RJVMB5UVa2A59HEuNkJxhxq4j+4PD5h2rZL9FSA3hfk+ZYCsy0MHcpLI9zcEQzt4BQt0uKv8FCxniXll4BUTZTseNBVGLUuzY5+fsa6W99EzgCuYPjbQIwJUB2yjTKcnqxKvYuGizFzTub8VRpV2Tb8QaSotmXDPfTjRr0RidoOzpe1ShlOQGBFp8Wyk87Ok3vS9Alpu3d/ZVODKhpjt1UjBJ6LzNXWY18415dcc5E62u5FATpVL+gnQ0xzH5IPkKrczNTmVEHENx/NrAoxsXSTspZVVNC6tZJcjUStdIo4pH0p/xJfcTPShAyIna2ZlxfsyvXXibUIYazUii9ZCbeeIsI293/xZzPGQPQwvSqSfvtaVn93EDT2nUyqU5w1MQT1bqxzdxrzgZccPtrhe3X6pM7A8jO0JyD8xIqtkfgGjksghEqtcNCeuwgIbtQQTskAMx2oG+KbArA4WQW9GrxZBIlGMzFvYBgeTh8ZswjiKWWdFdDBBFvF49/IcuiTiQczTWdPGt4vyPYx1iUTUYbq5V6cenVupzncqqbAD8xYZEJ48qdWxmqIqA+IwTlypeLxMgCnEV9/s3m5TjVOwGZaoJleIriYNk/61AFPXD3p6bf0uLp7HIppvq42txoPJVztpYd237Ef+QTHhfVl+/tUCwUxD3n5xKPupx2zR+G2oka1IzDsDj7vA+eZaSJhYHF75wNsByM6AIuBiRjlUKv7ycN5DB7DZNuxbGWjhzQRqm1XknkwEbFWdeagb1/KKSHeRGwg0QBqI94dzRrulA4mybHKZAojycsbbtjuUdNSFZbUx8Hez4Y8xPnaFjob9xLyd431lMiaaBd3+qKSMyUbcdznkQoDCIYhTMf/mRElRjH/7nLMG1FmtSHgO64Bq7sOZziD5gcf9hA1fcR4whTmODMiOMTfwSK+9jz0akW8HyKsJ6pVMR35un0LsE5gVif6MrnpHsnrlXcuJeYe4C8nCi5s1y+/60VjJm1XvJEtq2rcIbhEOzKmZij2dBBXJ6UXYtlg88wsFc0bn0Anzvb65BnKu+za9z2zoLeWYW1Gs5rg7HdXGjfghzmiArlskbd4emOsXQbrgmb0btDO58u5MRMTI98YMVL5cOtAjyKq5CRHaOUcFCt7NWXGuI+8IvFuOsWqlkOP11mMItVT7L8WZIyiXH7ctchuBqWfrRy3CsxP2oxfh4J9TX+/2TDkjMCTa2tLXNUS43B5/LOB6mPKKI+QWYDXWR1KmeC68P/0BJXvGuQZuztzNEMvk3Vdu3tfDcyTvt6K7SQI22Q6+B6ESSgW4clRZUhfjy7L1yxM0lodCXV/vxhBtwrQ8mb0I5pH+dFR/qcJg/S2kBI/WmBoMZbie/d2hZuv+XrUrZi/1DC2ymCVp7B3Ycjzoosm1AXT9DFS+nAEJX6eXHoXEdvS+gGNtimoRa8jyjFgdB00JWPhyyNZr78X8U24MyXS3qzk/jXkHs/QpvK0oPOTi0cV9ez+AWYuFUAeJUL+c4dfkWb17P7+yx7pFK/MwcegusVrkIvYEV+gXhqirbHmU1xB8buJPag/b1qirAE6hMe5NkR8c6aiAyrkcLYpcvFZAnFFAnI8dUFBn3rAV2SMnf+VIx+algxZnJ2WNO408K4Wrjq94lfEtLWKed3I7LqBUiivbsCMXrLhRu/3xpX4id5ixe1q8x9GAO+yRY5tF6Gu5GsuC1eC3bbRhtbCwJX/7ih101waxv9x4tl6J1ie7fR3PwPg5cMR+ymq331zcO07RUtrUl15tDCvNlzkhch90keAEOMQSDnX9QjU6Zlv0HRpU3IV7Znr9DhPP0sI1v8SCkisK/Y0ZOdevtz+ZcfExc0U/4Vzo8qkNyBrb2SxObMlhfT4CzLM1QLXU1E3Grq7gmpUx/Iccc2e1gXmDZ4pZn9HcopW0oe1df26Oj72Ov4kudiaHBxO8vl0uFEQj4Qdbl7OGwFC4RZhSQvWm7sY2hYtFxe3mqHYVJqTy/w8jkLIW5RgzQhd82FmEgw8Ys1/YZqlMIvHAKnoDZ/svWvSGbU53w6TFrMCKaG9WiETBgQTol0RSZJ8jVuYV+joWefKu7kUi6xgdK4ZiCwbxoJXOne1ONcx2lGTrn5AbKyaBLKISBsHb6SfiIYgUqoLttIV4L6GKTrYDZg6sMf788sq0Q8JWev/lIVE9SMhAdoiY2cFjyid4PdrZ3+Oij+OHsoJ/hU5VRacCcqn2AUH3hsmmxayNG/FDx4aAEg4y5j4pYaY0ZDKTeZGnFUJ1uTYHpzPDrCRS0l68492m7EULdOAuSenkwAX9hb35DNuOGO2KWgeMcbJoRJzZcYtKf5XVYKJcWc9uUdoC0SVpntaowR7u7OdtL+UobdPWIQ6w0UAFqzmtcOXaJ4ZHPHbPtUEvGUYlHo2IltcEspRBOPUrZHlxTls6VBPI33DgUkPPovKRmLbNEmDZ2qpxkSEFf7EpS0ofWyGZQ6WCwORx9AXmVH6pwkab6jY2PJLJIQYuPzdmBSfKWCpx/YBCqnSWuvkUSnUlOILMUWI+y6k1T76A2mN8M/rBzqIepkuhxklZvqjLBbfgZ8Y6SIdmvzXAdF3ZtXB0FUajjCNH1DGRmH/iKLfApO4hRN/nexS3tSm1dZGlJck6WKJRJq/EfC7wlqkjtma/pkRwEUXAciFwtk12xI4t+9tyYpuH4OTMJEeQeFAhBIQG0KSEYEacHFLFlh0O8GzKzu1eQ8KBvxnjue7E/Rkzj5kIJRSpUUVT5sItK3ldvA94E779J6UGqoqQ530LOef4EnWX8NMOlkCcBHsuKsrOrx7CH7PoDxhObD4cmPmaMQ96K5MdOpKfUWBCVwcxXkncsDRPYDKwIrphJ+bPAm/NzkS6SXOZFngnZ+nO0rS6kJiPBt4puprC7Zo5rVOb4mxae8GCObMAb6WmuSYzmbMwnJYcSkq+KhOA5b32kNJctxLzz4F33W5uMp9TMNdfWpi253JAwjqcnxL+Q3Y3ypfv1zmrRCgFuuaZm3KWK7WAifl04N08Qw/cxP5DYG6RYpRJ8R8Dc2s2KSXdkCIm6ra9ye5R0hx3QHZtOfLsZ/P/nQUOOunwovk+WVKqVeH4Y4F3+6XhVTbLvwu8x+yOhkwPYlozj9WuoCKvYmoDBPe4q1GWnTlH/eOB9/j+otY+r2CeEF91v/xE4D2xT1vEJZ0koWIJ1QyPbp+UTaDDC0exHCcs61gouLSK4fXHk/FlUcpuCrI7chUyAcaO42Niu8Z/aVAjMjhKUkoWGU/3QXniITV6l/YO7vUi1JbAZP9w/96jeHo5F2tfOFo1OgTAuETutezf3vRa9e6GhsSOUzDsUjgnclRo0CsMctA8xMhi8nZS6i8qcBFCrWUwybTO93ZGLDKNyjjLyCK28sYtRlSokG+/tti1xwrRIHezuILfY2/pMLcz4O34wO5P9oIQyXMIAq7FYEZOhLlsCnRUFu+siOMtl4vLhBP7yazNomZyBhHQDtgM7OBQGy8ngLryHVjOX1vz20ms6ZwFGsjqAonOpQE5zM/np4x7Es0mh5yqIFFsMbmohDzTP+AIZ8fvL5i4YVKRZUiAV1pkLpmTySLueE7lFQXjV3RVlKeT/mAXprj3XcDeXZT7S2kxg9epeRnTd5j2Y15ZYF9J9bqVB9urYPPyglnagjCywD4LFnrj5bvysU2a0ec3TivMO31P10Bafn7BKw6FtjB01TXzgoJ5nFCIVMkd8IUF8yRVK/MCz1uSXLmfYD3tPvwYuersj5wdX7aPSk3BrCQSWo7wsW3NalruCP9fb06k5QpeEBwouGzW9JEmYymak5p1akwgTIvrWWzhtO241b/M7eIAwJlkYSXJHf6LC941Mh47kvk6eUnBXLsHpW17amcY1yn1GtrH0mOfvdw8miUin/HuiD2IOJ1s7ijI9YrYYi7U9t2A+hBbxMKP8AlG3fFA7OfuRfPqgneTgtpxDnTzTqosiXlVwbtlGu9aYx7F33wUo4buzmHZ3Kr9lKfo5j7HEKIo6zBsh36b1oWE0bguEbm9xTePOpQD1OXxbonJxZyB9ujsAy5cSMd6xhQTdjsO+uyyvEyu2fvjOiwxgsfujoaHO/Ijxmy7accX+Jf9ruA9Hu6QpDMrGECZ/tdgwnEc2/EhmwxCqti5hNgTw6ug22Ofm4xjRup4TfbAwReNs7AMO6fmFpaY1xa8gnxYuiS/B8l1zfH+AgNnqtJvIEKyOtzbq+wfSYRsbU4K8+F51hFeMv7Afk+zQTUryQS76uvXhFLB5p1mF22pxiBZW6gkw1/aFepJSX97j2A6++iJgOhieYfArygaktocshqnu/uX6cJbObwStno15A0GJDN54vDq8DUZX7ow/KUxQ0hHCEm7R8hiZoxODol5XcELpFiW/gStsCO5lvbQWKRQPLwadKmdPl5XnTS++2uq1R6J7npmu1YNJZrpZahVWY4+cUTymzY25U3TSqXz+gIucd86FYKtQHNSXgyEJdlBzXq9WZJ91os68ndNyfmleq2kN516k0xGPinbDqPIXkEXt/QefCn/tmPZvv2SNx2UVuTqMn0OslprbENRsE40mtWwt14L61X5KKN2spay145tSGTO5srnZzPjzvJTzPOztMDPcp6flbTD0tjeg6LGj/AWY834C68vgr5e1nB/U1A33sJ3TDF++HCK5Wa5W9Cb2XQO3EsJ89YCO7Z7K24h7+ImcI/VHokVt6C3FcyqdCyjt5BXcgMyRkl08ZakYwvnqkg+p+z6wyNkjWCFzfXymDJ7JdAtd9rZowH5o9zy15Xt0z17zaovF1r6yC+o1kS3yBXCe7ulukxLsdHs9LREYanO5Pc6mzoVy1mh12xnKCsb7RB1bWsF5dV8OY94oqTHpjWdupP0QnLKTmptXbg5TauG/cPsZ+BXv+XZqzeb5/QhyDWN0H15+9oaXLS7nU3BvG4uERZEnBUy8bypYOQHRw5cml44kp2bpVfwsgWylc6Y3hEw+/Y6HJz5IgIHH1DhiXlLYf5GcT2dT3xQoq549ZzUaOn1k3XRIcn7MoegC0fStfVD5xNM0yQLDHT0+5t6eh+TUSzzDogMZTtoTs8pi8co2IXjL7wDdo9q5C6k1StRYT+GKrOccS9qR+86LrkM8wYAlNgb6BGpLS7NN8J62jSK9VcqtB6KeffG1rDjcy48p8rwhci29MNwPeZAfY335CQ5RwipxaeXj3+JVwPxSzkcEWA2L/ojAGNukr9lG3EbE8rw9EWU3hUxXoqEcxYf68qrlc7m/FFqsKGmpCBU5JWa4BT1k9RapLQUbZZaWckaFldYQYub+jneVZvrpUbrhP1oblZec+XUgp2cP6J138d1hst+IDd7jXtGi+6F7TX1Wv497bVXPLi9Th4K6XOUHPD6OTB7cnGDkmWtEQHDYMigb6wgchyiWf/hFne1e/Im1gTnQ/k2vWEFt5vMBwIdNgXbt69v+qNtNmxOWG6B4Hd68jxGfkJlttLHBqV2p1bR0XkRQqBDsn6jtE0SlNxn/gub8mcIi5t38u/S5l38u7x5N/+ubMqfHlzdvId/T2xKEEbmay176XByvdlECuROYQ4xexHZ04JzZlOg17CPkVy78FDiOn0+d31X/r2BpdElvbEuf4v1pqrAbq52+PeWqoz41vXaRldp3EauUmq5ATxqizMq6aOxpSS3y07zmHCLfx8ryqCyf1y0hWKRebxw9QRmXOg88V7+eVJ1XVp/QalcFjaf7J4cfWFben5KWwbwRW7/+uJObUvafUkFw0j6pUwcyZdFJf0zwV9+rix8fgU7AMkdkQroqTKYOwVwlwzubvcnZ59W1r84e0+5KjPz9KilpvsZysIzz2vyla1apWMH/FVRs9vW781+dW1LxvM1hMVkhF9bL5VDGdfX1RqtrnD89eVup6NyKdl3aOTKwr97qMIC7aSTVyVvZRjKaiqxb5Bfb3Y7ltYGdovNRGdycwscYaumToT9qxpn6+GGfe93TrYxGUpddLk9wRibB1O9a2AFSe4utVp6S2v7fEy51MAkkKuIpayHzD88iPCrznDUGutCIHSjXXczvYHKyl+BsHQ2CRDaXC0KS239S81n82/1Ts31/rGs++5WI1PaJxLtIMDhKD2pWpOfGjSVhydX538b4gtTiX2ptLTL+cvsTHy5k+sdkqJWwudTcR+FizvZY6XXp6H6+T858vS2/rboGSQp4WeSF9rK1Vd25L0kma/t4IaVVclK2bx6lc2wco57d/K+/J2BSqiqHWCVRLUKMN11nBTTfK7NUgoTWyziXc7UYCWdcNvnaopxIqq0ufK30DX9lLLkTketWiPj6wxck1xLgjarVl4namV7vb7TDkPplfwNzHe5aeE3yghIbxL5WdDNwiDpLZLaPm9VTlJh3UYXgk72UUKW9NGSOlK3i9TwsMiWS/VQF/K5elNmq75Vat/b1RZb9vEpOfRsS8fTVOxqrWSRW1nuXqtYlr2T9oEDuWsWbNnj5ibp8W5KnlBlCTrYF4RbrU2MrPT4lPVQ7zW+CENmV/gXs47Ctv5V9C+pNSLYsK2+Il12d4k+6+5B4Z4oNWxfhbFhcuyLyK/G5HCRlha/hpYi7q+T8ZF+fXqeaYumocW9p1KI0sKdFDpp4S4K3bRwN4XttPA0CqqqUriHwn1SUB7vz7aAB2QzsVP3r+ZbzTfI+nVLm+I3yjSGPSerb8Ih2FCr0ts69mtR3xskg8oo7o/1A7le5nhZlzDGVxFP5sN4MvmqEDg+TPZJ6z2ByzFaInFbE06NQyJxxwMYQUXOFy3301Djuz8LY+Z/FoaCVyWYLG7sInKAPSxVxHpc5a/JUPIrV/2pKq6ktZBGf43UadrfH1H2NCMQqQHglzCv2Q9O5+eo4sI5KqHevSHH/zt2khqOXb5IAFQRS9Np3xFa84oLPYi3p36nfevujoSoH7NPxkv9Kr+mUxrYmvRVZOEKWriUMyH3sYJ4lNLjX+FKLqAlTF1uVj/BrF5RH1LJ1Pr9FMgwHb2PQ2+zTzwr95PlFD3VhP18vcbDN/MQWuQY+HsYCIlZqZ/roqtxWqaB3Pz8AzjJuH+Y7HN7Yz7NySbMMByYVnsSi7PIY/S0si8xiHXRSqt9EsjJNRTS8JFo+o80yqpQapXiZ5DiqG9/fqs8zeNqQUhRkRWSjwXgm0f4smFHjanXxdqQ+lloP4juj6yhLrAXdHqllrgqxWZD34IxvZSWZG+PSvoXPZZLUr8SWW1ucWSJOY/1mRRRC6gTSwHBSEf6GwEteuHCd0KNL95BSAXugroN3gJBK/gCUcGR/CLkjPFm7lszWuJW0pYaiBhpyGkOBj5LjLryCOFBqNl4kGiEzIeEoHxsQS5w2rSht4EJNHRZk7iShB4fOc5a0KfH+iPoc0MbHcYsNCt6Ajf1WrltXRzPLXl/AR8luaiHS/sLrOcU8/Vu/VwgWmzNIyMH8yLNngtii+HLaSGSbz1hkg71ZbkJ3BlJFi0nIzKe7Mqkiy3K7pKmIx1j9uSwBRIOI44L5x3REW+hRdoHyyVkrcgCO3Qg851FK1M5TiecpL3FzqrzT1HNGzk6suZeUCTcl2fo+QywAb2yA7IpLI+GxCVfTkfcVXNjaF4Bzv7kElb8lUUmDLUhWI2R04s/8+oi1zz2crY/ZQb7hIGL3HYrqEO8Wr8Ba15XNMtpJwp1XBZiwooERIWZB4z7Ql0W41j1HuFx7yAmFkumUFIe55T15pEVJhdrxFhKuiQ6m0RW2C1YJ7VGb7sWipvoN9mV21eA3R926lmf1W6whfR5b25vKdhV7n6i4rt9JNCNhUyhjhQztmR0xpercZoIa6R+HgNBzATpZYj9SG/i/ENWMEsoYBLHNXlac54wyUSe0x0btPFXZm7cL6H5IOPxpUzcZLYfy2eQqYRWLCHpTiZR82KmUWGRLmvi2gT+WF4LGEsCyhCWD0dchTfZ2uFkZVP0Ys5IbrakpZekrfQeLfmXIK6LVv1LECPVsFTp5i3sHyz7BlAPY+7wVg3BHjt7nUlLZOoxx9q2I6RFO9PGHSdGE8gczSMR/x8V6OrEcSZmjv5ri9w+5Cfm2Cj1b95E6UgLM7kwsvliGh2qDZoEa22+yRzIh3SwW/NfEVMgqsvmbYs5nPd47B8ScZMA37bUS78lkZpXnBHZwPiNxeqihNxvIsHggFXNYhvE+smMbXUIVk3x6lRsNSvXkrqkRaYhw45sUDH7VezhhPsvfbdKyX8ofWUaDLlf5r4ThU9m03i2K09Si5eu6CoxP1v0ljLq6+Iy6qcY4rQDxi4xUrxQf69/MBzJTsBOBhfY0KJXyNEE8vqiVzxKNPwpUaBd++ke2HB9KIW2Je75k9HAQqApD+iygh1vJL3kkRVAteCmeYtqWyqMKzTXYk+BDSnQJpFKW5eYNxXl54o0TAEptvkFzLyimjenOOoVpE658bxdjL6+XhLnyJujQCWQB0hOXl7C0AWFi2/bNjFvLXqBCEcbYbiO/91cDgSMwLyRrqeOs7eg07El/zZMjl41d2iV+a6Sx4n6gGisI4RY/l8eBwAAhVV7VFVlFt/ft+89gCKSIBiMgo46MiZI4xonl2cfG3w24XsxrhpnugoxOgoNAmrKG0orjTRfpYWamquWZg9FRSI1NUgzY1kkFtpDyyiKTIms9v5OcP+otYLF/f3u75xvv7+NUhoQghtrq3d36bYMCmk5jFoY8v8J6eNzb5+deMeYWdMn5iTmTJgxbsyM+yAMwkH1hGjoDX2VUhFaqUjsOOQB8HgUgAaP8o7OnJ0zPy0jGywVWAAAwfLBPwai+HyMAv4V39AXPNo72ZeeFpv4m6+Hyad7pjufAW1O9ZNTEzKy07IyfPNiJ2XMWxyb5MvI9S0AC37HxkrFZlSkmFHsvJs3KTOLbUxNS4WeJfxeJH+M6guDygDKddz4ORmpscm+1Jws3xyYmpaeM8+XBSL+og3p0P6s/HaC2UUXLkUQBEAgm7ykFVsLZMP3cNGg2Cq6qstgqIXpiz8b6CnZNc4XUAzQ5AUrCDCIczSvePh9YC3/rtuGccSaXxnm15WVv6g6houoS6Amzq9rK++bM8mgkPVReX4drbz3T10D5RG93a97rKV/SDgPyqtLoTDar3utpeP3toKyWK8Z4dctKz93dS9QAaw3Ffr1ACt/bVJXUIGs1xzx64FWfn1yP26tkqr9qpSgCzh9DH+qR1dfwZcxwZWX56/zJm0JzZ4cGeoBbwW3UwUV8GB1CQIpgCTLCeTxX7sEzM5GSCCMR6Ts3HFVqNQ2LmKtSoQ6haUa1mn1y2h17eiDOx88vZPMiCyHmoIoIb11DAxkO5q5fEf54JFWEKKiIV5xi77n+Yn7V3eH07Wxse1HyuyBVT13HTeIY/cuMGR9Rg9aEr7Lxu1PjraP/2M4CbJARph/qZ0OZYfRljERDr5yIpciG+KdD/ofM4jyVEhkQ4hTt3mAo4VMnBXqYNEadORMvnOVfqzv5WDbtI/o7tRoc1YQvSkrDXngyhTakxXo4J8SA6mbvkKCxr+Q6ISZJG8s+O9NhN+cWUFrkx62S2tqDRr/QiTLsXtbbS1E0oVtGtTQ8x5ngFVEKMSbEkJHrl6m/X3KbByUeEKyqopsWGkQl4THG7IsosHO7FFi4+uxQ+2mSd1IEHh1GOGP5/ZzQOfth25vIuw+5FaSLMWGIP7nwBuGnF30Ge0ed8F1e3fqQRKUOHgpAFBYSSGhELbI+Q6mOY8123izJ4X6n1tsizVBLD/8iiGSa0zZFRsXVn/IZYknQWNDSEzZc7TzWB3h4OOE75/aR1JmsSGIp69NM+Ryexy17Djmur3cvpMExQas5RF59ekoEUAfyl7NuTIJKFpjv1arHC2POsnNnrOExWuSZGqct66tNojRCZsMeSd5C818VDtaCBeJcPKKdbTxaBMdnPCIQaxPnmXIG7lEMoYoVleu20WC0lvjhgMAaOb2nV00x1QAJ84qN2Tj0Qr6678P2Pj5wD0stNmC/wwZQlrIS5syST/eq9QQbNkx1pDpHw3gwFMI9/fxUuHckdx/LwUU9XQFjtOeWtmHbg183sYvpvyNrS62O/yC+mHnHio/nGNj/IubqOu7Ww/KJArincODDPliSqU9eUWkjWElo7hkm21BuVFGkOH1fXJaJorwtdq+NDt0Pd0RXGzQBN1J/n7PNjJ5Pd7rKF2ftpWn8R1CboRpoIQkiIMfjDBEAm6adJK0kPLDV4mLFMoRoSNJC+ITGxoMEex91zOkhXBpQUtajC6R/CAB1MLqGFfkXN0pEPLtjWGOlkedhJ8AD/J1HhyZIO6YoyW1TiIjqfmWGYJ7sp41ZPyFA9z3arnDJ/lCv839Psk3oMUV5HCHNVAzHy3mJbCMjLlOwm7dmBhdMvrhWxw9/9ISEoJyOYXkrH6PPfVx+DpcI66KI1gR9RXx+vqOt0Ud38ePqfuQFwmf+/oMLYvYYL7IpdHp91oOWwd9pt8512HLjgfcEDqCgkoezU9PX+SK1I/kFXmUi7z1oFgRRBkxIY/Mu2RzEdxFwhuJcx1qyxIwQmNbNTtusMUOygRfn4bOncOXGzSZCLnlwbPEdgiH/aWVZGUJSpxGWNW8lN7b2sKrxkd6X+sNW4jZmRfvD6ebZtxG1OVdG9vz5/LMl/EsbjKII14+YYj4Pvnmm7YWIsmAkghkunB26AxDKqISyJtyivCD/hab3E/iZ33GKtKyljpJ0PMbCYWsaq4yr4388C3Cp77aYYx0WIUXuHJcUzaS17GK4ngnD+IB4f0md4svii1FFjTnhexrPcRJXrDx4v31vP1iOL96XrQlZIT/Vb1Mz9x3yN2C6fduJ0mntOYhg/jtjemGiCdJ3LitiNotzTVxgFrV/IN8Ay3WGF3yxIYNNv5UX8kRYNX2J0sNmjssROrGabndlX9Ngo1t+W53C+dWSUF5H1wglPzkGtZtLjPIa6bSEPHy3aBGMu7M9ZJIOgkHwj8/Aw==(/figma)--&gt;&quot;&gt;&lt;/span&gt;&lt;span style=&quot;&quot;&gt;PUMPKIN&lt;br&gt;&lt;/span&gt;&lt;span style=&quot;&quot;&gt;PURPLE_PIZZAZZ&lt;br&gt;&lt;/span&gt;&lt;span data-buffer=&quot;&lt;!--(figma)ZmlnLWtpd2lGAAAAr0sAALW9C5xkSVXgHffezHp09WPeLxjeIr6HmWEA3/m4VZXdWZk5eTOrZ2bVnKzKW11JZ2WWebN6plnXRURFREREREREPkRFF1EREREREREREVFRERXRZV2WZV2XZVnX/f7nRNybN6t7WL/f91t+TEfEiRMnTpw4ceLEichbf+1vxUnSvxB3Lh/Gxtx8tllr9KJOqd0x/K/RrIa9ymapsRFGFL1uFLZzZV+xw0aVfBDVNhqlOrlC1Lm/HpIpaqYXhUJrSXGVci86V2v12mG9WZKWy41mp7Z+fy/abHbr1V63tdEuVaX9isv2qs2GlFfTcjtcb4fRJqATUSVshD3Arc3evd2wfT/AtTywHbbqAjxZra2vk56q1Gtho9Mrt+m9UoqEt9M53s42u23GEQpnZ6JOOyxt2RrK17iyHfG1tUYnbJcqndo2g6zXYMyKhrrr2mGl2WiEFQabYybl8PqrV6e83qD80Euv1qi0wy34LdWpdW3AuFFnBr463Wje602lh4cJ03IfeSOEvNLuLtMLCL6rvWZDyRstnG/XOtLIa0wGcWu/n8Sg0Vupo2MHaau5rVnv/HA8GI4vtI9GgtNoNh4I200qTLOq9ULB6s8XURkCMtVmpSt8k/UqpcZ2KSLnb7Sb3RaZYL1d2hK8QrnZrIelRq/ZQpSdWrMBsLjNIJttckuMUNLlek3JroT1eq0VSXYVcXQYt2raiXa40a2X2r1Ws37/hhJZo6tGNayK2DK8k53wPmHpFNNVEcDp6P6tclO09kytQWcNhTLPtco5EdW10WapFfbO1zqbPdf2OjcLyuD1FZmHcr1ZOUfphvO16oZq+43Q2pKR3rQVVmslMjdv1jY26/wn1bdEELCDvdVlewi7XS9Jp7edL0WbtV6Hnik9arvUrpXKyv+jOy5zu2Z6FeRB6TEpiltrj2V4uoIeV4qiWsSE9qDc7Erd46/U2rCuKkblEzJCwk2bSoBP3GpWu9rrkyz+BhWUvsCW2s3zFJ7Mgmw1G5FSVSa+UEVTaW4BttSfEu33D+Pzw9l+J354ZhXmMdG93VI7pNYwFje3HiLbauoi8zswJLOHXaAYZMVq87yIr3C1aS62Su1SvY6BYV1t9dpO6kuL4Hq4LtDlsLHRq5YQaEk7X5EyC7UrhVUprNeU6gnNN+vVUGZ+rcOSDR9oqihOttphNVxHSau9VrtZCSNR91PMYliX+tPpcuhFNcfjmQy01a13ai0FXrNVanRZ6rVGSyfr2s3wvpLV5+sqm+F2W7PXt2jmwDc0GbbNis4JZze16l3p/uZSm7lJh3mLLaWyuDXqbm3BS+9st4EuKIHbVKUfFbXCsLLZK3fLKAKAR6vGYBOxN812SS3N7eVRPB5sse6FHbSs19lkJjbEJrNrtLd0J/Cqpfa5UEj7bpCi3oEsZtZqGUNLsVBp1ptZqahLRNssRVgjzenyp0W1yfKivGKbpMVVUVYUnOyJqLne6SkNSmubpTaq70q6A4Tt0K7xU+F9FeRkR356U2f7TIQ9zczQNdoLmWvrXUTVjGod6eK6Vn84dtq7EjVZAwANGlWtMS30JqwC8TKQpCoP7B9ZAaGpYq+ABRkMJKf0hdqWFXMRG3y2RmZpm6UmJne5dsBmHe32R7GVPrttO+xUVPDrNRmnh75qbx2rt0G4txfvOo4LNYxXm722xAKi0lTbzda86K03MaXMJHtPud4VBv1yqXJuERTI+q3ojrHURKNqKAdg021hxUm9evO8ZmChY3mI0Ih6r1JqiWYW5iUWVLuiu0xRiFbj3cm0PxtOxrRJ9xJ6Zn6RK3mP4dbOhXNt8xebRbPLskkF2cRUmx3sHxnvfGlb5s+vx33ZzTrT4QGltBOY6W2GTlW8xtHBTjztjoezBGLtksjGtGr3hfWIjMcw2bYF069MxslsOleJZVQFuJF6lYG3VZL92IdxN09BVMHBIFNYh2K1Z1sUXUGxl6LZdHIxLo2GF8Y0yIgZdik0gYyHOXdZ3yJX+oeocDoe5KO65GUG1rcWQAQpgwhsMby3W6uz52MZARacEorNsz5QEXmjrVjcDLSU38qW55tV76mUV3LlOymv5sp3UT6RK99NeS1Xfhrlk7nyPZRPVWrtSr7303a0ZydDkcwWTkwbqCmH26GMwEsH7pcnk1HcHzcPY6sajK7bsEsbMdJMdl7yXtQtY8w179+nK14VXIW/OZkOnz0Zz/ojmjtTmptblF+l4J/t4jOs15TDeevteDobslYF1mxRlWtaRjGbW+T8rclREleOpslkijzYR0oYSypMpd2MWJq1NnkvvD+UtYrqUfJx+bSrVomhYDwrrAnKBbYGkiJJpVYnt7QlJliaLDPFuO/kVrL50+JqHfsttuXENmZiMt0aTqfCSbb+dPpJPc1gu7Cp7IUd0WW/2k/2rSXyK+zfgMxc0z21VnZhFFqNDUDmbCuU1Iu2JfFbVfHKg/Dhw8l0dnwxBfhabAZsm27FmBSAp6X9eykgW7t+vX95cjTbmA4HlkjBrq+c6OcM+na5BfM2rf5sFk/HVIFVa+lSwbqrMfF0Yo9mk3acDJ8N6UxEyo5KJuPDy3JqojrTo/Gu00O/WovEyxKaBjeffZiMp7Yrit3YmcN21HSWtcOxg8SroGZWadbbrFxmWUxa0AnxstolPVsUUjIIcxZnkswMYrrfkPXSfQYL0t+9aKcxG9Mmpv0BpKsceGyxOMWat9iq4HR3hXStSP0y2ia2hnygDSqTIxiaunZLj9QOsbvJCUrdjuhlIUeqqKTOHiWz4d5lio9IpVWq4Nluh/bIE9hyOeycty4FUoJOZGdRLS9AzjxR7YGw12liblRACwCUjkmubbU4PFCSGnCsNFqTZCiTy8YCyDFuSmXE3rXHLEU7PxUjzabD8avUAmxcaqvzInLTB3ZK7fgYPFDGLFm6tZO8mk4dNsF6bHJMpOx12zpxZbZy0qBSb6qvW8BV76U+P+Vit4UnHPb00NJrdxudmh7Tllhl1Zr4RaoAy/lmPY4HgrNSg99pP8fONZxqsAnapSmtw1JP6LFxUfa2mkQT8HTJ+zZvKwJabYpHR75gK/BNBK1oS3oQWAILp1v9bAIIOuyVKt4p6Sp158L702YnKG437Xlvjbwd3KZO8MmszDKkfMp2kWrTaVvkhLotrc90pv2xnWc7wtvYjjl1dHrsH2zMIiDQDMubedcm3joBC1LfHpbW283s4BHkQOk+UsjB7I5RzEGyLWOp1Y02LcwRW55DUlorc5AltToHZJROyCHfwhyltTkkpXRyDrKUEFMKyCidtowyiSClxM4sAFN61yxALclrF2AZ1eu0Jwd1RK/Pw1KaN+SBluSNeVBG8SZsXq2C1ur83IwrStSn1MAU6jq9hVNHE+d0Drk17CcsazvjpwnMVLrlWoUKI6TTgldr5Iu+2Cvr4NNC1l1WVRC8BUjRtl2ALVlTn5WXo1bb7hMrG6gn6y4DrDrUDHDC5nSBsFLt6lhbBHbOi005eQy4yYkL8KlodzoZjarDqTUvMO3W2OfZFZCwWm3bFts0E2sQD7Bss5j68L4WG6Q1tBUoiMulJW+jy9bk+QmhKjojv2y80QS/SbN+ZTLCH/EKU7NqvAv84+/wT9Dnn4J1WWj8MCXvMv/4bUBgzwEP8U+wzz8FpRTNJoc02JW82THeoTPdINiuBGG7PzV+sCtFwdGMwN5ZMH6uQbDVn02HDxtv6eCOOyh7B3c8lcQ/uONOkuDgqQIsHDxVgMWDpwpwqdWfYtdr40FMO//C0XBgHsxxsWZ8e/qg8lJ/dBTTxjvSk8hjjL+OWBv9g9h4wV7/YDi6DL6XyI5PRjibJbvT4eGMUiC48Dzs0+ToIJ4Od9eHF46mzAV7vDuiG/QUBSDjEdnQgC157WaxaXTY32UVLLQl1IHbIVZPyx4xFHeqvQqBddEGGWCeApaX4IXm8crQf1WIfOtK/zBB++dNWLB6vPVIemnBb4UcNYX1AEAvK4nHT5BXskVADHaD7FKOfiuVe54tTgT8y8EAH4yM8hOpkJmcDKvGItC16UXxAaSGu+fj4YX92QIS0UUZUoZS4ygx3F1AmdPhrKI7y3rcn+lE/a3X4mBKlanc2VIUNxq/0ooEHsioSHWgpEUXml0i0CSO9XKzXW2QrpTW21K/Wm2oFTzR6G7J0NY4B0h48iQbtYjmVNWmp+WAQHqGg7ek15RKeia5tmLT6ziUSXp9ZMs3tLc1fnOjWATSm6LzGqC/uRKdl/QWJlngt1YqGhe9LbI+3qM2iU+SPtp5U7c32w3h7zEiFNLHsrGK/B5X7ejR+/Hr9ZKM4wlbG23xK54YobOkT+KQI/1/wTquOOmTN236hZu236d0bPmL7rXpF7ds+iVycCP90vp6Wcpf1mxp+uXtjqZf0bLt72ida4icnlrHbpHeSSp83tXu1KV8N6mUn1Yqt7dJ7ymVt6X8dFLh+xnbls4zt2GI9CvL9fMyP19FKnhfTSp4X1M6tynj+NrKWT2Qfl1lXRfU11daWi5Vum3BK+NjSLmCVZW0um7phwQhhZ910jtJN0jvIt2kW+mvRir0z27a8dDbhvBT32yeFb3Bn1bHqFHDgyFtnm09/RmkrbOtZwide8+2nnkHafts6467SaP62S1p1yEELvhdtlOZl23xqkjPkwof922d2xL4/Y26+oMPNLrnOqT/ip1H+PoG0oj0G7cROOk3taKOwHukAn+wfa4t5X67tSnpTrtblnnfjXDHSQcdy0fcaehJaY9pkvm7sE1Ij3R/29YPt+24n7V9TvXl4na70yYdkd5JehBFWHBjxqRSnpDeRXpIejfpN5M+jXRKeg9pQvp00hmpyOmI9Jmkl6II22/MQ6RC72FSoXeZVOg9m1To/WtSofctpELv35AKvW8lFXr/llToPceLojuF4Ld5lW3l8LmSEZLfLhmh+TzJCNHvkIxQ/U7JCNnvkozQfb5khPB3S0Yov4CMsvo9khHKL5SMUP5eyQjlF0lGKH+fZITyiyUjlL9fMkL5JZIRyj8gGaH8UjLK8w9KRii/TDJC+YckI5RfLhmh/MOSEcqvkIxQ/hHJCOVXSkYo/6hkhPKryNwllH9MMkL51ZIRyj8uGaH8GskI5f9HMkL5tZIRyj8hGaH8OskI5Z+UjFD+KTJ3C+WfloxQfr1khPLPSEYo/6xkhPK/k4xQfoNkhPLPSUYov1EyQvnnJSOUf4HM04TyL0pGKL9JMkL5lyQjlN8sGaH8y5IRym+RjFD+FckI5bdKRij/qmSE8tvI3COUf00yQvntkhHKvy4ZofwOyQjl35CMUH6nZITyb0pGKL9LMkL5tyQjlN9N5ulC+bclI5TfIxmh/DuSEcrvlYxQ/l3JCOX3SUYo/55khPL7JSOUf18yQvkDZJ4hlP9AMkL5g5IRyn8oGaH8IckI5T+SjFD+Y8kI5T+RjFD+sGSE8p9KRij/GRk1UX8uGaH8EckI5b+QjFD+qGSE8l9KRij/lWSE8l9LRih/TDJC+W8kI5Q/7h2PUuGizdiuzT3GS101X5zZrf7hoThLnr83nRyYB403m/CvXx5NcCa9ncuzODGBZ8Njxg+4fd2X8lg8O/y4QX/WV9xlE2wPB/HE+H6Kk9zVnY4EqdVPZnE0OZruQsJPpnh3OCjiDk53GxLKoUNAHMor4r2WBs8iamK8lZkwjk+Z7PcHk4cSsv4+bgsxh318TLzWQTzrD0fkCjHjTcQRwXu9REwiJjZGfmkWH2hU1VYtXxrucDCGjVUOnSIX2617WWD8E/93u9zFO5siDPKrO1OhOaZnSieUGePfrJN0jbFuPP68PxFvdiang+DSMBnuIDjPFEjcpdZpU0w4BSRm31uC9jjZm0wPzMgsD3XGXuiZFc119nHVx8I6oNX+GCAnnppUCeQaC8G9xPtlapfNtZTz9zfXmRMWsj85Gg0qwt9WfwwAfm6aTjg60Rg21xJpQubknspWMd2UvsQzpw5lpOtahd01p+ODybOGFXpoESdHxsvemUuqSC/yzHXEtC8MxxyvpOfzw8FsH86uX4BuWk922dywKz3hLMvR50YVihSe5d0sTvEW81ZFWY1fvBhfNpxZ9oDWh+OUADMtkOrwQgynAacWStaV/lZTkILzmYtcgFCC9tCO2Q/6Dw+TTv8CTHiSbYgE0ft0pWmY3XZ+/e5+X44X8TQBw8tK2lGtKsP3E8k3L8VTgrxxp89cm3f6XjCC18S8IfBOjjQGvA0N6X7ZrOz1R6MdonLCV2Km3omDYRqVy0Z3rW2lgcQBGsSlmKX4Ws8rXhhdPtxP2GW8pUF2Q5Wwx3jLO5xvL37z0UQMwes975o96GbCfLnnre6jslNIXSxPHgbn1Z63NstCyBypp+4EWTSnHDweZFydHk0uyL2DonQmlVQezb29JJ5hncyqd+aAcUDL0n+N51034Jh2KR7Ulf83Bt71VQuYy9nJyI3WWxitPx8ty3lhtCyshdEWj4926crRLrtRQWNhtCsOnhvt6r9gtCeOj3ZtYAdXV/4Z7cnNHA/GL+wQix0kZo/Dt7W37qQe7Kd4HCCKhCgzwiyCeaNkzjQhDOxKmg+GLKARpDA4B7btOZbOsimWnTiNv4INtKdS0B7SBcpCkrr7yajOZqMvSKmU7EKK0jImczKN67k7Tizk3nCazDK5SF8wlC8vbcjk0fHu5OCgzxDKdveZhyUGxq4gBs0YZAJVC+j/SuL9wSVnm5eutEPLClIjE8Uz87kCcdtMXdjIpoRvkKCHBNPuZN90+oNZuOQu1cqYIQSt4K3+lGlzss8zauNDqmfSUgqNePbQBHQ3QsR1wHw8m0AV/2TjvNJSyMbO7RBS8kQVEvOg50WXD3YmI0c+0QL9st/bfEokEQI+QRzZRiJ4j9cRFlsRk5mSRU/VZ/B9dAMKh8BwLAkUIL2NeCybHxJyfU3ylL2jJF5HCzbEKWEcl8caqvFwJIZ7e83x6HIboV/qjxQ7qFrNrx0cHM1kdLo3Wbr+Il0Kzhj6pSSJZ7UBXDJ+dG06BOetnue5ihDQZQj0pSgKjR3WfG2AO+rat2Nmx79oa1PiLC2tBNFfFsnK6PsCEfS30Za1NGNwk6PD2sC8wzOBzhD5d7KGrKQpvMvDY5DtgyFRfLdnltJipNTf6xFFzZPy0zW92F3kqD9SddrhI9Rvu05RhP8DRhMRiLBrg/8TZsQAqo+EhCNxRHeDR6rntvIQS8ycR5B5RLTOfnzweZheH6GgHWwfQaYWEXIcYhNulTVgxy1HJWzZ5yY+wayNhrxsohDIq7NuWeCFCKOHw0QnrSleBMZmJoXtTA3woeej1enyZ2w9bjrQSHYWPAJAFfFJtvrjI3boy1E8Yl3HWEpTGCblyXTg3KOrIBSTox0JkO6wq0nnbnBLyS6lfsrKMmY0cUsuHqzjwle58OXWErdvPorFpfBhlsJCXUiFLIiZlBnOBzzjad6O/kOMLsJoynIVfYKTmLgwVtNf3cORP2cXSaKVzMqDOD6Wvc0+BwHCuzJLrX5mOBJOmOy07mhRHA1xkKeXxbp0JpEbNWgCIArgLWHp0Yp47Bbr8tF4byR333KFmSe5Mky6aZXKcNWyXUnbb/U5h6QmdjeFWqre4dHOaJjsQ0w6FnY7k07cP6jP2ZNO/OOdBDXOWLKJpGskmsmw54ZPSDX3oofgFFPmkMVe4uQvsLBo0q5Od/vOfxFldqH+KMrNSNrEkrbvrIx/aiar5AbhBC3U44Z6IuwtwZR9+UjOJoX5uaNIkp07lpLDadwfgLGc7E8eQtacmMoxEhzIRgD6iqWxzfaHS76qnbjCCdvYldYedpmTl13mVEfOMrqh18Z7cqpUVu8z3uAIXQdMvz4KOptIRTW+NNxNn2+kF0ASqNO3Jl6F0KkGk32FcSckVwGU2WGkYTs9vrCHucaVyvmeHs69Y53gcEnB/B1iTtw+zFiQWm3AVA73hrgWKD2tLM1PsNqbiB+PtOV8lI4QMCvZWwDDNWB6Z+hJPqvxpZTeHAZcXDGOFLPgihly0QFS/CX7SJPcsmOgzCHhAnuKOHksBbZ2uKGXbNRy3c41nL0NlxtJ93LLu4KAHUPWkiBsrdpLHyJeiV5CR3G8REF9fycDK5VPI8o5qCJqIrrY6HOsVhkqlik2StvcAeh1ieFStG1fUnrReb148CXtcTejCIG7HdUHCYWQs7qEQ6DMdIrVAiN91wqCidobepFCsLoF2V7rrt723QB82zLicI9lYCtYS4729rhHw2IMxTNU1u42XNKx/sSrmRHLNEFy6YLYGT0JMv8Ua1VdN59jFVFqHs3EG5YtgnpMHNOB1ykeEOVlMNYnhEsifUGG3bqYAF7BeyrtJJPR0Sx2PiRGbjc/qs945sQ3s5fYkMGa4357w/Vu/Np6rxGG7nKzVD9fuj8i49X1uCTPilKr8Ax2Vc6yxsecZwYgGB8dRJgO5iQxHCmcuSACklhoJCsCb/rCEQZy6krLyiJTunIodnM6Nl9pVnOU3Jo/Yam50lpia4WGA52cU3WQUxtsLWiUnsBh1bMk6DN1DYIWRhKEhzBLzKD+MmDFYPAWTg84brJ1qyMeSbYjIpDLPKvd8qaPhJu/dvOcQHz3xj4I19ft47wC9xvNtuSK7hHWEiaR7Ufp5TZN25c1+alr6XbKdJ8VBCadsYoSwX0iENckYUZTQ0LZl3m3Ve5CGxvMykHgAHQRyAwzhPvCau/8Zsji3qzVq73mes9Wc9XYS3/mwAhZ+Pe7Gmnol6a7GRecFBFiaXwBKRIlYzPIFf3hGEekrTafYmD3nzrnT9oeTYdw6A2GyeGof1nXxZp4/VrUZQD/rdERgR3X26EWkCTNOBEQSaHBRTvQlta141GfI/a+bVA4VKBtcBDbiB5N3FSTxSer4mHhKaHKha2j0WwovcfT9WE8GmzbqWCCdllbyB5l8PI3/X5lwgDlNLTVl3Cf3E06/XAPn8R2k/jOQAfWHpMrpCa5mBnrJWnTW3iksBzaZ+IruddYq1mn4XhwKEdTRBO7rOyzsPYg3kuqEKzfA8vdS30TZI3JYEpGLWnFCHPodpXTDBSLK7MRkZN6fPZatVrXh2WYVtVvMwfZt0jp866JBDJKkCORVSgX1U4+Zew1qVcO6/p8e7G3raEdD0NLAErHr1hYzORydF+ZHxn6hZlkedBdWC83z1vTxkotOZmz/bft74Nyver69rMNUu/3WQPkvNJ47PZurCoRlNlli32rswJC21oBj6tZfUriZ08oA+4leym4IIWsqrhVui+rYm++b161bElmtSsVbpfDdo+rwVpXVuFqZmdOiOVhLuz7hzUt6UFmUZdOrpPrrZe2avqs8JQW3dX1aS2cTzs/gwUI57xcUw87qGhPHvFhGoBcy8zjDcwB11lAq1R1L0KvtwD3wO4GW1Ku3AZ7Y1Ma6wX4Tflf2tysrKSjueVK0Rvfm4n0X4s+zGtR4VF/J5Zol3doMeVo8zpiF3Okrbgv8XkJXclCiWSnMAW7RE22ND23WP10iQZXpcBhR/cTb49DlpAj788mLhekUO3k9b4pzCZR/8AW2fHVMlrtFaM144SLWi+x5abg9eHDmCX2Sksz0niH7l348yt709j6Cmtm1R1ItiaXYucaT0aDc2oXCcWwaaxnG4Kfw90cEhKfXq5xPUGTRG9jpKeajsqWK8cOJHi88Uikq0xrCPIihnZsm9Hf3ryrEXXOrEvY72JXY5GF88PBhZj9itWNRfUJYmlbugwHQ8KOMoDCbIi9nvUPDmvJ5Bn3cGkMaXydKYhCmUEJcjwoSZw/2OXkkBYKUpEu56VqKL/tZA7N+c1aJyw3S21Z9p6+2JNl5FfD7Z68SG/qTyyDCCyBFypN+V0fuSL77kVLLijVW5tyBS/P52SNkPP0Fzbu13cunuGwG+g0QBOxJLCO6YNW/T1RWvIjrA+KFaFfbJLzRuUuWzKpJ4uDBWjN1QK2lVUx0YJ5O+tBBNM9HCCM7nj4cCcVImLxOelxjD6U1ogwyIRZ4KhyKcpIFBtMBxHRMVul/2o9qMvUSGrvM552uN9PYrNkfM1Y4D2HeCnpw7CxCXJFi/D0mYjkBKuA1IKeMba6UZTUgp45TFr20C26zjJ5g7fI9tv90Vx/dfhv8M1z8kCn1OaNvvfDzjf4dXWIShIQklDMWzzzv63HxUa5bJ7qspaDeJhEk72ZcwoiqYKNN3pc4UzGVrKOtZ8Htj4cjVKcH6VsnfMU8uNAmpfsKVtSWa5p3WctBx2kYZ7rc8+vxerCYH899QXJ/4yHTK7iCH6nz5V+rmruVT7P545fZplwLS7Zdkbq+4Jj/uI7/MmzOFpHRyxr9Gsaq3FUD0jo/6mfxJe2JpMxR4j6cHQ57fcjeHf7hGMxVE4KyPNB8yrPgXPC0IrXpBWZHBT8kynYnUyyip/KKjQ2Ma/46bRCDidz8OtTcI4fjkyWDep/xUsUOAAoKMTkzPvsNCjMIqY1v5erEYYF9v4czDIl0N/PQYUjgX0gd6Bt9bF0iXmZ5/2Gd1UOyxkqXL4TpZHVaAO9aMpfw3ZabNmNjZAIzm9TgoXcUQXep1INUPd6rgJ/5plnQ02hi+vqX5PLGuQjZt+Sr5jrzLdacLYb5DTwIx63YIniL6rvi72jNCwG9Xwnr+Wmlb2l+wjVH08jb4hJDMQfu72oblf5OV3U3xM4JJ37P5Hjm2XNVn8YMVbuZKR/mhKLM3d+DcHYC+PKYqN/mlMRSVfjvcQ8P/Be4C+AkW9inht43+O7UYsU3uiZb54XrS2R+WFbd8IUuITa/g13dpiWNDjXjhMOr+FYJgbX27wgjeUROrINdYDft8gaxoyYrnghifnOwHsh8SYCs6VpXD7acYR+PovwRRImNB/1vM96CyAih3/leZ9T2576FZO0YIdwmDaoy75viuY3/IP5Dvc23/yzXpFHDAFP5cY0bxvX2AX6F6b9w33ZCHCYVs1Nx0AW8WwGTV/qrpqbj8Ms6rkZa7E0YvC5X7d9sXncVcC2QSer2WblyN2b+VLz+CuAFrkr8Aq7mrnJPCHN26ptKeYu+24xT1yEWLTzODrp/eahecq8ZKu/QSTUYL8zU/NFad5WfaOSEyV5pWe+OC3Yum9ymtRxUIys+fcqeaIew/6YONbBwWRcl+AY3qkEgf7tQi2u1sOzoz5H7znGc1iFGUp1yNKNZRyssDzWt+Wx7OYq8sqjPDePglWShxiAvz0PjvBMWIIPxNMJVc/LVzWO7Btr+757Zr7jKpVOB8wlQmlX1nIJqF6Redh8V766Iu+vn82NQQ6W7XvfYr7bY5PHjKXED81PWMzMTrwXjD7jsZfRj2b5imNEuUWQAXkqIc/8QQquIx/Kf8iB++E6Uy8Rsb9k+1TuWHPOx/qrRZD6Me/wzd/4Mktdtuy6xt5SPpbN73pSwwY5Gu6yCR+rfWEwm1wg4DJojpuddTxh5JggY+/3vLSCm9SFmvd72UsA897A/KUnpkSovT8wH5orloAS8wrPe56yVh4OhvNuf0hhHfukQUBfa16OIJLN/qDdqXeoQxSv9ePjV+bfFST2rsk9P9pEM5D183OvmZZc1mr/V3J3cVFt2rLNWfBXzR9CrbisrfhqWmZ3EqtZwVZ+TYJ9IrixJqkFfR1R2uyV1MmsYCu/fgB7GET0ZGxWvVO5okUoHXA8gLdrJLWgqmRrSdNGdKm7bgFgkdYFpmb0rb75tZy/0LRjYVjXXwG0TTewOZwes7jaDfmyRdlM1JtxD5RWzW35skVpWJCaQfMEc3uuaBHutRBWkXmSeUxWsJVtW9afMj/ZPHZestXRHi7O3PN58rxo6x+wDSxIML4wD7A4/ypWHysxH/O8L3F5W9ObC6biAsl3HgNZxD3pdyOeHMRyofkc37srD7A4F2zPKVCw7l4EWbz9GSo9t/frELLcCvs/EizWRheHhzUWl2deqTVdtjtZbjFLMWEdHJofVfi8RWd/uHsRk5FQ92PH6tRXNLeZVwfywgRbw9KYHNbjPUz7fOaZ5u/38ghtmexjGC+ZY5Qns9nk4CpUfuA4ztUIvXSONK8ZyrZ+yILDnDD2HzyO05ngz1A7R3mZRmtw/BlmwkaF5BGqrvYfkuPLFbcbz/V3JuJZMb5N9ZKA/ZiDWW4z8KsdWIaYAX/cAXVMGfQ1DoqCcWZhscmyfZ0D0pVdOAz7Jx3MdpWBf8qBpasM+NMOqF1l0Nc7aKQ6ZsHsAXmh/Iy/zzZr3ZhMJjPzOPPoq8GterYS+RWuGDpTNexDrmArn6VlGRe7FDxczJctykhBrf5A9jtQDvJli0KHgCrMBOZPDYXZNA8r8OyR/VXzWXNZy7Z23XzA0+JmxrYjSAd/YKvYUNQDm1d80FYQJ8InrZs/tEXrRlH+kC232JLxVaLhs6VV3fztAlj7rxHZSmDp72xVnnFbtW7+vavaH44GrunGdCK/uvuErXFs6RQC/Q8LUKsEgP/egpWM0o/i0R7C+aSFp04HTUzDfC8HRoBtXOppEj8gU/8wk/59Fqw/s26Z37Qlx7ObKXp6l38wHDPo2Ly/YH5LHI208O6FFsoFOsLxamba5k98OfTHbISXoKN80i+X17go3su4BonGKP5G/4CF1p/K6vuwj3a5C3eJB+gx5Htktdq770iufrKKF84ryjBxYW6Isc3f681JqbPzcc/8cA7WoRUX+a/IgarzO/0f8Yi5wrRiPYB3PMdq4c7E00txpLdcMP1LHJMIrKpzpfgd8+YcSH5KvmZ+ec4r4UxkwPQRFWIlpfffHarMtvnVXFcSS5sciQq8LY+51afAf2qwfs2jkNbkRvB2iWJxTaZl3ADmfdSXW9135DqI9BV1hAbOSvryWizQ789Zrc1JJ+atgfexeZVOBRLSmKp5V2D+h2dvvvSs8CLfe58rS9AWd81ej73Y9/48lY1EP6BhXuabf5jDQiISQP7rHFJnpHYzerVv/nEO19b4BjgK/20Opb2FfWYOq6CSTJaymuAwev9rXtdh08sufl7lm/+dq2KYGGnz3/x+Fosn9uF7/8U/QD3wa8WDTczP+t5zAoIVx77VddL8F0+hXfTFWZJV89+ZFz1XXeU54Zs988+PXL3NyoUD8xLffNAfswjciytgUm3e5JlPw/wg5jZ592KdHfAIB9i8JjDf7o+GY6wUihc/pLgfChCyMud8adakx22XOyNUEJgMLduqfoTb90E8aaFCOyw18x5CgLL0Dw6V3AcD8+/StnSDs6FL7p8K5h/8Q+It4tpG0hvhjeFYVc+8sGh+mPvwAXF5eYBJyAIJx0SxzPf7c3DFfuZlmVFbYNWKJzramXEb4arf75sfcPWV/i5nvhIEE6bQvMnnBtLW1MaHR7PsVvplgflRVyEOAnewrNJXOcjm5BL2T3XufQRK/WFyXuERu8ZFmRRE8hPIT1YPMnJsJM2xRdPmoHzCkduKZ/2ByOnlAUFMCwsviYDNSwPvuxykhU/CvnR5Kx4f2a3i1YH33a5SmRfVajDBql6vCsz3B6oh7clDqbHHb/UZs4KxhEcH44WaX7I1NLD6mJi/882bLdCin5cNUMG/TKjVrX6MnZye0Iq9oT4okVn6r1fUt1iPnBUPOfGmSP/oE25zzyA/6JmX2GNYdBhj+KeNiajdmvkO2QrwXQ+ZVqlGcq8I9OkfZv4DnvmffiLgjkCU8DuK5n/lYMTxiNcRk7Kg+EBUToKq7lLou4PBUMI6BzCI0GsD9o7/yH2OnGjbk8mM4t+7YiotWn3Sd63qWiNPNnQY/+SbT6VVjqBupv/sm/+cwm2TVv8owUY/JzCfRoNaLMbqUJaRqMY/WekRtQjHRwfrGBv01bw2MP/T2nMqZKhpxesC821EBNllWQonNGPdo6/t6+d1xtgIqJ6el2x1WVar3RjDLNx35gqgRa7EGg1nmnXxN+0roGuvhFr0MMEA17CVU32hjW27ZRFi0eoHQ8ZTH5KAciuJK9nqrRlK3UGNLrKZgPCofNmiNHdYoAtfpnqKedJxmEW9j4WHDuY9VTzYL7gSatHvJ4Yy4G5Dv+BEf+YO86XHQBbxQSuEiNgNsMR81vO+bBFk8dA7gnw6CYm4SF9tvnwRYtF2RqogErlPiAB7X5ErW4xd+/ZedIDLFnPHvGjrB3uoGZqfXCSKpnPIVCVXAC0yllL7nqwzB55h48qKFuGSHUsZqVu9SNuD/ZBEZ1mn/+x5L/CQnOqmaAF1L/IS9YLmH774BvNj7EFy7IoOWFr7iIZJfbXDcwfRgXmdZ3vsiHCSaHtDMhD8OYfIRDFPuziPke4K30SMfncOg3uI/CIXv1xXq2M5jcfp4lpjJ7RUMmP/fN+81eu7F0Qv8M1vprusjXYLuK4zsO322KJ5lzemLQFHirru/9Ezv6Wx7NGxF5Sf9My70wpxdsQepghw+dtp3Vy6NZEiIxGET3nmPVdilDCGxKLZxfCNzO8oAsqhBu1B80cqiz5+0ZQLNJGjuxWUw11pjA8sEyA7+kfsWaACTbpEbjIfdfMXcwJyBScUHoHAR72L8WUikRcuINn3BATvL03wXkPZvVr7U0LVyPtvPOFU9luiVPvleG8yZacn0CkDfND7j+6qpo4TkpgX+t5/8mZMtwQuRfLm9YH5z0wIjO43uchhncIofs8Eu0gUlzyMfAc+TDKbn0meT5BvJx4ogQ8EOJzEZPe3Ygywgn62gK+JUjDPMsuw5zSJTekH/WTIHsHRMb0QafXH8UiG+0q/v8tINBC42dmqy/L4QIELX4lMtrE45oMF83M5pLp7//FG/5KgANHu31kwv5BBKlidowNGJq77IbFO84tZnRyXy5cjfARq/szneiOtERiViXlXwXtLHsqm+F7P/EoGasdEK9BlVcY3FgjtpTXCil7bJebdBfOrGbzDLI8bmAoY/2gGjXYnh2C+t+D9NVsNu/RlVORhEPAG9EVHpDdi3LGZ53HZ7h6dvsU33xvsoGNMy3ZKCSYHwuT/8I/VAP6povkc2yHuhvzKAJmED7OxDKSWCfi2YIrZSNHPoe5r3HuJTZ7s7UXM4FEikvpkwfwHHxZoly41Af+9b37bgVOfS8Cf9nFYD4bszIJoqZgPFczvwEfu5p3u3+ujQWzoOK9v9s3vIgdOkzhmezgT5s8K5o98q6dok6o043mXZ/7Y3xUb1LZx+7kx/GiBKZ1aqHUS1syf+4PJLlcI3BTkaX+kYP4C2lx4MQn5hy7cTvrex6y3U4LsJevzcC9phfNxVc3SbDYd7hCywnUrmL/VUeh86lA+VTD/Cff8AMcs++bKczzzmQzmPrLyXM/8d0SCQnHr537/YrhUCQbxXv9oNFuoYOgPmhcRHMzB+L9uhkQMzIsDnKNI2GbG7A9LRAbYIRH0DwQ7zjgn5kVF3OBElauC3jGoVwX9YcgQYn3DX2H6L+DPxaNBg/i9GKZl7wcdio4yXYUvD/THddVpn0ll8s3ziuaHgvZVWfSXZ8MZkl8z2B72i+wO2U+wQKDI6iPAYYK0PBxn9mjVFFJo/+EctJhCh+O6bijqT1OxlFZwSbNQsZzjzqFIv8Zvh+v2kaJJP+bobSPM+RnMD/q4FYcUkad3EGP66hP5VJPxOTqqlIMtgYraMDKzKm/KoWNapW6kBDvNDXkkJPBeCvS37JPPoNtwuYJDk2Ivgxb1q/TrzfZ5+7xpScvlUuWcAywrQF+krjBaDjF6LrLHKn8JtSf+NsSlJB7reYnuPXNA/ifnKNJ6hs0EMrICsCjXxEKLw6Rpm9nyku236jb7hTOjj/ZjwwmOyIscNkTdIsn6uSe5Yj3mv1n6oO95i5UhNZchdVHX4vyBcGrARAlBy9H4Y2gcqw2pgkgwZuJVy2ECUnMc2U4yM20xPoxebi9AzBO3apG8+kLe5vjDTU8+5b3Rlo/mz99P+nNgrVG1LyGD9Alo+g6zYF9RzlsVLcC9ukx/BSJfns9B7fPG5UVg+rRxZRGcvYFc3a5FtbKqun1eWi115OHbWvoe9WT2OvRU9vly6UqZ6B0f8+lFHO39CqQzcyTLx9VpXXMF2tXJXVtutqsApMNMhNc5oGuZwa93cO0xg97goLaDDHyjfj+y0enJR8TCdqcWSn83WVFWml15z52bpZu3avMHwLfIK9+0cKvUZIK8Taqy0qP0HWz2XPfRWkyfxd6uJWWjU2s2pPvHzN/TPlZr3dPex9WPP959grxcnHf0pFR3xdhl/s98lXwkt0ryKCH1LJVsMQBl+eJpZOtFsAE9aHzZS6wPQ8Mc7b+C9kJdSIUQZVVrpMq8ryD03FLuCFUiJmzXxEfy3sac5Mch+Yh4IUhCfjiAq/kT+StIyxYCeo7sJ64g63BCEOYkE4CYSb+kjk/LdQBajtQnIXVFfUjlnMyhqxDOLGptFh+ok2d893LUlOv2Tzc4Ynkva97ZP2Sd5epDKuedCZDoUNpTise+MO4fiNzte+tPgUFMARveYMZ0XoMZUXGiDPg1n/FN4RJBJC181jfFg6MEZ0ZKn/PNkiXdydB9byb5ejy+wNaLjbUI2ykFn7PNDBeEjWBeu5WRZMOY4MdVhbkEpmYdqG3hixi/mg/7ZJEikZp9V9uxn4n0HF4+bOSlPxFakL9DtARdHEnIQcTcrysfFc69zWrHe8YvjpGR3QxgH58NXh80/rMnBzvDeB0HTNyGhhVvsJtv3sgaPi8whfzvU4qVq+OZwtxYm7yx9prb+pcw2E96kf6xkB5sGOPXGpthu4Z1qdXr1qbYimChh/kjM+MX0iG4xfiCQHfBbS2wJQaj+EJ/97Lb3Tsxt9eiQq/CO1igWRXhuHfzYzt8om/Iuj+ytCCM/7nwPrVwqHPkmtekbXEmk/rCwCzlBbR8OJW3j5wylRbebGBW8lyuLvBiwfK1jInrHNs1g3VbeKVnfzJmSw+aYG806bs6fM4FUh1hR35tqR+e00kg8dIfPyJwNodGJezJLxIBBI3uVtm+Ll+g0zo2APScZSxnNi2ued7QHZPlN74O+uLA82s58CIRaMyEu5cERuIHyPPzIHcE0/jy5Jzlol6IgXN8TfkrCsK5Z924UIIOcG8/Muy+Vmz0N6KkngigF1ZRMft7IL/UYXPcDKtoGyjy7eX0b/9INZ5Ol61Tesr+JpDA3W8FNOBedmcUsN13p1nK3Ual1AnJ2kf1srFR8G2zuSFb+OWYzW9zdEG9FOTi+g2rj8F5Lcl0EKrMrgCsaJZLFdlw6cREofhsHZ3g+UxXcQmcOAIF9qKwjsOitc57J1eEVZGU84rznXF1zJl1MpX4C/rv431rBtZnaCoeL1k3RJVMB5UVa2A59HEuNkJxhxq4j+4PD5h2rZL9FSA3hfk+ZYCsy0MHcpLI9zcEQzt4BQt0uKv8FCxniXll4BUTZTseNBVGLUuzY5+fsa6W99EzgCuYPjbQIwJUB2yjTKcnqxKvYuGizFzTub8VRpV2Tb8QaSotmXDPfTjRr0RidoOzpe1ShlOQGBFp8Wyk87Ok3vS9Alpu3d/ZVODKhpjt1UjBJ6LzNXWY18415dcc5E62u5FATpVL+gnQ0xzH5IPkKrczNTmVEHENx/NrAoxsXSTspZVVNC6tZJcjUStdIo4pH0p/xJfcTPShAyIna2ZlxfsyvXXibUIYazUii9ZCbeeIsI293/xZzPGQPQwvSqSfvtaVn93EDT2nUyqU5w1MQT1bqxzdxrzgZccPtrhe3X6pM7A8jO0JyD8xIqtkfgGjksghEqtcNCeuwgIbtQQTskAMx2oG+KbArA4WQW9GrxZBIlGMzFvYBgeTh8ZswjiKWWdFdDBBFvF49/IcuiTiQczTWdPGt4vyPYx1iUTUYbq5V6cenVupzncqqbAD8xYZEJ48qdWxmqIqA+IwTlypeLxMgCnEV9/s3m5TjVOwGZaoJleIriYNk/61AFPXD3p6bf0uLp7HIppvq42txoPJVztpYd237Ef+QTHhfVl+/tUCwUxD3n5xKPupx2zR+G2oka1IzDsDj7vA+eZaSJhYHF75wNsByM6AIuBiRjlUKv7ycN5DB7DZNuxbGWjhzQRqm1XknkwEbFWdeagb1/KKSHeRGwg0QBqI94dzRrulA4mybHKZAojycsbbtjuUdNSFZbUx8Hez4Y8xPnaFjob9xLyd431lMiaaBd3+qKSMyUbcdznkQoDCIYhTMf/mRElRjH/7nLMG1FmtSHgO64Bq7sOZziD5gcf9hA1fcR4whTmODMiOMTfwSK+9jz0akW8HyKsJ6pVMR35un0LsE5gVif6MrnpHsnrlXcuJeYe4C8nCi5s1y+/60VjJm1XvJEtq2rcIbhEOzKmZij2dBBXJ6UXYtlg88wsFc0bn0Anzvb65BnKu+za9z2zoLeWYW1Gs5rg7HdXGjfghzmiArlskbd4emOsXQbrgmb0btDO58u5MRMTI98YMVL5cOtAjyKq5CRHaOUcFCt7NWXGuI+8IvFuOsWqlkOP11mMItVT7L8WZIyiXH7ctchuBqWfrRy3CsxP2oxfh4J9TX+/2TDkjMCTa2tLXNUS43B5/LOB6mPKKI+QWYDXWR1KmeC68P/0BJXvGuQZuztzNEMvk3Vdu3tfDcyTvt6K7SQI22Q6+B6ESSgW4clRZUhfjy7L1yxM0lodCXV/vxhBtwrQ8mb0I5pH+dFR/qcJg/S2kBI/WmBoMZbie/d2hZuv+XrUrZi/1DC2ymCVp7B3Ycjzoosm1AXT9DFS+nAEJX6eXHoXEdvS+gGNtimoRa8jyjFgdB00JWPhyyNZr78X8U24MyXS3qzk/jXkHs/QpvK0oPOTi0cV9ez+AWYuFUAeJUL+c4dfkWb17P7+yx7pFK/MwcegusVrkIvYEV+gXhqirbHmU1xB8buJPag/b1qirAE6hMe5NkR8c6aiAyrkcLYpcvFZAnFFAnI8dUFBn3rAV2SMnf+VIx+algxZnJ2WNO408K4Wrjq94lfEtLWKed3I7LqBUiivbsCMXrLhRu/3xpX4id5ixe1q8x9GAO+yRY5tF6Gu5GsuC1eC3bbRhtbCwJX/7ih101waxv9x4tl6J1ie7fR3PwPg5cMR+ymq331zcO07RUtrUl15tDCvNlzkhch90keAEOMQSDnX9QjU6Zlv0HRpU3IV7Znr9DhPP0sI1v8SCkisK/Y0ZOdevtz+ZcfExc0U/4Vzo8qkNyBrb2SxObMlhfT4CzLM1QLXU1E3Grq7gmpUx/Iccc2e1gXmDZ4pZn9HcopW0oe1df26Oj72Ov4kudiaHBxO8vl0uFEQj4Qdbl7OGwFC4RZhSQvWm7sY2hYtFxe3mqHYVJqTy/w8jkLIW5RgzQhd82FmEgw8Ys1/YZqlMIvHAKnoDZ/svWvSGbU53w6TFrMCKaG9WiETBgQTol0RSZJ8jVuYV+joWefKu7kUi6xgdK4ZiCwbxoJXOne1ONcx2lGTrn5AbKyaBLKISBsHb6SfiIYgUqoLttIV4L6GKTrYDZg6sMf788sq0Q8JWev/lIVE9SMhAdoiY2cFjyid4PdrZ3+Oij+OHsoJ/hU5VRacCcqn2AUH3hsmmxayNG/FDx4aAEg4y5j4pYaY0ZDKTeZGnFUJ1uTYHpzPDrCRS0l68492m7EULdOAuSenkwAX9hb35DNuOGO2KWgeMcbJoRJzZcYtKf5XVYKJcWc9uUdoC0SVpntaowR7u7OdtL+UobdPWIQ6w0UAFqzmtcOXaJ4ZHPHbPtUEvGUYlHo2IltcEspRBOPUrZHlxTls6VBPI33DgUkPPovKRmLbNEmDZ2qpxkSEFf7EpS0ofWyGZQ6WCwORx9AXmVH6pwkab6jY2PJLJIQYuPzdmBSfKWCpx/YBCqnSWuvkUSnUlOILMUWI+y6k1T76A2mN8M/rBzqIepkuhxklZvqjLBbfgZ8Y6SIdmvzXAdF3ZtXB0FUajjCNH1DGRmH/iKLfApO4hRN/nexS3tSm1dZGlJck6WKJRJq/EfC7wlqkjtma/pkRwEUXAciFwtk12xI4t+9tyYpuH4OTMJEeQeFAhBIQG0KSEYEacHFLFlh0O8GzKzu1eQ8KBvxnjue7E/Rkzj5kIJRSpUUVT5sItK3ldvA94E779J6UGqoqQ530LOef4EnWX8NMOlkCcBHsuKsrOrx7CH7PoDxhObD4cmPmaMQ96K5MdOpKfUWBCVwcxXkncsDRPYDKwIrphJ+bPAm/NzkS6SXOZFngnZ+nO0rS6kJiPBt4puprC7Zo5rVOb4mxae8GCObMAb6WmuSYzmbMwnJYcSkq+KhOA5b32kNJctxLzz4F33W5uMp9TMNdfWpi253JAwjqcnxL+Q3Y3ypfv1zmrRCgFuuaZm3KWK7WAifl04N08Qw/cxP5DYG6RYpRJ8R8Dc2s2KSXdkCIm6ra9ye5R0hx3QHZtOfLsZ/P/nQUOOunwovk+WVKqVeH4Y4F3+6XhVTbLvwu8x+yOhkwPYlozj9WuoCKvYmoDBPe4q1GWnTlH/eOB9/j+otY+r2CeEF91v/xE4D2xT1vEJZ0koWIJ1QyPbp+UTaDDC0exHCcs61gouLSK4fXHk/FlUcpuCrI7chUyAcaO42Niu8Z/aVAjMjhKUkoWGU/3QXniITV6l/YO7vUi1JbAZP9w/96jeHo5F2tfOFo1OgTAuETutezf3vRa9e6GhsSOUzDsUjgnclRo0CsMctA8xMhi8nZS6i8qcBFCrWUwybTO93ZGLDKNyjjLyCK28sYtRlSokG+/tti1xwrRIHezuILfY2/pMLcz4O34wO5P9oIQyXMIAq7FYEZOhLlsCnRUFu+siOMtl4vLhBP7yazNomZyBhHQDtgM7OBQGy8ngLryHVjOX1vz20ms6ZwFGsjqAonOpQE5zM/np4x7Es0mh5yqIFFsMbmohDzTP+AIZ8fvL5i4YVKRZUiAV1pkLpmTySLueE7lFQXjV3RVlKeT/mAXprj3XcDeXZT7S2kxg9epeRnTd5j2Y15ZYF9J9bqVB9urYPPyglnagjCywD4LFnrj5bvysU2a0ec3TivMO31P10Bafn7BKw6FtjB01TXzgoJ5nFCIVMkd8IUF8yRVK/MCz1uSXLmfYD3tPvwYuersj5wdX7aPSk3BrCQSWo7wsW3NalruCP9fb06k5QpeEBwouGzW9JEmYymak5p1akwgTIvrWWzhtO241b/M7eIAwJlkYSXJHf6LC941Mh47kvk6eUnBXLsHpW17amcY1yn1GtrH0mOfvdw8miUin/HuiD2IOJ1s7ijI9YrYYi7U9t2A+hBbxMKP8AlG3fFA7OfuRfPqgneTgtpxDnTzTqosiXlVwbtlGu9aYx7F33wUo4buzmHZ3Kr9lKfo5j7HEKIo6zBsh36b1oWE0bguEbm9xTePOpQD1OXxbonJxZyB9ujsAy5cSMd6xhQTdjsO+uyyvEyu2fvjOiwxgsfujoaHO/Ijxmy7accX+Jf9ruA9Hu6QpDMrGECZ/tdgwnEc2/EhmwxCqti5hNgTw6ug22Ofm4xjRup4TfbAwReNs7AMO6fmFpaY1xa8gnxYuiS/B8l1zfH+AgNnqtJvIEKyOtzbq+wfSYRsbU4K8+F51hFeMv7Afk+zQTUryQS76uvXhFLB5p1mF22pxiBZW6gkw1/aFepJSX97j2A6++iJgOhieYfArygaktocshqnu/uX6cJbObwStno15A0GJDN54vDq8DUZX7ow/KUxQ0hHCEm7R8hiZoxODol5XcELpFiW/gStsCO5lvbQWKRQPLwadKmdPl5XnTS++2uq1R6J7npmu1YNJZrpZahVWY4+cUTymzY25U3TSqXz+gIucd86FYKtQHNSXgyEJdlBzXq9WZJ91os68ndNyfmleq2kN516k0xGPinbDqPIXkEXt/QefCn/tmPZvv2SNx2UVuTqMn0OslprbENRsE40mtWwt14L61X5KKN2spay145tSGTO5srnZzPjzvJTzPOztMDPcp6flbTD0tjeg6LGj/AWY834C68vgr5e1nB/U1A33sJ3TDF++HCK5Wa5W9Cb2XQO3EsJ89YCO7Z7K24h7+ImcI/VHokVt6C3FcyqdCyjt5BXcgMyRkl08ZakYwvnqkg+p+z6wyNkjWCFzfXymDJ7JdAtd9rZowH5o9zy15Xt0z17zaovF1r6yC+o1kS3yBXCe7ulukxLsdHs9LREYanO5Pc6mzoVy1mh12xnKCsb7RB1bWsF5dV8OY94oqTHpjWdupP0QnLKTmptXbg5TauG/cPsZ+BXv+XZqzeb5/QhyDWN0H15+9oaXLS7nU3BvG4uERZEnBUy8bypYOQHRw5cml44kp2bpVfwsgWylc6Y3hEw+/Y6HJz5IgIHH1DhiXlLYf5GcT2dT3xQoq549ZzUaOn1k3XRIcn7MoegC0fStfVD5xNM0yQLDHT0+5t6eh+TUSzzDogMZTtoTs8pi8co2IXjL7wDdo9q5C6k1StRYT+GKrOccS9qR+86LrkM8wYAlNgb6BGpLS7NN8J62jSK9VcqtB6KeffG1rDjcy48p8rwhci29MNwPeZAfY335CQ5RwipxaeXj3+JVwPxSzkcEWA2L/ojAGNukr9lG3EbE8rw9EWU3hUxXoqEcxYf68qrlc7m/FFqsKGmpCBU5JWa4BT1k9RapLQUbZZaWckaFldYQYub+jneVZvrpUbrhP1oblZec+XUgp2cP6J138d1hst+IDd7jXtGi+6F7TX1Wv497bVXPLi9Th4K6XOUHPD6OTB7cnGDkmWtEQHDYMigb6wgchyiWf/hFne1e/Im1gTnQ/k2vWEFt5vMBwIdNgXbt69v+qNtNmxOWG6B4Hd68jxGfkJlttLHBqV2p1bR0XkRQqBDsn6jtE0SlNxn/gub8mcIi5t38u/S5l38u7x5N/+ubMqfHlzdvId/T2xKEEbmay176XByvdlECuROYQ4xexHZ04JzZlOg17CPkVy78FDiOn0+d31X/r2BpdElvbEuf4v1pqrAbq52+PeWqoz41vXaRldp3EauUmq5ATxqizMq6aOxpSS3y07zmHCLfx8ryqCyf1y0hWKRebxw9QRmXOg88V7+eVJ1XVp/QalcFjaf7J4cfWFben5KWwbwRW7/+uJObUvafUkFw0j6pUwcyZdFJf0zwV9+rix8fgU7AMkdkQroqTKYOwVwlwzubvcnZ59W1r84e0+5KjPz9KilpvsZysIzz2vyla1apWMH/FVRs9vW781+dW1LxvM1hMVkhF9bL5VDGdfX1RqtrnD89eVup6NyKdl3aOTKwr97qMIC7aSTVyVvZRjKaiqxb5Bfb3Y7ltYGdovNRGdycwscYaumToT9qxpn6+GGfe93TrYxGUpddLk9wRibB1O9a2AFSe4utVp6S2v7fEy51MAkkKuIpayHzD88iPCrznDUGutCIHSjXXczvYHKyl+BsHQ2CRDaXC0KS239S81n82/1Ts31/rGs++5WI1PaJxLtIMDhKD2pWpOfGjSVhydX538b4gtTiX2ptLTL+cvsTHy5k+sdkqJWwudTcR+FizvZY6XXp6H6+T858vS2/rboGSQp4WeSF9rK1Vd25L0kma/t4IaVVclK2bx6lc2wco57d/K+/J2BSqiqHWCVRLUKMN11nBTTfK7NUgoTWyziXc7UYCWdcNvnaopxIqq0ufK30DX9lLLkTketWiPj6wxck1xLgjarVl4namV7vb7TDkPplfwNzHe5aeE3yghIbxL5WdDNwiDpLZLaPm9VTlJh3UYXgk72UUKW9NGSOlK3i9TwsMiWS/VQF/K5elNmq75Vat/b1RZb9vEpOfRsS8fTVOxqrWSRW1nuXqtYlr2T9oEDuWsWbNnj5ibp8W5KnlBlCTrYF4RbrU2MrPT4lPVQ7zW+CENmV/gXs47Ctv5V9C+pNSLYsK2+Il12d4k+6+5B4Z4oNWxfhbFhcuyLyK/G5HCRlha/hpYi7q+T8ZF+fXqeaYumocW9p1KI0sKdFDpp4S4K3bRwN4XttPA0CqqqUriHwn1SUB7vz7aAB2QzsVP3r+ZbzTfI+nVLm+I3yjSGPSerb8Ih2FCr0ts69mtR3xskg8oo7o/1A7le5nhZlzDGVxFP5sN4MvmqEDg+TPZJ6z2ByzFaInFbE06NQyJxxwMYQUXOFy3301Djuz8LY+Z/FoaCVyWYLG7sInKAPSxVxHpc5a/JUPIrV/2pKq6ktZBGf43UadrfH1H2NCMQqQHglzCv2Q9O5+eo4sI5KqHevSHH/zt2khqOXb5IAFQRS9Np3xFa84oLPYi3p36nfevujoSoH7NPxkv9Kr+mUxrYmvRVZOEKWriUMyH3sYJ4lNLjX+FKLqAlTF1uVj/BrF5RH1LJ1Pr9FMgwHb2PQ2+zTzwr95PlFD3VhP18vcbDN/MQWuQY+HsYCIlZqZ/roqtxWqaB3Pz8AzjJuH+Y7HN7Yz7NySbMMByYVnsSi7PIY/S0si8xiHXRSqt9EsjJNRTS8JFo+o80yqpQapXiZ5DiqG9/fqs8zeNqQUhRkRWSjwXgm0f4smFHjanXxdqQ+lloP4juj6yhLrAXdHqllrgqxWZD34IxvZSWZG+PSvoXPZZLUr8SWW1ucWSJOY/1mRRRC6gTSwHBSEf6GwEteuHCd0KNL95BSAXugroN3gJBK/gCUcGR/CLkjPFm7lszWuJW0pYaiBhpyGkOBj5LjLryCOFBqNl4kGiEzIeEoHxsQS5w2rSht4EJNHRZk7iShB4fOc5a0KfH+iPoc0MbHcYsNCt6Ajf1WrltXRzPLXl/AR8luaiHS/sLrOcU8/Vu/VwgWmzNIyMH8yLNngtii+HLaSGSbz1hkg71ZbkJ3BlJFi0nIzKe7Mqkiy3K7pKmIx1j9uSwBRIOI44L5x3REW+hRdoHyyVkrcgCO3Qg851FK1M5TiecpL3FzqrzT1HNGzk6suZeUCTcl2fo+QywAb2yA7IpLI+GxCVfTkfcVXNjaF4Bzv7kElb8lUUmDLUhWI2R04s/8+oi1zz2crY/ZQb7hIGL3HYrqEO8Wr8Ba15XNMtpJwp1XBZiwooERIWZB4z7Ql0W41j1HuFx7yAmFkumUFIe55T15pEVJhdrxFhKuiQ6m0RW2C1YJ7VGb7sWipvoN9mV21eA3R926lmf1W6whfR5b25vKdhV7n6i4rt9JNCNhUyhjhQztmR0xpercZoIa6R+HgNBzATpZYj9SG/i/ENWMEsoYBLHNXlac54wyUSe0x0btPFXZm7cL6H5IOPxpUzcZLYfy2eQqYRWLCHpTiZR82KmUWGRLmvi2gT+WF4LGEsCyhCWD0dchTfZ2uFkZVP0Ys5IbrakpZekrfQeLfmXIK6LVv1LECPVsFTp5i3sHyz7BlAPY+7wVg3BHjt7nUlLZOoxx9q2I6RFO9PGHSdGE8gczSMR/x8V6OrEcSZmjv5ri9w+5Cfm2Cj1b95E6UgLM7kwsvliGh2qDZoEa22+yRzIh3SwW/NfEVMgqsvmbYs5nPd47B8ScZMA37bUS78lkZpXnBHZwPiNxeqihNxvIsHggFXNYhvE+smMbXUIVk3x6lRsNSvXkrqkRaYhw45sUDH7VezhhPsvfbdKyX8ofWUaDLlf5r4ThU9m03i2K09Si5eu6CoxP1v0ljLq6+Iy6qcY4rQDxi4xUrxQf69/MBzJTsBOBhfY0KJXyNEE8vqiVzxKNPwpUaBd++ke2HB9KIW2Je75k9HAQqApD+iygh1vJL3kkRVAteCmeYtqWyqMKzTXYk+BDSnQJpFKW5eYNxXl54o0TAEptvkFzLyimjenOOoVpE658bxdjL6+XhLnyJujQCWQB0hOXl7C0AWFi2/bNjFvLXqBCEcbYbiO/91cDgSMwLyRrqeOs7eg07El/zZMjl41d2iV+a6Sx4n6gGisI4RY/l/3BgAAhVULUJVVEN5zzr0/z4ukIQWSUGpmKpGOaXn2x8yEJpTsRc1oXQ0JB9EUMBl5CJjRQ80yrLRQNMdJLd8PlHxlis/U0XyjZmqFmmimxky754d7Z6qZYO79vvv95+zZ3bO7vxASFISebCyvVJ5ySOxBn3FhbyRnJOX1GZbwVL+hzw3ITchNTuvfL200tII7QURANMRAnBAiVArhUbTBbHIBuFwCQIJLuJ8YNSx3ZHp2DlgisAgAQvmL/gxE0f62Auifz4Y4cEl3qjcjPTbhP5e34m9nTwvaA9Lsupd3JWfnpI/J9mbFDszOGh/b15ud5x0LFvyPjSmCzAgPmxF0uMedmjtmdFZ6bGpmfr43Px8iSmlxJH0lxkHHSQDT5ANJmdmvxaZ4X8sd482EQekZuVneMcBik9alWesk/mEslA4LpqQEQQAEkt3zUpDJMrL+KqUPSqyJ1+UkuFKqMsZf7OAqXdLfG1ACUOcGKwxUGEVrlrhoPZBWiMGR5LukJZF+XViFZ/LpaqQshY0Rfl1aBVf3p4BQpCdm+nVlFR5MuReEi/TiW37dZU1oE38ChFuWQWy0X3dbhR/3DQFhkQ5D/LplTUha1cBXUgaJBX49oMnPANJhi18PbLIfSHpdnV8Psgp6n9rL+iQY7fHrwU16EOud/HqIVXB0zw1n/ZVkvx7atN7ow/26x9EtIfjK/nWPIIso7erOz1uGeIsutQ1dc2Fkhbvv3PCc1MhwF7grqaBEUBGVdnAYcOI5yZxQTh4nioIcwgkg3MKBkbMe+nQiJ5LpM5xLgOpQFAsxn3JVKxJgp1BlEiqkaCr4kOaacKq2HDaiKVwiRVFMYmRb6EB2JHH+rfiLGk1AmIiGrgKs4HNU1SfbvYWrGwpQbqqN8xNaCrLrstma0CFPvNvZlk+FliATtbphgyHv9KnD6fVtbNWzXNiZH3hsxgu3L6IRRp6vxllb6zA6fjaqHXk1xn7zgSAGTy3BpNNRtjnRRw6kzEXJi5ioF8MWGzKq5Rac228VqrdbH8GyjbXIaA5ikjHcsgdP3YyHq8Jt9XDgImOt2TzUUpiVUZedoK4s2OYnL/VaoVWLLsvwy8+2Vt8uHGFQdV0WY8jX/U/rn+ZHa/X0I+X6wu2FmpFdlA4RtgyYGIE+MrdfD1RMRp6/rVt0eRhblW7UKvLIAFx7zyTKZLFB9U6fSkO6d1uO6Y+d0oo9CVrUBhkPvZmJxjVjlb32EXIa4GOK5dsvoswPuSHnQzJLJGDiDMcffuQjd7sOoSqZ0ZeSp+y9Nz40qPgymHBWB0+VtmQSHX8CVer7Fea6qpPfM6gOpgw1ZEceYsSS71Gx1SkVS5Dx6v730RxDDgB8Ix2/XlmXXGPc8RGfOz7yR8fjqLznUjHksLKptgyqsa//YMiUiku09DSqk+0su3jEeioYy/7orjJHGDA0HF8Mq0f54GSt3C/s4VDWBy2aZVB99fsgQ/gUMqzNceyJ41zP8olODONq2uKjK5KQb1it3J5Hm0o1h8+ofntmjSF1A3fTfVzUlIczuOV6R2Q0njDhPFzdv5vsbEd1R9pa/HnfGVzc5lODatrmXEMilvTHhdt2OscW2CtN6tgPiAfBblDunAYjdMi1xu625Ec+Qk8A1lCG2eK1xoO9FZUnJauq+u3WnxhUxSN6G/Je1nnNxaW+i31I0whGxvYWxc3k+M0abhzNdqi1uuCfzyqbitmguu/YWkM6Tz6EZAdV924N2DFhOzJGHpniCNPrJ+CPVVcod16UqxsaNRN1f0Ig0hsF70jrhRh8WCvuJnaEy41RcZ6Y8Nm7d+3SkgkHA4I9uPnsWVTDwtMMqYyKR75cvnIyuZYGRqOemT0dJbe+j/C9KybT69ebZTSzUX1+eYEx0myV3jabqGuaE2lyTOgQU5T8yEfoCdALhPpx741uPE06cw5txluFnRzhoRPtbF7R3oqzVd1AD84bHUPjr14zKm57Jptq51DqaQWHzVsYjQ0mbJRXmFN4y9E9jxgbjMYoEz6FV0A6CO4Q8g3kS726OxEwoVmqJdfduJpTKKPjB2sfMTG9oWud4Jg8f/YcEgnGsa9/oCUb9BGyB1BPRcYjqN2x8VoNGDrNkFlbK7HHkHVa/dJhKQk3NSNXj2SyfPYolNwVTGiWPWnIc2fb0/x5ASlUN3JxMvJsNAKNGz1ozT1Io5rbrSdZHa+bzwXx18KlSA2kaRLzcKiqfuvXZwzSJA4yhFqU+jVSU+ISKcw5mnFmdks0AsWO3nP7NDUxKh7Yw8JnIr+7GI3TPvL4q/PRxPXRXVup+KtwQ84BHuIzTOmwS4zqwcmtDWGHeSxIJtM2X0dKUjh5pGwOmlF9+skRQxhjXp6HkgmlFiSHRegQjg/gbw==(/figma)--&gt;&quot;&gt;&lt;/span&gt;&lt;span style=&quot;&quot;&gt;SPRING_GREEN&lt;/span&gt;" style="rounded=0;whiteSpace=wrap;html=1;" vertex="1" parent="1">
          <mxGeometry x="640" y="490" width="150" height="155" as="geometry" />
        </mxCell>
        <mxCell id="20" style="edgeStyle=orthogonalEdgeStyle;rounded=0;orthogonalLoop=1;jettySize=auto;html=1;entryX=0.5;entryY=1;entryDx=0;entryDy=0;" edge="1" parent="1" source="19" target="g6q2oZA1gRLXdf9-5JJ_-1">
          <mxGeometry relative="1" as="geometry" />
        </mxCell>
        <mxCell id="19" value="Roles&lt;br&gt;&lt;br&gt;ADMIN&lt;br&gt;USER" style="rounded=0;whiteSpace=wrap;html=1;" vertex="1" parent="1">
          <mxGeometry x="160" y="310" width="120" height="100" as="geometry" />
        </mxCell>
        <mxCell id="25" style="edgeStyle=orthogonalEdgeStyle;rounded=0;orthogonalLoop=1;jettySize=auto;html=1;entryX=0;entryY=0.5;entryDx=0;entryDy=0;" edge="1" parent="1" source="22" target="g6q2oZA1gRLXdf9-5JJ_-1">
          <mxGeometry relative="1" as="geometry" />
        </mxCell>
        <mxCell id="22" value="Reviews&lt;br&gt;&lt;br&gt;id: uuid&lt;br&gt;user_id: uuid&lt;br&gt;starts: int&lt;br&gt;content: text" style="rounded=0;whiteSpace=wrap;html=1;" vertex="1" parent="1">
          <mxGeometry x="70" y="65" width="120" height="120" as="geometry" />
        </mxCell>
      </root>
    </mxGraphModel>
  </diagram>
</mxfile>
